<svg width="685" height="111" viewBox="0 0 685 111" fill="none" xmlns="http://www.w3.org/2000/svg">
<path d="M132.919 39.8022V-0.000236764H147.831C152.689 -0.000236764 156.37 0.859347 158.874 2.57851C161.416 4.29768 162.686 7.02592 162.686 10.7632C162.686 12.445 162.331 13.9213 161.621 15.192C160.949 16.4253 159.939 17.397 158.594 18.1071C157.286 18.8172 155.698 19.2096 153.829 19.2843L153.773 19.1722C157.174 19.2843 159.79 20.2187 161.621 21.9752C163.453 23.6944 164.368 25.9928 164.368 28.8706C164.368 32.5331 163.097 35.2801 160.556 37.1113C158.052 38.9053 154.483 39.8022 149.849 39.8022H132.919ZM140.206 33.6356H149.512C151.792 33.6356 153.586 33.1685 154.894 32.2341C156.239 31.2998 156.912 29.917 156.912 28.0857C156.912 26.2544 156.258 24.8529 154.95 23.8812C153.642 22.9095 151.829 22.4237 149.512 22.4237H140.206V33.6356ZM140.206 16.7056H147.606C149.998 16.7056 151.867 16.2571 153.212 15.3601C154.558 14.4632 155.23 13.1551 155.23 11.436C155.23 9.64205 154.576 8.3153 153.268 7.45572C151.96 6.59613 150.073 6.16634 147.606 6.16634H140.206V16.7056ZM179.534 40.4749C176.394 40.4749 173.872 39.7648 171.966 38.3447C170.06 36.8871 169.107 34.8689 169.107 32.2902C169.107 29.7114 169.91 27.6933 171.517 26.2357C173.124 24.7782 175.572 23.7317 178.861 23.0964L188.784 21.1343C188.784 19.004 188.298 17.4157 187.326 16.3692C186.354 15.2854 184.915 14.7435 183.009 14.7435C181.29 14.7435 179.926 15.1546 178.917 15.9768C177.945 16.7616 177.273 17.9015 176.899 19.3964L169.611 19.0601C170.209 15.8834 171.667 13.4541 173.984 11.7723C176.301 10.0532 179.309 9.19357 183.009 9.19357C187.27 9.19357 190.484 10.2774 192.652 12.445C194.857 14.5753 195.959 17.6399 195.959 21.6388V32.5144C195.959 33.2993 196.09 33.8412 196.352 34.1402C196.651 34.4392 197.08 34.5887 197.641 34.5887H198.594V39.8022C198.37 39.877 197.996 39.933 197.473 39.9704C196.987 40.0078 196.482 40.0264 195.959 40.0264C194.726 40.0264 193.623 39.8396 192.652 39.4659C191.68 39.0547 190.932 38.3633 190.409 37.3916C189.886 36.3826 189.624 35.0184 189.624 33.2993L190.241 33.7478C189.942 35.0558 189.288 36.2331 188.279 37.2795C187.307 38.2886 186.074 39.0734 184.579 39.634C183.084 40.1946 181.402 40.4749 179.534 40.4749ZM180.991 35.2614C182.598 35.2614 183.981 34.9437 185.14 34.3084C186.298 33.673 187.195 32.7947 187.83 31.6735C188.466 30.5523 188.784 29.2256 188.784 27.6933V26.0115L181.047 27.5812C179.44 27.9175 178.282 28.4221 177.572 29.0948C176.899 29.7301 176.562 30.571 176.562 31.6175C176.562 32.7761 176.936 33.673 177.684 34.3084C178.469 34.9437 179.571 35.2614 180.991 35.2614ZM213.718 39.8022C210.728 39.8022 208.523 39.1108 207.103 37.728C205.72 36.3452 205.029 34.1775 205.029 31.2251V2.85881H212.204V30.5523C212.204 31.9352 212.503 32.9069 213.101 33.4675C213.699 33.9907 214.633 34.2523 215.904 34.2523H220.109V39.8022H213.718ZM200.32 15.4162V9.86628H220.109V15.4162H200.32ZM233.002 39.8022C230.013 39.8022 227.808 39.1108 226.387 37.728C225.005 36.3452 224.313 34.1775 224.313 31.2251V2.85881H231.489V30.5523C231.489 31.9352 231.788 32.9069 232.386 33.4675C232.984 33.9907 233.918 34.2523 235.189 34.2523H239.393V39.8022H233.002ZM219.604 15.4162V9.86628H239.393V15.4162H219.604ZM252.146 39.8022C249.978 39.8022 248.24 39.2416 246.932 38.1204C245.624 36.9992 244.97 35.2053 244.97 32.7387V-0.000236764H252.146V32.0099C252.146 32.7574 252.333 33.318 252.707 33.6917C253.118 34.0654 253.678 34.2523 254.388 34.2523H256.575V39.8022H252.146ZM274.125 40.4749C271.135 40.4749 268.538 39.8396 266.333 38.5689C264.128 37.2608 262.427 35.4295 261.231 33.075C260.035 30.7205 259.437 27.9736 259.437 24.8342C259.437 21.6949 260.035 18.9667 261.231 16.6495C262.427 14.295 264.109 12.4637 266.277 11.1557C268.482 9.8476 271.042 9.19357 273.957 9.19357C276.797 9.19357 279.282 9.82891 281.413 11.0996C283.58 12.3703 285.243 14.2016 286.402 16.5935C287.561 18.9853 288.14 21.8631 288.14 25.2267V26.8524H266.893C267.043 29.4685 267.753 31.4493 269.023 32.7947C270.332 34.1028 272.051 34.7568 274.181 34.7568C275.788 34.7568 277.115 34.4018 278.161 33.6917C279.245 32.9442 279.992 31.9165 280.404 30.6084L287.747 31.0569C286.925 33.972 285.299 36.2704 282.87 37.9522C280.478 39.634 277.563 40.4749 274.125 40.4749ZM266.893 22.0313H280.74C280.59 19.602 279.899 17.8081 278.666 16.6495C277.432 15.4536 275.863 14.8556 273.957 14.8556C272.051 14.8556 270.462 15.4723 269.192 16.7056C267.958 17.9389 267.192 19.7141 266.893 22.0313ZM292.558 26.46V20.4055H311.619V26.46H292.558ZM329.724 39.8022C326.735 39.8022 324.529 39.1108 323.109 37.728C321.726 36.3452 321.035 34.1775 321.035 31.2251V2.85881H328.211V30.5523C328.211 31.9352 328.51 32.9069 329.108 33.4675C329.706 33.9907 330.64 34.2523 331.911 34.2523H336.115V39.8022H329.724ZM316.326 15.4162V9.86628H336.115V15.4162H316.326ZM353.835 40.4749C350.845 40.4749 348.248 39.8396 346.043 38.5689C343.838 37.2608 342.137 35.4295 340.941 33.075C339.745 30.7205 339.147 27.9736 339.147 24.8342C339.147 21.6949 339.745 18.9667 340.941 16.6495C342.137 14.295 343.819 12.4637 345.987 11.1557C348.192 9.8476 350.752 9.19357 353.667 9.19357C356.507 9.19357 358.992 9.82891 361.123 11.0996C363.29 12.3703 364.953 14.2016 366.112 16.5935C367.271 18.9853 367.85 21.8631 367.85 25.2267V26.8524H346.603C346.753 29.4685 347.463 31.4493 348.733 32.7947C350.042 34.1028 351.761 34.7568 353.891 34.7568C355.498 34.7568 356.825 34.4018 357.871 33.6917C358.955 32.9442 359.702 31.9165 360.114 30.6084L367.457 31.0569C366.635 33.972 365.009 36.2704 362.58 37.9522C360.188 39.634 357.273 40.4749 353.835 40.4749ZM346.603 22.0313H360.45C360.3 19.602 359.609 17.8081 358.376 16.6495C357.142 15.4536 355.573 14.8556 353.667 14.8556C351.761 14.8556 350.172 15.4723 348.902 16.7056C347.668 17.9389 346.902 19.7141 346.603 22.0313ZM385.624 40.4749C382.671 40.4749 380.186 40.0451 378.168 39.1856C376.187 38.326 374.655 37.13 373.571 35.5977C372.487 34.0654 371.871 32.3276 371.721 30.3842L379.065 30.0478C379.326 31.6175 379.98 32.8321 381.027 33.6917C382.073 34.5513 383.624 34.9811 385.68 34.9811C387.362 34.9811 388.67 34.7195 389.604 34.1962C390.576 33.6356 391.062 32.7761 391.062 31.6175C391.062 30.9448 390.893 30.3842 390.557 29.9357C390.221 29.4872 389.585 29.0948 388.651 28.7584C387.717 28.4221 386.334 28.0857 384.503 27.7494C381.438 27.2261 379.027 26.5908 377.271 25.8433C375.514 25.0585 374.262 24.0868 373.515 22.9282C372.805 21.7696 372.45 20.3308 372.45 18.6116C372.45 15.8086 373.515 13.5475 375.645 11.8284C377.813 10.0718 380.971 9.19357 385.119 9.19357C387.81 9.19357 390.071 9.64205 391.903 10.539C393.734 11.3986 395.154 12.5945 396.163 14.1268C397.21 15.6218 397.864 17.3409 398.125 19.2843L390.893 19.6207C390.707 18.6116 390.37 17.7333 389.884 16.9859C389.399 16.2384 388.745 15.6778 387.922 15.3041C387.1 14.893 386.128 14.6874 385.007 14.6874C383.325 14.6874 382.055 15.0238 381.195 15.6965C380.336 16.3692 379.906 17.2662 379.906 18.3874C379.906 19.1722 380.093 19.8262 380.466 20.3495C380.877 20.8727 381.531 21.3025 382.428 21.6388C383.325 21.9378 384.521 22.2181 386.016 22.4797C389.156 22.9656 391.622 23.6009 393.416 24.3858C395.247 25.1332 396.537 26.1049 397.284 27.3009C398.069 28.4594 398.462 29.8609 398.462 31.5054C398.462 33.4114 397.92 35.0371 396.836 36.3826C395.789 37.728 394.294 38.7558 392.351 39.4659C390.445 40.1386 388.203 40.4749 385.624 40.4749ZM415.018 39.8022C412.029 39.8022 409.824 39.1108 408.403 37.728C407.021 36.3452 406.329 34.1775 406.329 31.2251V2.85881H413.505V30.5523C413.505 31.9352 413.804 32.9069 414.402 33.4675C415 33.9907 415.934 34.2523 417.205 34.2523H421.409V39.8022H415.018ZM401.62 15.4162V9.86628H421.409V15.4162H401.62ZM439.129 40.4749C436.139 40.4749 433.542 39.8396 431.337 38.5689C429.132 37.2608 427.431 35.4295 426.235 33.075C425.039 30.7205 424.441 27.9736 424.441 24.8342C424.441 21.6949 425.039 18.9667 426.235 16.6495C427.431 14.295 429.113 12.4637 431.281 11.1557C433.486 9.8476 436.046 9.19357 438.961 9.19357C441.801 9.19357 444.286 9.82891 446.417 11.0996C448.584 12.3703 450.247 14.2016 451.406 16.5935C452.565 18.9853 453.144 21.8631 453.144 25.2267V26.8524H431.897C432.047 29.4685 432.757 31.4493 434.028 32.7947C435.336 34.1028 437.055 34.7568 439.185 34.7568C440.792 34.7568 442.119 34.4018 443.165 33.6917C444.249 32.9442 444.997 31.9165 445.408 30.6084L452.751 31.0569C451.929 33.972 450.304 36.2704 447.874 37.9522C445.482 39.634 442.567 40.4749 439.129 40.4749ZM431.897 22.0313H445.744C445.595 19.602 444.903 17.8081 443.67 16.6495C442.436 15.4536 440.867 14.8556 438.961 14.8556C437.055 14.8556 435.466 15.4723 434.196 16.7056C432.962 17.9389 432.196 19.7141 431.897 22.0313ZM469.404 40.4749C466.863 40.4749 464.658 39.8396 462.789 38.5689C460.958 37.2982 459.538 35.4856 458.529 33.1311C457.52 30.7766 457.015 28.011 457.015 24.8342C457.015 21.6575 457.52 18.8919 458.529 16.5374C459.538 14.1829 460.977 12.3703 462.845 11.0996C464.714 9.82891 466.9 9.19357 469.404 9.19357C471.497 9.19357 473.328 9.62336 474.898 10.4829C476.505 11.3425 477.72 12.5572 478.542 14.1268V-0.000236764H485.718V39.8022H478.878L478.71 35.3735C477.888 36.9805 476.655 38.2325 475.01 39.1295C473.366 40.0264 471.497 40.4749 469.404 40.4749ZM471.591 34.6447C473.086 34.6447 474.338 34.271 475.347 33.5235C476.393 32.7761 477.178 31.6735 477.701 30.216C478.262 28.7211 478.542 26.9271 478.542 24.8342C478.542 22.704 478.262 20.9101 477.701 19.4525C477.178 17.995 476.393 16.8924 475.347 16.145C474.338 15.3975 473.086 15.0238 471.591 15.0238C469.423 15.0238 467.685 15.9021 466.377 17.6586C465.106 19.3778 464.471 21.7696 464.471 24.8342C464.471 27.8241 465.106 30.216 466.377 32.0099C467.685 33.7664 469.423 34.6447 471.591 34.6447Z" fill="url(#paint0_radial_176_338)"/>
<path d="M503.961 39.8022L518.312 -0.000236764H527.226L541.577 39.8022H533.953L530.645 30.3842H514.892L511.585 39.8022H503.961ZM517.023 24.1615H528.515L522.797 7.34359L517.023 24.1615ZM545.812 39.8022V-0.000236764H553.1V39.8022H545.812ZM9.02584 101.868L0.000219072 71.9325H7.34405L13.1743 93.7397L19.1727 71.9325H25.4514L31.5058 93.7397L37.336 71.9325H44.6799L35.6542 101.868H28.2544L22.312 81.799L16.4257 101.868H9.02584ZM49.2264 101.868V71.9325H56.4021V101.868H49.2264ZM49.1143 67.9522V61.5614H56.5702V67.9522H49.1143ZM74.417 101.868C71.4271 101.868 69.2221 101.177 67.8019 99.7942C66.4191 98.4114 65.7277 96.2437 65.7277 93.2912V64.925H72.9033V92.6185C72.9033 94.0013 73.2023 94.973 73.8003 95.5336C74.3983 96.0569 75.3326 96.3185 76.6033 96.3185H80.8078V101.868H74.417ZM61.0187 77.4824V71.9325H80.8078V77.4824H61.0187ZM86.0704 101.868V62.0659H93.246V78.7718H92.3491C92.6481 77.0526 93.246 75.6511 94.143 74.5673C95.0399 73.4461 96.1425 72.6239 97.4505 72.1007C98.7586 71.5401 100.197 71.2598 101.767 71.2598C103.972 71.2598 105.822 71.7456 107.317 72.7173C108.849 73.6516 109.989 74.9784 110.737 76.6976C111.522 78.4167 111.914 80.3975 111.914 82.6399V101.868H104.738V84.3777C104.738 81.9485 104.327 80.1359 103.505 78.9399C102.683 77.7066 101.393 77.09 99.6368 77.09C97.6934 77.09 96.1425 77.7253 94.9839 78.996C93.8253 80.2667 93.246 82.1167 93.246 84.5459V101.868H86.0704ZM133.548 101.868V62.0659H160.345V68.4007H140.836V78.7718H159.672V85.0505H140.836V95.5336H160.793V101.868H133.548ZM167.478 101.868V71.9325H173.98L174.261 80.3414L173.42 80.0051C173.719 77.9122 174.335 76.2304 175.27 74.9597C176.204 73.689 177.344 72.7547 178.689 72.1567C180.035 71.5587 181.511 71.2598 183.118 71.2598C185.323 71.2598 187.173 71.7456 188.668 72.7173C190.2 73.689 191.359 75.0344 192.144 76.7536C192.929 78.4354 193.321 80.3975 193.321 82.6399V101.868H186.145V84.9383C186.145 83.2565 185.977 81.8364 185.641 80.6778C185.305 79.5192 184.744 78.641 183.959 78.043C183.212 77.4076 182.203 77.09 180.932 77.09C179.026 77.09 177.494 77.7627 176.335 79.1081C175.214 80.4536 174.653 82.397 174.653 84.9383V101.868H167.478ZM211.063 101.868C208.073 101.868 205.868 101.177 204.448 99.7942C203.065 98.4114 202.373 96.2437 202.373 93.2912V64.925H209.549V92.6185C209.549 94.0013 209.848 94.973 210.446 95.5336C211.044 96.0569 211.978 96.3185 213.249 96.3185H217.453V101.868H211.063ZM197.664 77.4824V71.9325H217.453V77.4824H197.664ZM235.173 102.541C232.183 102.541 229.586 101.906 227.381 100.635C225.176 99.327 223.475 97.4957 222.279 95.1412C221.083 92.7867 220.486 90.0398 220.486 86.9004C220.486 83.7611 221.083 81.0328 222.279 78.7157C223.475 76.3612 225.157 74.5299 227.325 73.2218C229.53 71.9138 232.09 71.2598 235.005 71.2598C237.845 71.2598 240.331 71.8951 242.461 73.1658C244.629 74.4365 246.292 76.2678 247.45 78.6596C248.609 81.0515 249.188 83.9293 249.188 87.2929V88.9186H227.941C228.091 91.5347 228.801 93.5155 230.072 94.8609C231.38 96.169 233.099 96.823 235.229 96.823C236.836 96.823 238.163 96.468 239.209 95.7579C240.293 95.0104 241.041 93.9827 241.452 92.6746L248.796 93.1231C247.974 96.0382 246.348 98.3366 243.919 100.018C241.527 101.7 238.612 102.541 235.173 102.541ZM227.941 84.0974H241.788C241.639 81.6682 240.947 79.8743 239.714 78.7157C238.481 77.5198 236.911 76.9218 235.005 76.9218C233.099 76.9218 231.511 77.5384 230.24 78.7718C229.007 80.0051 228.24 81.7803 227.941 84.0974ZM254.797 101.868V71.9325H261.524L261.805 80.2293L261.188 80.1172C261.636 77.2395 262.477 75.1653 263.711 73.8946C264.981 72.5865 266.701 71.9325 268.868 71.9325H271.615V78.099H268.812C267.28 78.099 266.009 78.3233 265 78.7718C263.991 79.2202 263.225 79.9303 262.702 80.902C262.216 81.8364 261.973 83.0697 261.973 84.602V101.868H254.797ZM275.929 110.277V71.9325H282.824L282.993 78.3233L282.264 77.9869C283.011 75.7819 284.226 74.1188 285.908 72.9976C287.627 71.839 289.626 71.2598 291.906 71.2598C294.746 71.2598 297.101 71.9698 298.97 73.39C300.876 74.8102 302.296 76.6976 303.23 79.0521C304.165 81.4066 304.632 84.0227 304.632 86.9004C304.632 89.7782 304.146 92.3943 303.174 94.7488C302.24 97.1033 300.82 98.9907 298.914 100.411C297.045 101.831 294.69 102.541 291.85 102.541C290.355 102.541 288.954 102.28 287.646 101.756C286.375 101.233 285.272 100.486 284.338 99.5139C283.441 98.5422 282.806 97.4023 282.432 96.0942L283.105 95.5336V110.277H275.929ZM290.168 96.7109C292.336 96.7109 294.036 95.8513 295.27 94.1321C296.54 92.3756 297.176 89.965 297.176 86.9004C297.176 83.8358 296.54 81.4439 295.27 79.7248C294.036 77.9682 292.336 77.09 290.168 77.09C288.711 77.09 287.459 77.4637 286.412 78.2112C285.366 78.9213 284.544 80.0051 283.946 81.4626C283.385 82.9202 283.105 84.7328 283.105 86.9004C283.105 89.0681 283.385 90.8807 283.946 92.3382C284.506 93.7958 285.31 94.8983 286.356 95.6458C287.44 96.3559 288.711 96.7109 290.168 96.7109ZM310.2 101.868V71.9325H316.927L317.207 80.2293L316.591 80.1172C317.039 77.2395 317.88 75.1653 319.114 73.8946C320.384 72.5865 322.103 71.9325 324.271 71.9325H327.018V78.099H324.215C322.683 78.099 321.412 78.3233 320.403 78.7718C319.394 79.2202 318.628 79.9303 318.104 80.902C317.619 81.8364 317.376 83.0697 317.376 84.602V101.868H310.2ZM331.66 101.868V71.9325H338.836V101.868H331.66ZM331.548 67.9522V61.5614H339.004V67.9522H331.548ZM358.333 102.541C355.381 102.541 352.895 102.111 350.877 101.252C348.896 100.392 347.364 99.1962 346.28 97.6639C345.196 96.1316 344.58 94.3938 344.43 92.4504L351.774 92.114C352.036 93.6837 352.69 94.8983 353.736 95.7579C354.783 96.6175 356.334 97.0473 358.389 97.0473C360.071 97.0473 361.379 96.7856 362.313 96.2624C363.285 95.7018 363.771 94.8422 363.771 93.6837C363.771 93.011 363.603 92.4504 363.266 92.0019C362.93 91.5534 362.295 91.161 361.36 90.8246C360.426 90.4883 359.043 90.1519 357.212 89.8155C354.147 89.2923 351.737 88.657 349.98 87.9095C348.224 87.1247 346.972 86.153 346.224 84.9944C345.514 83.8358 345.159 82.397 345.159 80.6778C345.159 77.8748 346.224 75.6137 348.354 73.8946C350.522 72.138 353.68 71.2598 357.828 71.2598C360.519 71.2598 362.78 71.7082 364.612 72.6052C366.443 73.4648 367.863 74.6607 368.872 76.193C369.919 77.6879 370.573 79.4071 370.834 81.3505L363.603 81.6869C363.416 80.6778 363.079 79.7995 362.594 79.0521C362.108 78.3046 361.454 77.744 360.631 77.3703C359.809 76.9592 358.838 76.7536 357.716 76.7536C356.035 76.7536 354.764 77.09 353.904 77.7627C353.045 78.4354 352.615 79.3324 352.615 80.4536C352.615 81.2384 352.802 81.8924 353.176 82.4157C353.587 82.9389 354.241 83.3687 355.138 83.705C356.035 84.004 357.231 84.2843 358.725 84.5459C361.865 85.0318 364.331 85.6671 366.125 86.452C367.957 87.1994 369.246 88.1711 369.993 89.3671C370.778 90.5256 371.171 91.9271 371.171 93.5715C371.171 95.4776 370.629 97.1033 369.545 98.4487C368.499 99.7942 367.004 100.822 365.06 101.532C363.154 102.205 360.912 102.541 358.333 102.541ZM389.721 102.541C386.731 102.541 384.134 101.906 381.928 100.635C379.723 99.327 378.023 97.4957 376.827 95.1412C375.631 92.7867 375.033 90.0398 375.033 86.9004C375.033 83.7611 375.631 81.0328 376.827 78.7157C378.023 76.3612 379.705 74.5299 381.872 73.2218C384.077 71.9138 386.638 71.2598 389.553 71.2598C392.393 71.2598 394.878 71.8951 397.009 73.1658C399.176 74.4365 400.839 76.2678 401.998 78.6596C403.156 81.0515 403.736 83.9293 403.736 87.2929V88.9186H382.489C382.639 91.5347 383.349 93.5155 384.619 94.8609C385.927 96.169 387.647 96.823 389.777 96.823C391.384 96.823 392.711 96.468 393.757 95.7579C394.841 95.0104 395.588 93.9827 396 92.6746L403.343 93.1231C402.521 96.0382 400.895 98.3366 398.466 100.018C396.074 101.7 393.159 102.541 389.721 102.541ZM382.489 84.0974H396.336C396.186 81.6682 395.495 79.8743 394.262 78.7157C393.028 77.5198 391.459 76.9218 389.553 76.9218C387.647 76.9218 386.058 77.5384 384.788 78.7718C383.554 80.0051 382.788 81.7803 382.489 84.0974ZM430.316 101.868C428.149 101.868 426.411 101.308 425.103 100.187C423.795 99.0654 423.141 97.2715 423.141 94.8049V62.0659H430.316V94.0761C430.316 94.8235 430.503 95.3841 430.877 95.7579C431.288 96.1316 431.849 96.3185 432.559 96.3185H434.745V101.868H430.316ZM452.295 102.541C449.305 102.541 446.708 101.906 444.503 100.635C442.298 99.327 440.598 97.4957 439.402 95.1412C438.206 92.7867 437.608 90.0398 437.608 86.9004C437.608 83.7611 438.206 81.0328 439.402 78.7157C440.598 76.3612 442.279 74.5299 444.447 73.2218C446.652 71.9138 449.212 71.2598 452.127 71.2598C454.968 71.2598 457.453 71.8951 459.583 73.1658C461.751 74.4365 463.414 76.2678 464.572 78.6596C465.731 81.0515 466.31 83.9293 466.31 87.2929V88.9186H445.064C445.213 91.5347 445.923 93.5155 447.194 94.8609C448.502 96.169 450.221 96.823 452.351 96.823C453.958 96.823 455.285 96.468 456.332 95.7579C457.415 95.0104 458.163 93.9827 458.574 92.6746L465.918 93.1231C465.096 96.0382 463.47 98.3366 461.041 100.018C458.649 101.7 455.734 102.541 452.295 102.541ZM445.064 84.0974H458.91C458.761 81.6682 458.07 79.8743 456.836 78.7157C455.603 77.5198 454.033 76.9218 452.127 76.9218C450.221 76.9218 448.633 77.5384 447.362 78.7718C446.129 80.0051 445.363 81.7803 445.064 84.0974ZM479.064 101.868L468.132 71.9325H475.7L483.324 94.6367L490.949 71.9325H498.517L487.585 101.868H479.064ZM514.979 102.541C511.99 102.541 509.392 101.906 507.187 100.635C504.982 99.327 503.282 97.4957 502.086 95.1412C500.89 92.7867 500.292 90.0398 500.292 86.9004C500.292 83.7611 500.89 81.0328 502.086 78.7157C503.282 76.3612 504.963 74.5299 507.131 73.2218C509.336 71.9138 511.896 71.2598 514.811 71.2598C517.652 71.2598 520.137 71.8951 522.267 73.1658C524.435 74.4365 526.098 76.2678 527.256 78.6596C528.415 81.0515 528.994 83.9293 528.994 87.2929V88.9186H507.748C507.897 91.5347 508.607 93.5155 509.878 94.8609C511.186 96.169 512.905 96.823 515.035 96.823C516.642 96.823 517.969 96.468 519.016 95.7579C520.1 95.0104 520.847 93.9827 521.258 92.6746L528.602 93.1231C527.78 96.0382 526.154 98.3366 523.725 100.018C521.333 101.7 518.418 102.541 514.979 102.541ZM507.748 84.0974H521.594C521.445 81.6682 520.754 79.8743 519.52 78.7157C518.287 77.5198 516.717 76.9218 514.811 76.9218C512.905 76.9218 511.317 77.5384 510.046 78.7718C508.813 80.0051 508.047 81.7803 507.748 84.0974ZM542.053 101.868C539.885 101.868 538.147 101.308 536.839 100.187C535.531 99.0654 534.877 97.2715 534.877 94.8049V62.0659H542.053V94.0761C542.053 94.8235 542.24 95.3841 542.613 95.7579C543.024 96.1316 543.585 96.3185 544.295 96.3185H546.481V101.868H542.053ZM564.768 101.868V71.9325H571.496L571.776 80.2293L571.159 80.1172C571.608 77.2395 572.449 75.1653 573.682 73.8946C574.953 72.5865 576.672 71.9325 578.839 71.9325H581.586V78.099H578.783C577.251 78.099 575.98 78.3233 574.971 78.7718C573.962 79.2202 573.196 79.9303 572.673 80.902C572.187 81.8364 571.944 83.0697 571.944 84.602V101.868H564.768ZM586.229 101.868V71.9325H593.404V101.868H586.229ZM586.117 67.9522V61.5614H593.573V67.9522H586.117ZM613.518 110.95C610.902 110.95 608.66 110.595 606.791 109.885C604.922 109.175 603.409 108.166 602.25 106.858C601.129 105.587 600.344 104.111 599.895 102.429L607.295 101.924C607.669 103.046 608.304 103.924 609.201 104.559C610.136 105.195 611.575 105.512 613.518 105.512C615.723 105.512 617.424 105.008 618.619 103.999C619.815 103.027 620.413 101.495 620.413 99.4018V95.5897C619.703 97.0473 618.563 98.2245 616.994 99.1215C615.424 99.981 613.668 100.411 611.724 100.411C609.257 100.411 607.052 99.8129 605.109 98.6169C603.203 97.3836 601.708 95.6831 600.624 93.5155C599.54 91.3105 598.999 88.7691 598.999 85.8914C598.999 83.0136 599.522 80.4909 600.568 78.3233C601.652 76.1183 603.147 74.3991 605.053 73.1658C606.959 71.8951 609.145 71.2598 611.612 71.2598C613.78 71.2598 615.648 71.7456 617.218 72.7173C618.788 73.689 619.928 74.9784 620.638 76.5854V71.9325H627.645V99.2336C627.645 101.775 627.047 103.924 625.851 105.68C624.693 107.437 623.048 108.745 620.918 109.605C618.825 110.502 616.358 110.95 613.518 110.95ZM613.406 94.8049C615.536 94.8049 617.237 94.02 618.507 92.4504C619.778 90.8433 620.432 88.6383 620.469 85.8353C620.507 83.9666 620.227 82.3783 619.629 81.0702C619.068 79.7248 618.246 78.697 617.162 77.9869C616.115 77.2395 614.863 76.8657 613.406 76.8657C611.201 76.8657 609.482 77.6879 608.248 79.3324C607.052 80.9394 606.454 83.1071 606.454 85.8353C606.454 88.5635 607.071 90.7499 608.304 92.3943C609.575 94.0013 611.276 94.8049 613.406 94.8049ZM647.958 102.541C645.006 102.541 642.409 101.906 640.166 100.635C637.961 99.327 636.242 97.4957 635.009 95.1412C633.813 92.7867 633.215 90.0398 633.215 86.9004C633.215 83.7237 633.813 80.9768 635.009 78.6596C636.242 76.3051 637.961 74.4925 640.166 73.2218C642.409 71.9138 645.006 71.2598 647.958 71.2598C650.911 71.2598 653.49 71.9138 655.695 73.2218C657.9 74.4925 659.6 76.3051 660.796 78.6596C662.029 80.9768 662.646 83.7237 662.646 86.9004C662.646 90.0398 662.029 92.7867 660.796 95.1412C659.6 97.4957 657.9 99.327 655.695 100.635C653.49 101.906 650.911 102.541 647.958 102.541ZM647.958 96.7109C650.276 96.7109 652.051 95.8513 653.284 94.1321C654.555 92.413 655.19 90.0024 655.19 86.9004C655.19 83.8358 654.555 81.4439 653.284 79.7248C652.051 77.9682 650.276 77.09 647.958 77.09C645.641 77.09 643.847 77.9682 642.577 79.7248C641.306 81.4439 640.671 83.8358 640.671 86.9004C640.671 90.0024 641.306 92.413 642.577 94.1321C643.847 95.8513 645.641 96.7109 647.958 96.7109ZM668.183 101.868V71.9325H674.91L675.191 80.2293L674.574 80.1172C675.023 77.2395 675.864 75.1653 677.097 73.8946C678.368 72.5865 680.087 71.9325 682.254 71.9325H685.001V78.099H682.198C680.666 78.099 679.395 78.3233 678.386 78.7718C677.377 79.2202 676.611 79.9303 676.088 80.902C675.602 81.8364 675.359 83.0697 675.359 84.602V101.868H668.183Z" fill="white"/>
<defs>
<radialGradient id="paint0_radial_176_338" cx="0" cy="0" r="1" gradientTransform="matrix(307.862 -14.8875 396.87 63.2761 289.487 26.7004)" gradientUnits="userSpaceOnUse">
<stop stop-color="#43D7FF"/>
<stop offset="0.96" stop-color="#5C58CE"/>
</radialGradient>
</defs>
</svg>
