<svg width="32" height="32" viewBox="0 0 32 32" fill="none" xmlns="http://www.w3.org/2000/svg">
<g clip-path="url(#clip0_176_1365)">
<g filter="url(#filter0_d_176_1365)">
<path fill-rule="evenodd" clip-rule="evenodd" d="M5.84104 4.10047C5.34332 3.89552 4.77118 4.00995 4.39056 4.39056C4.00995 4.77118 3.89552 5.34332 4.10047 5.84104L13.4339 28.5076C13.6383 29.004 14.1204 29.3295 14.6572 29.3334C15.194 29.3371 15.6808 29.0187 15.8923 28.5252L19.472 20.1723C19.6069 19.8576 19.8577 19.607 20.1724 19.472L28.5252 15.8922C29.0187 15.6807 29.3372 15.194 29.3333 14.6572C29.3295 14.1203 29.0041 13.6382 28.5077 13.4338L5.84104 4.10047Z" fill="white"/>
<path d="M4.03711 4.03711C4.56038 3.51384 5.34695 3.35606 6.03125 3.6377L28.6982 12.9717C29.3806 13.2528 29.8276 13.9154 29.833 14.6533C29.8383 15.3915 29.4001 16.0608 28.7217 16.3516L20.3691 19.9316C20.1725 20.016 20.0159 20.1727 19.9316 20.3691L16.3516 28.7227C16.0607 29.401 15.3911 29.8381 14.6533 29.833C13.9154 29.8276 13.2527 29.3805 12.9717 28.6982L3.6377 6.03125C3.35606 5.34695 3.51384 4.56038 4.03711 4.03711Z" stroke="black"/>
</g>
</g>
<defs>
<filter id="filter0_d_176_1365" x="-30.8788" y="-20.4545" width="95.0896" height="95.0911" filterUnits="userSpaceOnUse" color-interpolation-filters="sRGB">
<feFlood flood-opacity="0" result="BackgroundImageFix"/>
<feColorMatrix in="SourceAlpha" type="matrix" values="0 0 0 0 0 0 0 0 0 0 0 0 0 0 0 0 0 0 127 0" result="hardAlpha"/>
<feMorphology radius="2.60606" operator="dilate" in="SourceAlpha" result="effect1_dropShadow_176_1365"/>
<feOffset dy="10.4242"/>
<feGaussianBlur stdDeviation="15.6364"/>
<feComposite in2="hardAlpha" operator="out"/>
<feColorMatrix type="matrix" values="0 0 0 0 0 0 0 0 0 0 0 0 0 0 0 0 0 0 0.2 0"/>
<feBlend mode="normal" in2="BackgroundImageFix" result="effect1_dropShadow_176_1365"/>
<feBlend mode="normal" in="SourceGraphic" in2="effect1_dropShadow_176_1365" result="shape"/>
</filter>
<clipPath id="clip0_176_1365">
<rect width="32" height="32" fill="white"/>
</clipPath>
</defs>
</svg>
