<svg width="224" height="32" viewBox="0 0 224 32" fill="none" xmlns="http://www.w3.org/2000/svg">
<rect width="32" height="32" rx="8" fill="white" fill-opacity="0.08"/>
<rect x="0.5" y="0.5" width="31" height="31" rx="7.5" stroke="white" stroke-opacity="0.16"/>
<g clip-path="url(#clip0_176_66)">
<path d="M21.5452 10.9072C20.5078 10.4308 19.413 10.091 18.2882 9.8962C18.278 9.89449 18.2675 9.89597 18.2582 9.90045C18.2489 9.90492 18.2412 9.91217 18.2362 9.9212C18.0952 10.1712 17.9392 10.4982 17.8302 10.7542C16.6178 10.5704 15.3846 10.5704 14.1722 10.7542C14.0511 10.4688 13.9135 10.1907 13.7602 9.9212C13.7551 9.91217 13.7475 9.90492 13.7381 9.90045C13.7288 9.89597 13.7184 9.89449 13.7082 9.8962C12.5832 10.0902 11.4882 10.4302 10.4512 10.9072C10.4423 10.9105 10.4348 10.9169 10.4302 10.9252C8.35617 14.0242 7.78717 17.0472 8.06617 20.0322C8.06817 20.0469 8.07517 20.0592 8.08717 20.0692C9.29514 20.9634 10.6459 21.6464 12.0822 22.0892C12.0923 22.0924 12.1032 22.0923 12.1133 22.0889C12.1233 22.0855 12.1321 22.0789 12.1382 22.0702C12.4468 21.6502 12.7195 21.2072 12.9562 20.7412C12.9611 20.7316 12.9628 20.7207 12.961 20.71C12.9592 20.6994 12.954 20.6896 12.9462 20.6822L12.9282 20.6712C12.4975 20.5052 12.0803 20.3062 11.6802 20.0762C11.669 20.0699 11.6607 20.0595 11.657 20.0472C11.6532 20.0349 11.6544 20.0217 11.6602 20.0102L11.6752 19.9912C11.7598 19.9279 11.8425 19.8629 11.9232 19.7962C11.9302 19.7905 11.9387 19.7869 11.9477 19.7856C11.9567 19.7844 11.9658 19.7856 11.9742 19.7892C14.5932 20.9852 17.4282 20.9852 20.0152 19.7892C20.0238 19.7852 20.0333 19.7838 20.0427 19.785C20.0521 19.7863 20.0609 19.7901 20.0682 19.7962C20.1488 19.8629 20.2315 19.9279 20.3162 19.9912C20.3232 19.996 20.3289 20.0026 20.3327 20.0102C20.3365 20.0178 20.3383 20.0263 20.3379 20.0348C20.3375 20.0433 20.3349 20.0516 20.3304 20.0589C20.3259 20.0661 20.3196 20.0721 20.3122 20.0762C19.9138 20.3099 19.4959 20.5086 19.0632 20.6702C19.0563 20.6727 19.05 20.6767 19.0448 20.6819C19.0396 20.687 19.0357 20.6933 19.0332 20.7002C19.0307 20.7069 19.0297 20.714 19.0303 20.721C19.0308 20.7281 19.0328 20.735 19.0362 20.7412C19.2762 21.2062 19.5512 21.6502 19.8532 22.0702C19.8593 22.0789 19.868 22.0855 19.8781 22.0889C19.8881 22.0923 19.899 22.0924 19.9092 22.0892C21.3482 21.6489 22.7014 20.9657 23.9102 20.0692C23.9162 20.065 23.9212 20.0594 23.9248 20.053C23.9284 20.0467 23.9306 20.0395 23.9312 20.0322C24.2652 16.5812 23.3722 13.5832 21.5652 10.9262C21.5636 10.9217 21.561 10.9176 21.5575 10.9143C21.554 10.911 21.5498 10.9085 21.5452 10.9072ZM13.3472 18.2142C12.5582 18.2142 11.9092 17.4902 11.9092 16.6022C11.9092 15.7142 12.5462 14.9892 13.3472 14.9892C14.1542 14.9892 14.7972 15.7192 14.7852 16.6022C14.7852 17.4902 14.1482 18.2142 13.3472 18.2142ZM18.6632 18.2142C17.8752 18.2142 17.2252 17.4902 17.2252 16.6022C17.2252 15.7142 17.8622 14.9892 18.6632 14.9892C19.4702 14.9892 20.1142 15.7192 20.1012 16.6022C20.1012 17.4902 19.4702 18.2142 18.6632 18.2142Z" fill="white"/>
</g>
<rect x="48" width="32" height="32" rx="8" fill="white" fill-opacity="0.08"/>
<rect x="48.5" y="0.5" width="31" height="31" rx="7.5" stroke="white" stroke-opacity="0.16"/>
<g clip-path="url(#clip1_176_66)">
<path d="M62.1659 16C62.0569 16 61.949 16.0215 61.8483 16.0632C61.7476 16.1049 61.6561 16.166 61.579 16.2431C61.502 16.3202 61.4408 16.4117 61.3991 16.5124C61.3574 16.6131 61.3359 16.721 61.3359 16.83C61.3359 17.289 61.7079 17.67 62.1659 17.661C62.3812 17.6535 62.5852 17.5628 62.7348 17.4078C62.8845 17.2529 62.9681 17.0459 62.9681 16.8305C62.9681 16.6151 62.8845 16.4081 62.7348 16.2532C62.5852 16.0982 62.3812 16.0075 62.1659 16ZM64.0089 19.647C64.3239 19.647 65.4119 19.609 65.9849 19.036C66.0225 18.9939 66.0432 18.9394 66.0432 18.883C66.0432 18.8266 66.0225 18.7721 65.9849 18.73C65.9651 18.7095 65.9413 18.6932 65.915 18.6821C65.8887 18.6709 65.8605 18.6652 65.8319 18.6652C65.8034 18.6652 65.7751 18.6709 65.7489 18.6821C65.7226 18.6932 65.6988 18.7095 65.6789 18.73C65.3259 19.093 64.5529 19.217 64.0089 19.217C63.4639 19.217 62.7009 19.093 62.3379 18.73C62.3181 18.7095 62.2943 18.6932 62.268 18.6821C62.2417 18.6709 62.2135 18.6652 62.1849 18.6652C62.1564 18.6652 62.1281 18.6709 62.1019 18.6821C62.0756 18.6932 62.0518 18.7095 62.0319 18.73C62.0114 18.7499 61.9951 18.7736 61.984 18.7999C61.9729 18.8262 61.9671 18.8545 61.9671 18.883C61.9671 18.9115 61.9729 18.9398 61.984 18.9661C61.9951 18.9924 62.0114 19.0161 62.0319 19.036C62.5959 19.599 63.6839 19.646 64.0089 19.646V19.647ZM65.0009 16.84C65.0009 17.298 65.3739 17.67 65.8319 17.67C66.2899 17.67 66.6619 17.289 66.6619 16.84C66.6515 16.6269 66.5595 16.426 66.405 16.2789C66.2504 16.1318 66.0453 16.0498 65.8319 16.0498C65.6186 16.0498 65.4134 16.1318 65.2589 16.2789C65.1044 16.426 65.0124 16.6269 65.0019 16.84H65.0009Z" fill="white"/>
<path d="M72 16C72 18.1217 71.1571 20.1566 69.6569 21.6569C68.1566 23.1571 66.1217 24 64 24C61.8783 24 59.8434 23.1571 58.3431 21.6569C56.8429 20.1566 56 18.1217 56 16C56 13.8783 56.8429 11.8434 58.3431 10.3431C59.8434 8.84285 61.8783 8 64 8C66.1217 8 68.1566 8.84285 69.6569 10.3431C71.1571 11.8434 72 13.8783 72 16ZM68.172 14.835C67.857 14.835 67.57 14.959 67.36 15.16C66.559 14.587 65.46 14.215 64.239 14.167L64.773 11.666L66.511 12.038C66.5186 12.2003 66.5737 12.3568 66.6694 12.488C66.7652 12.6193 66.8973 12.7196 67.0495 12.7765C67.2016 12.8333 67.3672 12.8443 67.5255 12.808C67.6839 12.7717 67.8281 12.6898 67.9403 12.5723C68.0525 12.4548 68.1278 12.307 68.1568 12.1471C68.1858 11.9873 68.1672 11.8224 68.1034 11.673C68.0396 11.5236 67.9333 11.3962 67.7978 11.3066C67.6623 11.217 67.5035 11.1692 67.341 11.169C67.1856 11.1695 67.0335 11.2137 66.902 11.2964C66.7704 11.3792 66.6648 11.4972 66.597 11.637L64.659 11.227C64.6329 11.2212 64.6059 11.2207 64.5797 11.2255C64.5534 11.2303 64.5283 11.2404 64.506 11.255C64.4833 11.2703 64.4639 11.29 64.4491 11.3131C64.4343 11.3361 64.4244 11.362 64.42 11.389L63.828 14.177C62.588 14.215 61.47 14.587 60.658 15.169C60.448 14.969 60.162 14.845 59.848 14.845C59.5817 14.8446 59.3233 14.9356 59.1161 15.1028C58.9088 15.27 58.7652 15.5033 58.7092 15.7636C58.6533 16.024 58.6884 16.2956 58.8086 16.5332C58.9289 16.7708 59.1271 16.9599 59.37 17.069C59.35 17.1823 59.3403 17.3 59.341 17.422C59.341 19.217 61.432 20.678 64.01 20.678C66.588 20.678 68.678 19.227 68.678 17.422C68.678 17.308 68.668 17.184 68.649 17.069C69.05 16.888 69.337 16.477 69.337 16C69.337 15.35 68.812 14.835 68.172 14.835Z" fill="white"/>
</g>
<rect x="96" width="32" height="32" rx="8" fill="white" fill-opacity="0.08"/>
<rect x="96.5" y="0.5" width="31" height="31" rx="7.5" stroke="white" stroke-opacity="0.16"/>
<path d="M119.665 12.1238C119.481 11.4311 118.939 10.8851 118.251 10.6998C117.003 10.3638 112 10.3638 112 10.3638C112 10.3638 106.997 10.3638 105.749 10.6998C105.061 10.8851 104.519 11.4304 104.335 12.1238C104 13.3798 104 15.9998 104 15.9998C104 15.9998 104 18.6198 104.335 19.8758C104.519 20.5684 105.061 21.1144 105.749 21.2998C106.997 21.6358 112 21.6358 112 21.6358C112 21.6358 117.003 21.6358 118.251 21.2998C118.939 21.1144 119.481 20.5691 119.666 19.8758C120 18.6198 120 15.9998 120 15.9998C120 15.9998 120 13.3798 119.665 12.1238ZM110.364 18.3791V13.6204L114.545 15.9998L110.364 18.3791Z" fill="white"/>
<rect x="144" width="32" height="32" rx="8" fill="white" fill-opacity="0.08"/>
<rect x="144.5" y="0.5" width="31" height="31" rx="7.5" stroke="white" stroke-opacity="0.16"/>
<g clip-path="url(#clip2_176_66)">
<path d="M164.6 8.75H167.054L161.694 14.892L168 23.25H163.063L159.196 18.18L154.771 23.25H152.316L158.049 16.68L152 8.75H157.063L160.558 13.383L164.6 8.75ZM163.74 21.778H165.1L156.323 10.145H154.865L163.74 21.778Z" fill="white"/>
</g>
<rect x="192" width="32" height="32" rx="8" fill="white" fill-opacity="0.08"/>
<rect x="192.5" y="0.5" width="31" height="31" rx="7.5" stroke="white" stroke-opacity="0.16"/>
<g clip-path="url(#clip3_176_66)">
<path d="M208 8C203.58 8 200 11.58 200 16C200 19.54 202.29 22.53 205.47 23.59C205.87 23.66 206.02 23.42 206.02 23.21C206.02 23.02 206.01 22.39 206.01 21.72C204 22.09 203.48 21.23 203.32 20.78C203.23 20.55 202.84 19.84 202.5 19.65C202.22 19.5 201.82 19.13 202.49 19.12C203.12 19.11 203.57 19.7 203.72 19.94C204.44 21.15 205.59 20.81 206.05 20.6C206.12 20.08 206.33 19.73 206.56 19.53C204.78 19.33 202.92 18.64 202.92 15.58C202.92 14.71 203.23 13.99 203.74 13.43C203.66 13.23 203.38 12.41 203.82 11.31C203.82 11.31 204.49 11.1 206.02 12.13C206.66 11.95 207.34 11.86 208.02 11.86C208.7 11.86 209.38 11.95 210.02 12.13C211.55 11.09 212.22 11.31 212.22 11.31C212.66 12.41 212.38 13.23 212.3 13.43C212.81 13.99 213.12 14.7 213.12 15.58C213.12 18.65 211.25 19.33 209.47 19.53C209.76 19.78 210.01 20.26 210.01 21.01C210.01 22.08 210 22.94 210 23.21C210 23.42 210.15 23.67 210.55 23.59C212.138 23.0543 213.519 22.0337 214.496 20.672C215.474 19.3104 216 17.6763 216 16C216 11.58 212.42 8 208 8Z" fill="white"/>
</g>
<defs>
<clipPath id="clip0_176_66">
<rect width="16" height="16" fill="white" transform="translate(8 8)"/>
</clipPath>
<clipPath id="clip1_176_66">
<rect width="16" height="16" fill="white" transform="translate(56 8)"/>
</clipPath>
<clipPath id="clip2_176_66">
<rect width="16" height="16" fill="white" transform="translate(152 8)"/>
</clipPath>
<clipPath id="clip3_176_66">
<rect width="16" height="16" fill="white" transform="translate(200 8)"/>
</clipPath>
</defs>
</svg>
