<svg width="12" height="12" viewBox="0 0 12 12" fill="none" xmlns="http://www.w3.org/2000/svg">
<g clip-path="url(#clip0_176_1119)">
<path d="M5.30818 8.8978L5.74698 7.8927C6.13753 6.9983 6.84043 6.2863 7.71723 5.8971L8.92508 5.36095C9.30908 5.1905 9.30908 4.63184 8.92508 4.46139L7.75493 3.94197C6.85558 3.54276 6.14008 2.80441 5.75623 1.87947L5.31173 0.808365C5.14678 0.410883 4.59757 0.410884 4.43263 0.808365L3.98811 1.87946C3.60426 2.80441 2.88874 3.54276 1.9894 3.94197L0.819266 4.46139C0.435245 4.63184 0.435244 5.1905 0.819266 5.36095L2.02713 5.8971C2.90392 6.2863 3.60683 6.9983 3.99735 7.8927L4.43618 8.8978C4.60486 9.2841 5.13948 9.2841 5.30818 8.8978ZM9.70168 11.3449L9.82508 11.0621C10.0451 10.5578 10.4413 10.1562 10.9357 9.9366L11.3159 9.76765C11.5216 9.6763 11.5216 9.37745 11.3159 9.2861L10.957 9.1266C10.4499 8.9013 10.0465 8.4849 9.83028 7.96345L9.70358 7.6578C9.61523 7.4448 9.32073 7.4448 9.23238 7.6578L9.10568 7.96345C8.88948 8.4849 8.48613 8.9013 7.97898 9.1266L7.62003 9.2861C7.41443 9.37745 7.41443 9.6763 7.62003 9.76765L8.00023 9.9366C8.49468 10.1562 8.89088 10.5578 9.11088 11.0621L9.23433 11.3449C9.32463 11.552 9.61133 11.552 9.70168 11.3449Z" fill="#090909"/>
</g>
<defs>
<clipPath id="clip0_176_1119">
<rect width="12" height="12" fill="white"/>
</clipPath>
</defs>
</svg>
