<svg width="22" height="22" viewBox="0 0 22 22" fill="none" xmlns="http://www.w3.org/2000/svg">
<path d="M12.8351 4.06744C14.0691 4.06744 15.0694 3.06708 15.0694 1.83308H16.1007C16.1007 3.06708 17.101 4.06744 18.335 4.06744V5.09869C17.101 5.09869 16.1007 6.09905 16.1007 7.33305H15.0694C15.0694 6.09905 14.0691 5.09869 12.8351 5.09869V4.06744ZM0.918453 10.083C3.956 10.083 6.41843 7.62062 6.41843 4.58306H8.25175C8.25175 7.62062 10.7142 10.083 13.7517 10.083V11.9164C10.7142 11.9164 8.25175 14.3788 8.25175 17.4163H6.41843C6.41843 14.3788 3.956 11.9164 0.918453 11.9164V10.083ZM15.8142 12.833C15.8142 14.4783 14.4804 15.8122 12.8351 15.8122V17.1872C14.4804 17.1872 15.8142 18.521 15.8142 20.1663H17.1892C17.1892 18.521 18.523 17.1872 20.1684 17.1872V15.8122C18.523 15.8122 17.1892 14.4783 17.1892 12.833H15.8142Z" fill="white" fill-opacity="0.72"/>
</svg>
