<svg width="137" height="137" viewBox="0 0 137 137" fill="none" xmlns="http://www.w3.org/2000/svg">
<g filter="url(#filter0_d_176_1331)">
<g clip-path="url(#clip0_176_1331)">
<rect x="22.489" y="15.5703" width="92.0189" height="92.0189" rx="12" fill="url(#paint0_linear_176_1331)" fill-opacity="0.04" shape-rendering="crispEdges"/>
<g style="mix-blend-mode:plus-lighter" filter="url(#filter1_f_176_1331)">
<circle cx="60.4968" cy="28.0729" r="12.5026" fill="#A4F4FF"/>
</g>
<g clip-path="url(#clip1_176_1331)">
<rect x="28.4902" y="21.5716" width="80.0165" height="80.0165" rx="8" fill="#0A0A0A"/>
<g style="mix-blend-mode:plus-lighter" opacity="0.64" filter="url(#filter2_diiif_176_1331)">
<circle cx="40.4927" cy="82.5841" r="19.0039" fill="url(#paint1_linear_176_1331)"/>
</g>
<path d="M82.5415 50.1714C82.4996 49.4861 82.2084 48.8398 81.7229 48.3542C81.2373 47.8687 80.591 47.5775 79.9057 47.5356C78.0589 47.4273 73.3442 47.5946 69.4298 51.5076L68.9192 52.0154H60.9525C60.583 52.0142 60.2168 52.0864 59.8754 52.2279C59.534 52.3694 59.2241 52.5773 58.9637 52.8396L54.1322 57.6683C53.7624 58.038 53.5029 58.5035 53.3829 59.0125C53.2629 59.5215 53.2872 60.0538 53.453 60.5498C53.6188 61.0458 53.9196 61.4857 54.3216 61.8202C54.7235 62.1547 55.2108 62.3706 55.7287 62.4435L60.9525 63.1721L66.905 69.1245L67.635 74.3541C67.7061 74.8727 67.9214 75.361 68.2563 75.7633C68.5913 76.1657 69.0324 76.4659 69.5296 76.6298C69.8188 76.7246 70.1213 76.7721 70.4256 76.7705C70.7942 76.7703 71.1592 76.6972 71.4996 76.5555C71.8399 76.4138 72.1489 76.2063 72.4088 75.9449L77.2389 71.1134C77.5008 70.8528 77.7084 70.5428 77.8496 70.2014C77.9909 69.86 78.063 69.494 78.0617 69.1245V61.1579L78.5681 60.653C82.4825 56.7329 82.6498 52.0154 82.5415 50.1714ZM61.1832 55.3911H65.5435L61.1481 59.7907L57.3181 59.2563L61.1832 55.3911ZM71.8167 53.8959C72.7798 52.9249 73.9289 52.1581 75.1954 51.6417C76.4618 51.1252 77.8194 50.8696 79.1869 50.8902C79.2083 52.2581 78.953 53.6163 78.4362 54.8831C77.9194 56.1499 77.1519 57.2992 76.1797 58.2618L68.4972 65.9401L64.137 61.5799L71.8167 53.8959ZM74.686 68.8939L70.8194 72.7604L70.2849 68.9304L74.686 64.5336V68.8939ZM64.5589 71.9883C63.3338 73.655 60.8752 75.6453 56.1197 75.6453C55.672 75.6453 55.2427 75.4674 54.9262 75.1509C54.6097 74.8344 54.4318 74.4051 54.4318 73.9574C54.4318 69.1977 56.4179 66.7391 58.0888 65.5182C58.2656 65.3696 58.471 65.259 58.6923 65.193C58.9136 65.127 59.146 65.1071 59.3753 65.1346C59.6045 65.1621 59.8257 65.2363 60.0252 65.3526C60.2246 65.469 60.398 65.625 60.5347 65.8111C60.6715 65.9972 60.7685 66.2093 60.82 66.4344C60.8714 66.6595 60.8761 66.8928 60.8338 67.1198C60.7915 67.3468 60.7031 67.5627 60.574 67.7541C60.4449 67.9456 60.2779 68.1085 60.0833 68.2328C59.2563 68.8418 58.3012 69.991 57.9482 72.1289C60.0875 71.7759 61.2353 70.8208 61.8443 69.9938C61.9686 69.7992 62.1315 69.6322 62.323 69.5031C62.5144 69.374 62.7303 69.2856 62.9573 69.2433C63.1843 69.201 63.4176 69.2057 63.6426 69.2571C63.8677 69.3086 64.0799 69.4056 64.266 69.5423C64.452 69.6791 64.6081 69.8525 64.7245 70.0519C64.8408 70.2514 64.915 70.4726 64.9425 70.7018C64.9699 70.9311 64.9501 71.1635 64.8841 71.3848C64.8181 71.6061 64.7074 71.8115 64.5589 71.9883Z" fill="url(#paint2_linear_176_1331)" fill-opacity="0.5"/>
</g>
</g>
<rect x="22.989" y="16.0703" width="91.0189" height="91.0189" rx="11.5" stroke="white" stroke-opacity="0.12" shape-rendering="crispEdges"/>
</g>
<defs>
<filter id="filter0_d_176_1331" x="-0.00154873" y="-3.92279e-05" width="137" height="137" filterUnits="userSpaceOnUse" color-interpolation-filters="sRGB">
<feFlood flood-opacity="0" result="BackgroundImageFix"/>
<feColorMatrix in="SourceAlpha" type="matrix" values="0 0 0 0 0 0 0 0 0 0 0 0 0 0 0 0 0 0 127 0" result="hardAlpha"/>
<feMorphology radius="1.72969" operator="dilate" in="SourceAlpha" result="effect1_dropShadow_176_1331"/>
<feOffset dy="6.91875"/>
<feGaussianBlur stdDeviation="10.3781"/>
<feComposite in2="hardAlpha" operator="out"/>
<feColorMatrix type="matrix" values="0 0 0 0 0.183916 0 0 0 0 0.406288 0 0 0 0 0.790385 0 0 0 0.2 0"/>
<feBlend mode="normal" in2="BackgroundImageFix" result="effect1_dropShadow_176_1331"/>
<feBlend mode="normal" in="BackgroundImageFix" in2="effect1_dropShadow_176_1331" result="BackgroundImageFix"/>
<feBlend mode="normal" in="SourceGraphic" in2="BackgroundImageFix" result="shape"/>
</filter>
<filter id="filter1_f_176_1331" x="7.98602" y="-24.4379" width="105.022" height="105.022" filterUnits="userSpaceOnUse" color-interpolation-filters="sRGB">
<feFlood flood-opacity="0" result="BackgroundImageFix"/>
<feBlend mode="normal" in="SourceGraphic" in2="BackgroundImageFix" result="shape"/>
<feGaussianBlur stdDeviation="20" result="effect1_foregroundBlur_176_1331"/>
</filter>
<filter id="filter2_diiif_176_1331" x="-18.5194" y="23.572" width="118.024" height="118.024" filterUnits="userSpaceOnUse" color-interpolation-filters="sRGB">
<feFlood flood-opacity="0" result="BackgroundImageFix"/>
<feColorMatrix in="SourceAlpha" type="matrix" values="0 0 0 0 0 0 0 0 0 0 0 0 0 0 0 0 0 0 127 0" result="hardAlpha"/>
<feOffset dy="4"/>
<feGaussianBlur stdDeviation="2"/>
<feComposite in2="hardAlpha" operator="out"/>
<feColorMatrix type="matrix" values="0 0 0 0 0 0 0 0 0 0 0 0 0 0 0 0 0 0 0.25 0"/>
<feBlend mode="normal" in2="BackgroundImageFix" result="effect1_dropShadow_176_1331"/>
<feBlend mode="normal" in="SourceGraphic" in2="effect1_dropShadow_176_1331" result="shape"/>
<feColorMatrix in="SourceAlpha" type="matrix" values="0 0 0 0 0 0 0 0 0 0 0 0 0 0 0 0 0 0 127 0" result="hardAlpha"/>
<feOffset dy="-68"/>
<feGaussianBlur stdDeviation="2"/>
<feComposite in2="hardAlpha" operator="arithmetic" k2="-1" k3="1"/>
<feColorMatrix type="matrix" values="0 0 0 0 0.854902 0 0 0 0 0.733333 0 0 0 0 0.960784 0 0 0 0.5 0"/>
<feBlend mode="normal" in2="shape" result="effect2_innerShadow_176_1331"/>
<feColorMatrix in="SourceAlpha" type="matrix" values="0 0 0 0 0 0 0 0 0 0 0 0 0 0 0 0 0 0 127 0" result="hardAlpha"/>
<feOffset dy="-28"/>
<feGaussianBlur stdDeviation="2"/>
<feComposite in2="hardAlpha" operator="arithmetic" k2="-1" k3="1"/>
<feColorMatrix type="matrix" values="0 0 0 0 0.420907 0 0 0 0 0.27182 0 0 0 0 0.868167 0 0 0 1 0"/>
<feBlend mode="normal" in2="effect2_innerShadow_176_1331" result="effect3_innerShadow_176_1331"/>
<feColorMatrix in="SourceAlpha" type="matrix" values="0 0 0 0 0 0 0 0 0 0 0 0 0 0 0 0 0 0 127 0" result="hardAlpha"/>
<feOffset dy="-16"/>
<feGaussianBlur stdDeviation="2"/>
<feComposite in2="hardAlpha" operator="arithmetic" k2="-1" k3="1"/>
<feColorMatrix type="matrix" values="0 0 0 0 0.154211 0 0 0 0 0.026359 0 0 0 0 0.616445 0 0 0 1 0"/>
<feBlend mode="normal" in2="effect3_innerShadow_176_1331" result="effect4_innerShadow_176_1331"/>
<feGaussianBlur stdDeviation="20" result="effect5_foregroundBlur_176_1331"/>
</filter>
<linearGradient id="paint0_linear_176_1331" x1="22.489" y1="10.0088" x2="113.586" y2="109.126" gradientUnits="userSpaceOnUse">
<stop stop-color="#5EC7ED"/>
<stop offset="1" stop-color="#4537BE"/>
</linearGradient>
<linearGradient id="paint1_linear_176_1331" x1="40.4971" y1="99.0222" x2="40.6245" y2="64.31" gradientUnits="userSpaceOnUse">
<stop stop-color="#8B68FF"/>
<stop offset="0.5" stop-color="#FFD725"/>
<stop offset="1" stop-color="#98B0FF"/>
</linearGradient>
<linearGradient id="paint2_linear_176_1331" x1="67.9353" y1="40.8652" x2="67.9353" y2="82.533" gradientUnits="userSpaceOnUse">
<stop stop-color="white"/>
<stop offset="1" stop-color="white" stop-opacity="0.4"/>
</linearGradient>
<clipPath id="clip0_176_1331">
<rect x="22.489" y="15.5703" width="92.0189" height="92.0189" rx="12" fill="white"/>
</clipPath>
<clipPath id="clip1_176_1331">
<rect x="28.4902" y="21.5716" width="80.0165" height="80.0165" rx="8" fill="white"/>
</clipPath>
</defs>
</svg>
