<svg width="32" height="32" viewBox="0 0 32 32" fill="none" xmlns="http://www.w3.org/2000/svg">
<rect x="0.5" y="0.5" width="31" height="31" rx="7.5" stroke="white" stroke-opacity="0.16"/>
<path d="M10.6654 15.9999C10.6654 13.0544 13.0532 10.6666 15.9987 10.6666C18.9442 10.6666 21.332 13.0544 21.332 15.9999C21.332 18.9455 18.9442 21.3333 15.9987 21.3333C13.0532 21.3333 10.6654 18.9455 10.6654 15.9999ZM15.9987 9.33325C12.3168 9.33325 9.33203 12.318 9.33203 15.9999C9.33203 19.6818 12.3168 22.6666 15.9987 22.6666C19.6806 22.6666 22.6654 19.6818 22.6654 15.9999C22.6654 12.318 19.6806 9.33325 15.9987 9.33325ZM15.9987 13.6666C16.551 13.6666 16.9987 13.2189 16.9987 12.6666C16.9987 12.1143 16.551 11.6666 15.9987 11.6666C15.4464 11.6666 14.9987 12.1143 14.9987 12.6666C14.9987 13.2189 15.4464 13.6666 15.9987 13.6666ZM15.9987 14.3332C14.9605 14.3332 13.8797 14.0953 12.9127 13.7141L12.418 14.9523C13.1352 15.2385 13.9036 15.4311 14.6653 15.5533C14.6653 16.1335 14.722 16.7292 14.4541 17.2649L13.4023 19.3685L14.5949 19.9647L15.6301 17.8943C15.6999 17.7547 15.8426 17.6666 15.9986 17.6666C16.1547 17.6666 16.2974 17.7548 16.3672 17.8943L17.4024 19.9647L18.5949 19.3685L17.5431 17.2649C17.2753 16.7292 17.332 16.1335 17.332 15.5533C18.0926 15.4313 18.8532 15.2355 19.5714 14.9554C19.5882 14.9488 19.0848 13.714 19.083 13.7148C18.1139 14.0926 17.0384 14.3332 15.9987 14.3332Z" fill="white"/>
</svg>
