<svg width="398" height="83" viewBox="0 0 398 83" fill="none" xmlns="http://www.w3.org/2000/svg">
<path d="M0.440095 28.6063V0.200139H18.8841V4.161H2.48054L4.76103 1.80049V14.8433L2.48054 12.8029H18.1639V16.6437H2.48054L4.76103 14.6032V28.6063H0.440095ZM22.6611 28.6063V7.32168H26.542L26.702 12.9629L26.3419 12.8429C26.6353 10.9225 27.2221 9.52215 28.1023 8.64196C29.0092 7.76177 30.2228 7.32168 31.7431 7.32168H33.7835V11.1225H31.7431C30.6762 11.1225 29.7827 11.2959 29.0625 11.6426C28.3424 11.9894 27.7956 12.5228 27.4222 13.243C27.0754 13.9631 26.9021 14.8966 26.9021 16.0436V28.6063H22.6611ZM45.5667 29.0864C43.5396 29.0864 41.7659 28.6329 40.2456 27.7261C38.7252 26.8192 37.5517 25.5256 36.7248 23.8452C35.898 22.1649 35.4845 20.2045 35.4845 17.964C35.4845 15.6968 35.898 13.7364 36.7248 12.0827C37.5517 10.429 38.7252 9.14874 40.2456 8.24188C41.7659 7.30834 43.5396 6.84157 45.5667 6.84157C47.5938 6.84157 49.3675 7.30834 50.8879 8.24188C52.4082 9.14874 53.5818 10.429 54.4086 12.0827C55.2355 13.7364 55.6489 15.6968 55.6489 17.964C55.6489 20.2045 55.2355 22.1649 54.4086 23.8452C53.5818 25.5256 52.4082 26.8192 50.8879 27.7261C49.3675 28.6329 47.5938 29.0864 45.5667 29.0864ZM45.5667 25.4056C47.3804 25.4056 48.7807 24.7521 49.7676 23.4452C50.7545 22.1115 51.2479 20.2845 51.2479 17.964C51.2479 15.6435 50.7545 13.8297 49.7676 12.5228C48.7807 11.1892 47.3804 10.5224 45.5667 10.5224C43.7797 10.5224 42.3794 11.1892 41.3658 12.5228C40.3789 13.8297 39.8855 15.6435 39.8855 17.964C39.8855 20.2845 40.3789 22.1115 41.3658 23.4452C42.3794 24.7521 43.7797 25.4056 45.5667 25.4056ZM59.9348 28.6063V7.32168H63.8157L63.9357 12.6028L63.4556 12.4428C63.6956 11.2692 64.1091 10.269 64.6958 9.44214C65.3093 8.61529 66.0561 7.97515 66.9363 7.52172C67.8165 7.06829 68.7767 6.84157 69.817 6.84157C71.6307 6.84157 73.111 7.36169 74.2579 8.40191C75.4048 9.41546 76.125 10.8158 76.4184 12.6028H75.7382C75.9783 11.3492 76.3784 10.309 76.9385 9.48214C77.5253 8.62863 78.2721 7.97515 79.179 7.52172C80.0858 7.06829 81.1127 6.84157 82.2596 6.84157C83.7533 6.84157 85.0202 7.16164 86.0605 7.80178C87.1274 8.41525 87.9275 9.32211 88.461 10.5224C89.0211 11.7226 89.3012 13.1896 89.3012 14.9233V28.6063H85.0602V15.9635C85.0602 14.1231 84.7268 12.7362 84.06 11.8026C83.3932 10.8691 82.3797 10.4023 81.0194 10.4023C80.1392 10.4023 79.3657 10.6291 78.6989 11.0825C78.0321 11.5359 77.5119 12.1894 77.1385 13.0429C76.7918 13.8964 76.6184 14.9233 76.6184 16.1236V28.6063H72.5775V16.1236C72.5775 14.3099 72.2708 12.9096 71.6573 11.9227C71.0706 10.9091 70.057 10.4023 68.6167 10.4023C67.7098 10.4023 66.923 10.6291 66.2562 11.0825C65.616 11.5359 65.1093 12.2027 64.7359 13.0829C64.3624 13.9364 64.1757 14.95 64.1757 16.1236V28.6063H59.9348ZM369.767 28.6063V7.32168H374.008V28.6063H369.767ZM369.687 4.24101V9.63419e-05H374.088V4.24101H369.687ZM380.356 28.6063V7.32168H384.236L384.396 13.0029L383.876 12.7228C384.116 11.3359 384.57 10.2156 385.237 9.36212C385.903 8.5086 386.717 7.8818 387.677 7.48171C388.637 7.05495 389.678 6.84157 390.798 6.84157C392.398 6.84157 393.718 7.20165 394.759 7.92181C395.826 8.61529 396.626 9.5755 397.159 10.8024C397.719 12.0027 397.999 13.3763 397.999 14.9233V28.6063H393.758V16.2036C393.758 14.95 393.625 13.8964 393.358 13.0429C393.092 12.1894 392.652 11.5359 392.038 11.0825C391.425 10.6291 390.624 10.4023 389.638 10.4023C388.144 10.4023 386.93 10.8958 385.997 11.8827C385.063 12.8695 384.596 14.3099 384.596 16.2036V28.6063H380.356ZM1.19237e-07 76.6166V55.332H3.88084L4.00086 60.6132L3.52076 60.4532C3.76081 59.2796 4.17423 58.2793 4.76103 57.4525C5.37449 56.6257 6.12132 55.9855 7.00151 55.5321C7.8817 55.0787 8.84191 54.8519 9.88213 54.8519C11.6959 54.8519 13.1762 55.3721 14.3231 56.4123C15.47 57.4258 16.1902 58.8261 16.4836 60.6132H15.8034C16.0435 59.3596 16.4436 58.3194 17.0037 57.4925C17.5905 56.639 18.3373 55.9855 19.2442 55.5321C20.151 55.0787 21.1779 54.8519 22.3248 54.8519C23.8185 54.8519 25.0854 55.172 26.1256 55.8121C27.1925 56.4256 27.9927 57.3325 28.5262 58.5327C29.0863 59.733 29.3663 61.2 29.3663 62.9337V76.6166H25.1254V63.9739C25.1254 62.1335 24.792 60.7465 24.1252 59.813C23.4584 58.8795 22.4448 58.4127 21.0846 58.4127C20.2044 58.4127 19.4309 58.6394 18.7641 59.0929C18.0972 59.5463 17.5771 60.1998 17.2037 61.0533C16.857 61.9068 16.6836 62.9337 16.6836 64.1339V76.6166H12.6427V64.1339C12.6427 62.3202 12.336 60.9199 11.7225 59.933C11.1357 58.9195 10.1222 58.4127 8.68188 58.4127C7.77501 58.4127 6.98818 58.6394 6.32137 59.0929C5.68123 59.5463 5.17445 60.2131 4.80104 61.0933C4.42762 61.9468 4.24092 62.9604 4.24092 64.1339V76.6166H1.19237e-07ZM35.0076 76.6166V55.332H39.2485V76.6166H35.0076ZM34.9275 52.2514V48.0105H39.3285V52.2514H34.9275ZM45.5958 76.6166V55.332H49.4766L49.6367 61.0133L49.1165 60.7332C49.3566 59.3462 49.81 58.226 50.4768 57.3725C51.1436 56.519 51.9572 55.8922 52.9174 55.4921C53.8776 55.0653 54.9178 54.8519 56.038 54.8519C57.6384 54.8519 58.9587 55.212 59.9989 55.9322C61.0658 56.6257 61.866 57.5859 62.3994 58.8128C62.9595 60.0131 63.2396 61.3867 63.2396 62.9337V76.6166H58.9987V64.214C58.9987 62.9604 58.8653 61.9068 58.5986 61.0533C58.3319 60.1998 57.8918 59.5463 57.2783 59.0929C56.6648 58.6394 55.8647 58.4127 54.8778 58.4127C53.3841 58.4127 52.1705 58.9061 51.237 59.893C50.3035 60.8799 49.8367 62.3202 49.8367 64.214V76.6166H45.5958ZM75.6882 77.0967C73.5544 77.0967 71.8474 76.3899 70.5671 74.9763C69.3135 73.536 68.6867 71.5489 68.6867 69.015V55.332H72.9276V67.9348C72.9276 69.8552 73.261 71.2688 73.9278 72.1757C74.5946 73.0825 75.6082 73.536 76.9685 73.536C78.5155 73.536 79.7158 73.0425 80.5693 72.0557C81.4495 71.0421 81.8896 69.6285 81.8896 67.8147V55.332H86.1305V76.6166H82.1696L82.0896 71.0554L82.6897 71.2955C82.3163 73.1626 81.5295 74.6029 80.3292 75.6164C79.129 76.6033 77.582 77.0967 75.6882 77.0967ZM99.2361 76.6166C97.209 76.6166 95.7154 76.1499 94.7551 75.2163C93.7949 74.2828 93.3148 72.8292 93.3148 70.8554V50.331H97.5558V70.5353C97.5558 71.5222 97.7691 72.2024 98.1959 72.5758C98.6227 72.9492 99.2761 73.1359 100.156 73.1359H103.197V76.6166H99.2361ZM90.0741 58.8128V55.332H103.197V58.8128H90.0741ZM115.66 77.0967C113.58 77.0967 111.779 76.6433 110.259 75.7365C108.765 74.8296 107.605 73.536 106.778 71.8556C105.978 70.1752 105.578 68.2148 105.578 65.9743C105.578 63.7339 105.978 61.7868 106.778 60.1331C107.605 58.4527 108.765 57.1591 110.259 56.2522C111.752 55.3187 113.513 54.8519 115.54 54.8519C117.46 54.8519 119.154 55.3054 120.621 56.2122C122.088 57.0924 123.222 58.3727 124.022 60.0531C124.849 61.7334 125.262 63.7605 125.262 66.1344V67.2146H109.979C110.085 69.2951 110.632 70.8554 111.619 71.8956C112.633 72.9358 113.993 73.456 115.7 73.456C116.954 73.456 117.994 73.1626 118.821 72.5758C119.648 71.989 120.221 71.2021 120.541 70.2153L124.942 70.4953C124.382 72.4691 123.275 74.0694 121.621 75.2964C119.994 76.4966 118.007 77.0967 115.66 77.0967ZM109.979 64.0139H120.781C120.648 62.1202 120.101 60.7199 119.141 59.813C118.207 58.9061 117.007 58.4527 115.54 58.4527C114.02 58.4527 112.766 58.9328 111.779 59.893C110.819 60.8266 110.219 62.2002 109.979 64.0139ZM137.761 77.0967C135.761 77.0967 134.067 76.79 132.68 76.1765C131.32 75.5631 130.266 74.7229 129.519 73.656C128.772 72.5624 128.346 71.3088 128.239 69.8952L132.6 69.6951C132.813 70.8687 133.32 71.8023 134.12 72.4958C134.92 73.1892 136.134 73.536 137.761 73.536C139.095 73.536 140.148 73.3226 140.922 72.8958C141.695 72.4691 142.082 71.7889 142.082 70.8554C142.082 70.3486 141.949 69.9219 141.682 69.5751C141.442 69.2017 140.962 68.895 140.242 68.6549C139.521 68.3882 138.454 68.1348 137.041 67.8948C134.934 67.4947 133.28 67.0279 132.08 66.4945C130.88 65.961 130.026 65.2809 129.519 64.454C129.012 63.6272 128.759 62.627 128.759 61.4534C128.759 59.5063 129.479 57.9193 130.92 56.6923C132.387 55.4654 134.494 54.8519 137.241 54.8519C139.081 54.8519 140.628 55.172 141.882 55.8121C143.135 56.4256 144.109 57.2658 144.803 58.3327C145.523 59.3729 145.976 60.5465 146.163 61.8535L141.802 62.0935C141.669 61.3467 141.402 60.7065 141.002 60.1731C140.628 59.613 140.122 59.1862 139.481 58.8928C138.841 58.5727 138.081 58.4127 137.201 58.4127C135.841 58.4127 134.827 58.6794 134.16 59.2129C133.493 59.7463 133.16 60.4398 133.16 61.2933C133.16 61.9335 133.307 62.4536 133.6 62.8537C133.92 63.2538 134.427 63.5872 135.12 63.8539C135.814 64.0939 136.734 64.3073 137.881 64.494C140.095 64.8674 141.829 65.3342 143.082 65.8943C144.336 66.4278 145.216 67.0946 145.723 67.8948C146.229 68.6949 146.483 69.6685 146.483 70.8154C146.483 72.149 146.109 73.2826 145.363 74.2161C144.616 75.1497 143.589 75.8698 142.282 76.3766C140.975 76.8567 139.468 77.0967 137.761 77.0967ZM150.045 82.898L152.046 76.6166H149.845V71.5756H155.006V76.0165L152.486 82.898H150.045ZM169.412 76.6166V55.332H173.292L173.452 61.0133L172.932 60.7332C173.172 59.3462 173.626 58.226 174.293 57.3725C174.959 56.519 175.773 55.8922 176.733 55.4921C177.693 55.0653 178.734 54.8519 179.854 54.8519C181.454 54.8519 182.774 55.212 183.815 55.9322C184.882 56.6257 185.682 57.5859 186.215 58.8128C186.775 60.0131 187.055 61.3867 187.055 62.9337V76.6166H182.814V64.214C182.814 62.9604 182.681 61.9068 182.414 61.0533C182.148 60.1998 181.708 59.5463 181.094 59.0929C180.481 58.6394 179.68 58.4127 178.694 58.4127C177.2 58.4127 175.986 58.9061 175.053 59.893C174.119 60.8799 173.652 62.3202 173.652 64.214V76.6166H169.412ZM201.343 77.0967C199.315 77.0967 197.542 76.6433 196.021 75.7365C194.501 74.8296 193.327 73.536 192.501 71.8556C191.674 70.1752 191.26 68.2148 191.26 65.9743C191.26 63.7072 191.674 61.7468 192.501 60.0931C193.327 58.4394 194.501 57.1591 196.021 56.2522C197.542 55.3187 199.315 54.8519 201.343 54.8519C203.37 54.8519 205.143 55.3187 206.664 56.2522C208.184 57.1591 209.358 58.4394 210.184 60.0931C211.011 61.7468 211.425 63.7072 211.425 65.9743C211.425 68.2148 211.011 70.1752 210.184 71.8556C209.358 73.536 208.184 74.8296 206.664 75.7365C205.143 76.6433 203.37 77.0967 201.343 77.0967ZM201.343 73.4159C203.156 73.4159 204.557 72.7625 205.543 71.4555C206.53 70.1219 207.024 68.2948 207.024 65.9743C207.024 63.6538 206.53 61.8401 205.543 60.5332C204.557 59.1995 203.156 58.5327 201.343 58.5327C199.555 58.5327 198.155 59.1995 197.142 60.5332C196.155 61.8401 195.661 63.6538 195.661 65.9743C195.661 68.2948 196.155 70.1219 197.142 71.4555C198.155 72.7625 199.555 73.4159 201.343 73.4159ZM223.091 76.6166C221.064 76.6166 219.57 76.1499 218.61 75.2163C217.65 74.2828 217.17 72.8292 217.17 70.8554V50.331H221.411V70.5353C221.411 71.5222 221.624 72.2024 222.051 72.5758C222.478 72.9492 223.131 73.1359 224.011 73.1359H227.052V76.6166H223.091ZM213.929 58.8128V55.332H227.052V58.8128H213.929ZM248.629 77.0967C246.816 77.0967 245.229 76.6433 243.868 75.7365C242.535 74.8296 241.508 73.5493 240.788 71.8956C240.094 70.2153 239.747 68.2415 239.747 65.9743C239.747 63.7072 240.107 61.7468 240.828 60.0931C241.548 58.4127 242.575 57.1191 243.908 56.2122C245.242 55.3054 246.816 54.8519 248.629 54.8519C250.096 54.8519 251.403 55.1587 252.55 55.7721C253.697 56.3856 254.564 57.2391 255.151 58.3327V48.2105H259.392V76.6166H255.431L255.311 73.4159C254.724 74.5629 253.83 75.4697 252.63 76.1365C251.457 76.7767 250.123 77.0967 248.629 77.0967ZM249.75 73.4159C250.896 73.4159 251.87 73.1226 252.67 72.5358C253.47 71.949 254.084 71.0954 254.511 69.9752C254.937 68.855 255.151 67.5213 255.151 65.9743C255.151 64.374 254.937 63.027 254.511 61.9335C254.084 60.8132 253.47 59.973 252.67 59.4129C251.87 58.8261 250.896 58.5327 249.75 58.5327C248.043 58.5327 246.682 59.1995 245.669 60.5332C244.655 61.8401 244.148 63.6538 244.148 65.9743C244.148 68.2682 244.655 70.0819 245.669 71.4155C246.682 72.7491 248.043 73.4159 249.75 73.4159ZM270.979 77.0967C268.766 77.0967 266.992 76.59 265.658 75.5764C264.351 74.5629 263.698 73.1359 263.698 71.2955C263.698 69.4551 264.245 68.0281 265.338 67.0146C266.458 65.9743 268.179 65.2275 270.499 64.7741L277.821 63.3738C277.821 61.7201 277.434 60.4932 276.661 59.693C275.887 58.8661 274.74 58.4527 273.22 58.4527C271.86 58.4527 270.793 58.7595 270.019 59.3729C269.246 59.9597 268.712 60.8399 268.419 62.0135L264.058 61.7334C264.458 59.5996 265.445 57.9193 267.019 56.6923C268.619 55.4654 270.686 54.8519 273.22 54.8519C276.101 54.8519 278.288 55.6254 279.781 57.1724C281.302 58.6928 282.062 60.8399 282.062 63.6138V71.8956C282.062 72.4024 282.142 72.7625 282.302 72.9759C282.489 73.1626 282.782 73.2559 283.182 73.2559H283.942V76.6166C283.809 76.6433 283.596 76.67 283.302 76.6967C283.009 76.7233 282.702 76.7367 282.382 76.7367C281.475 76.7367 280.688 76.59 280.021 76.2966C279.381 76.0032 278.901 75.5231 278.581 74.8563C278.261 74.1628 278.101 73.2426 278.101 72.0957L278.541 72.2957C278.328 73.2292 277.861 74.0561 277.141 74.7762C276.447 75.4964 275.554 76.0699 274.46 76.4966C273.393 76.8967 272.233 77.0967 270.979 77.0967ZM271.66 73.736C272.94 73.736 274.033 73.496 274.94 73.0159C275.847 72.5091 276.554 71.8156 277.061 70.9354C277.568 70.0552 277.821 69.055 277.821 67.9348V66.5745L271.58 67.7747C270.299 68.0148 269.392 68.4015 268.859 68.935C268.352 69.4418 268.099 70.0952 268.099 70.8954C268.099 71.8023 268.406 72.5091 269.019 73.0159C269.659 73.496 270.539 73.736 271.66 73.736ZM287.747 82.6179V79.1372H290.347C291.067 79.1372 291.601 79.0305 291.947 78.8171C292.294 78.6037 292.561 78.2437 292.748 77.7369L293.428 75.9765H292.107L284.426 55.332H288.907L294.748 72.0557L300.309 55.332H304.83L296.348 79.0972C295.922 80.3241 295.281 81.2176 294.428 81.7778C293.601 82.3379 292.441 82.6179 290.947 82.6179H287.747ZM315.768 77.0967C313.768 77.0967 312.074 76.79 310.687 76.1765C309.327 75.5631 308.273 74.7229 307.526 73.656C306.78 72.5624 306.353 71.3088 306.246 69.8952L310.607 69.6951C310.82 70.8687 311.327 71.8023 312.127 72.4958C312.928 73.1892 314.141 73.536 315.768 73.536C317.102 73.536 318.155 73.3226 318.929 72.8958C319.702 72.4691 320.089 71.7889 320.089 70.8554C320.089 70.3486 319.956 69.9219 319.689 69.5751C319.449 69.2017 318.969 68.895 318.249 68.6549C317.529 68.3882 316.462 68.1348 315.048 67.8948C312.941 67.4947 311.287 67.0279 310.087 66.4945C308.887 65.961 308.033 65.2809 307.526 64.454C307.02 63.6272 306.766 62.627 306.766 61.4534C306.766 59.5063 307.486 57.9193 308.927 56.6923C310.394 55.4654 312.501 54.8519 315.248 54.8519C317.088 54.8519 318.635 55.172 319.889 55.8121C321.143 56.4256 322.116 57.2658 322.81 58.3327C323.53 59.3729 323.983 60.5465 324.17 61.8535L319.809 62.0935C319.676 61.3467 319.409 60.7065 319.009 60.1731C318.635 59.613 318.129 59.1862 317.489 58.8928C316.848 58.5727 316.088 58.4127 315.208 58.4127C313.848 58.4127 312.834 58.6794 312.167 59.2129C311.501 59.7463 311.167 60.4398 311.167 61.2933C311.167 61.9335 311.314 62.4536 311.607 62.8537C311.927 63.2538 312.434 63.5872 313.128 63.8539C313.821 64.0939 314.741 64.3073 315.888 64.494C318.102 64.8674 319.836 65.3342 321.089 65.8943C322.343 66.4278 323.223 67.0946 323.73 67.8948C324.237 68.6949 324.49 69.6685 324.49 70.8154C324.49 72.149 324.117 73.2826 323.37 74.2161C322.623 75.1497 321.596 75.8698 320.289 76.3766C318.982 76.8567 317.475 77.0967 315.768 77.0967ZM327.852 76.6166V71.5756H333.013V76.6166H327.852Z" fill="white"/>
<path d="M113.824 29.0864C111.797 29.0864 110.023 28.6329 108.502 27.7261C106.982 26.8192 105.809 25.5256 104.982 23.8452C104.155 22.1649 103.741 20.2045 103.741 17.964C103.741 15.7235 104.155 13.7764 104.982 12.1227C105.809 10.4424 106.982 9.14874 108.502 8.24188C110.023 7.30834 111.797 6.84157 113.824 6.84157C115.557 6.84157 117.091 7.14831 118.425 7.76177C119.785 8.34857 120.878 9.21542 121.705 10.3623C122.559 11.5092 123.106 12.9096 123.346 14.5632L118.905 14.8033C118.691 13.4163 118.131 12.3628 117.224 11.6426C116.318 10.8958 115.184 10.5224 113.824 10.5224C112.037 10.5224 110.636 11.1892 109.623 12.5228C108.636 13.8297 108.142 15.6435 108.142 17.964C108.142 20.2845 108.636 22.1115 109.623 23.4452C110.636 24.7521 112.037 25.4056 113.824 25.4056C115.184 25.4056 116.318 25.0322 117.224 24.2853C118.131 23.5118 118.691 22.3516 118.905 20.8046L123.346 21.0446C123.106 22.6717 122.559 24.0853 121.705 25.2856C120.878 26.4858 119.785 27.4194 118.425 28.0862C117.091 28.753 115.557 29.0864 113.824 29.0864ZM135.977 29.0864C133.95 29.0864 132.176 28.6329 130.656 27.7261C129.135 26.8192 127.962 25.5256 127.135 23.8452C126.308 22.1649 125.895 20.2045 125.895 17.964C125.895 15.6968 126.308 13.7364 127.135 12.0827C127.962 10.429 129.135 9.14874 130.656 8.24188C132.176 7.30834 133.95 6.84157 135.977 6.84157C138.004 6.84157 139.778 7.30834 141.298 8.24188C142.818 9.14874 143.992 10.429 144.819 12.0827C145.646 13.7364 146.059 15.6968 146.059 17.964C146.059 20.2045 145.646 22.1649 144.819 23.8452C143.992 25.5256 142.818 26.8192 141.298 27.7261C139.778 28.6329 138.004 29.0864 135.977 29.0864ZM135.977 25.4056C137.791 25.4056 139.191 24.7521 140.178 23.4452C141.165 22.1115 141.658 20.2845 141.658 17.964C141.658 15.6435 141.165 13.8297 140.178 12.5228C139.191 11.1892 137.791 10.5224 135.977 10.5224C134.19 10.5224 132.79 11.1892 131.776 12.5228C130.789 13.8297 130.296 15.6435 130.296 17.964C130.296 20.2845 130.789 22.1115 131.776 23.4452C132.79 24.7521 134.19 25.4056 135.977 25.4056ZM157.907 29.0864C156.093 29.0864 154.506 28.6329 153.146 27.7261C151.812 26.8192 150.785 25.5389 150.065 23.8853C149.371 22.2049 149.025 20.2311 149.025 17.964C149.025 15.6968 149.385 13.7364 150.105 12.0827C150.825 10.4023 151.852 9.10873 153.186 8.20187C154.519 7.295 156.093 6.84157 157.907 6.84157C159.374 6.84157 160.681 7.14831 161.827 7.76177C162.974 8.37524 163.841 9.22876 164.428 10.3223V0.200139H168.669V28.6063H164.708L164.588 25.4056C164.001 26.5525 163.108 27.4594 161.907 28.1262C160.734 28.7663 159.4 29.0864 157.907 29.0864ZM159.027 25.4056C160.174 25.4056 161.147 25.1122 161.947 24.5254C162.748 23.9386 163.361 23.0851 163.788 21.9648C164.215 20.8446 164.428 19.511 164.428 17.964C164.428 16.3636 164.215 15.0167 163.788 13.9231C163.361 12.8029 162.748 11.9627 161.947 11.4026C161.147 10.8158 160.174 10.5224 159.027 10.5224C157.32 10.5224 155.96 11.1892 154.946 12.5228C153.932 13.8297 153.426 15.6435 153.426 17.964C153.426 20.2578 153.932 22.0715 154.946 23.4052C155.96 24.7388 157.32 25.4056 159.027 25.4056ZM183.057 29.0864C180.977 29.0864 179.177 28.6329 177.656 27.7261C176.163 26.8192 175.002 25.5256 174.175 23.8452C173.375 22.1649 172.975 20.2045 172.975 17.964C172.975 15.7235 173.375 13.7764 174.175 12.1227C175.002 10.4424 176.163 9.14874 177.656 8.24188C179.15 7.30834 180.91 6.84157 182.937 6.84157C184.858 6.84157 186.551 7.295 188.018 8.20187C189.485 9.08206 190.619 10.3623 191.419 12.0427C192.246 13.7231 192.659 15.7502 192.659 18.124V19.2042H177.376C177.483 21.2847 178.03 22.845 179.016 23.8853C180.03 24.9255 181.39 25.4456 183.097 25.4456C184.351 25.4456 185.391 25.1522 186.218 24.5654C187.045 23.9786 187.618 23.1918 187.938 22.2049L192.339 22.485C191.779 24.4587 190.672 26.0591 189.019 27.286C187.392 28.4862 185.405 29.0864 183.057 29.0864ZM177.376 16.0036H188.178C188.045 14.1098 187.498 12.7095 186.538 11.8026C185.605 10.8958 184.404 10.4424 182.937 10.4424C181.417 10.4424 180.163 10.9225 179.177 11.8827C178.216 12.8162 177.616 14.1898 177.376 16.0036ZM215.238 28.6063C213.211 28.6063 211.717 28.1395 210.757 27.206C209.797 26.2724 209.316 24.8188 209.316 22.845V2.3206H213.557V22.525C213.557 23.5118 213.771 24.192 214.198 24.5654C214.624 24.9388 215.278 25.1255 216.158 25.1255H219.199V28.6063H215.238ZM206.076 10.8024V7.32168H219.199V10.8024H206.076ZM231.662 29.0864C229.634 29.0864 227.861 28.6329 226.34 27.7261C224.82 26.8192 223.647 25.5256 222.82 23.8452C221.993 22.1649 221.579 20.2045 221.579 17.964C221.579 15.6968 221.993 13.7364 222.82 12.0827C223.647 10.429 224.82 9.14874 226.34 8.24188C227.861 7.30834 229.634 6.84157 231.662 6.84157C233.689 6.84157 235.462 7.30834 236.983 8.24188C238.503 9.14874 239.677 10.429 240.503 12.0827C241.33 13.7364 241.744 15.6968 241.744 17.964C241.744 20.2045 241.33 22.1649 240.503 23.8452C239.677 25.5256 238.503 26.8192 236.983 27.7261C235.462 28.6329 233.689 29.0864 231.662 29.0864ZM231.662 25.4056C233.475 25.4056 234.876 24.7521 235.862 23.4452C236.849 22.1115 237.343 20.2845 237.343 17.964C237.343 15.6435 236.849 13.8297 235.862 12.5228C234.876 11.1892 233.475 10.5224 231.662 10.5224C229.875 10.5224 228.474 11.1892 227.461 12.5228C226.474 13.8297 225.98 15.6435 225.98 17.964C225.98 20.2845 226.474 22.1115 227.461 23.4452C228.474 24.7521 229.875 25.4056 231.662 25.4056ZM264.911 29.0864C262.884 29.0864 261.11 28.6329 259.59 27.7261C258.069 26.8192 256.896 25.5256 256.069 23.8452C255.242 22.1649 254.829 20.2045 254.829 17.964C254.829 15.7235 255.242 13.7764 256.069 12.1227C256.896 10.4424 258.069 9.14874 259.59 8.24188C261.11 7.30834 262.884 6.84157 264.911 6.84157C266.645 6.84157 268.178 7.14831 269.512 7.76177C270.872 8.34857 271.966 9.21542 272.793 10.3623C273.646 11.5092 274.193 12.9096 274.433 14.5632L269.992 14.8033C269.779 13.4163 269.219 12.3628 268.312 11.6426C267.405 10.8958 266.271 10.5224 264.911 10.5224C263.124 10.5224 261.724 11.1892 260.71 12.5228C259.723 13.8297 259.23 15.6435 259.23 17.964C259.23 20.2845 259.723 22.1115 260.71 23.4452C261.724 24.7521 263.124 25.4056 264.911 25.4056C266.271 25.4056 267.405 25.0322 268.312 24.2853C269.219 23.5118 269.779 22.3516 269.992 20.8046L274.433 21.0446C274.193 22.6717 273.646 24.0853 272.793 25.2856C271.966 26.4858 270.872 27.4194 269.512 28.0862C268.178 28.753 266.645 29.0864 264.911 29.0864ZM283.139 28.6063C281.752 28.6063 280.631 28.2462 279.778 27.526C278.924 26.8059 278.498 25.659 278.498 24.0853V0.200139H282.739V23.6852C282.739 24.1653 282.859 24.5254 283.099 24.7654C283.365 25.0055 283.739 25.1255 284.219 25.1255H285.899V28.6063H283.139ZM298.278 29.0864C296.25 29.0864 294.477 28.6329 292.956 27.7261C291.436 26.8192 290.262 25.5256 289.436 23.8452C288.609 22.1649 288.195 20.2045 288.195 17.964C288.195 15.6968 288.609 13.7364 289.436 12.0827C290.262 10.429 291.436 9.14874 292.956 8.24188C294.477 7.30834 296.25 6.84157 298.278 6.84157C300.305 6.84157 302.078 7.30834 303.599 8.24188C305.119 9.14874 306.293 10.429 307.119 12.0827C307.946 13.7364 308.36 15.6968 308.36 17.964C308.36 20.2045 307.946 22.1649 307.119 23.8452C306.293 25.5256 305.119 26.8192 303.599 27.7261C302.078 28.6329 300.305 29.0864 298.278 29.0864ZM298.278 25.4056C300.091 25.4056 301.492 24.7521 302.478 23.4452C303.465 22.1115 303.959 20.2845 303.959 17.964C303.959 15.6435 303.465 13.8297 302.478 12.5228C301.492 11.1892 300.091 10.5224 298.278 10.5224C296.49 10.5224 295.09 11.1892 294.077 12.5228C293.09 13.8297 292.596 15.6435 292.596 17.964C292.596 20.2845 293.09 22.1115 294.077 23.4452C295.09 24.7521 296.49 25.4056 298.278 25.4056ZM319.647 29.0864C317.513 29.0864 315.806 28.3796 314.526 26.9659C313.272 25.5256 312.646 23.5385 312.646 21.0046V7.32168H316.887V19.9244C316.887 21.8448 317.22 23.2585 317.887 24.1653C318.554 25.0722 319.567 25.5256 320.927 25.5256C322.474 25.5256 323.675 25.0322 324.528 24.0453C325.408 23.0317 325.848 21.6181 325.848 19.8044V7.32168H330.089V28.6063H326.129L326.049 23.0451L326.649 23.2851C326.275 25.1522 325.488 26.5925 324.288 27.6061C323.088 28.5929 321.541 29.0864 319.647 29.0864ZM343.259 29.0864C341.445 29.0864 339.858 28.6329 338.498 27.7261C337.164 26.8192 336.138 25.5389 335.417 23.8853C334.724 22.2049 334.377 20.2311 334.377 17.964C334.377 15.6968 334.737 13.7364 335.457 12.0827C336.178 10.4023 337.204 9.10873 338.538 8.20187C339.872 7.295 341.445 6.84157 343.259 6.84157C344.726 6.84157 346.033 7.14831 347.18 7.76177C348.327 8.37524 349.194 9.22876 349.781 10.3223V0.200139H354.021V28.6063H350.061L349.941 25.4056C349.354 26.5525 348.46 27.4594 347.26 28.1262C346.086 28.7663 344.753 29.0864 343.259 29.0864ZM344.379 25.4056C345.526 25.4056 346.5 25.1122 347.3 24.5254C348.1 23.9386 348.714 23.0851 349.14 21.9648C349.567 20.8446 349.781 19.511 349.781 17.964C349.781 16.3636 349.567 15.0167 349.14 13.9231C348.714 12.8029 348.1 11.9627 347.3 11.4026C346.5 10.8158 345.526 10.5224 344.379 10.5224C342.672 10.5224 341.312 11.1892 340.298 12.5228C339.285 13.8297 338.778 15.6435 338.778 17.964C338.778 20.2578 339.285 22.0715 340.298 23.4052C341.312 24.7388 342.672 25.4056 344.379 25.4056Z" fill="url(#paint0_radial_176_65)"/>
<defs>
<radialGradient id="paint0_radial_176_65" cx="0" cy="0" r="1" gradientTransform="matrix(232.191 -11.516 299.322 48.9463 229.191 19.9558)" gradientUnits="userSpaceOnUse">
<stop stop-color="#43D7FF"/>
<stop offset="0.96" stop-color="#5C58CE"/>
</radialGradient>
</defs>
</svg>
