<svg width="217" height="13" viewBox="0 0 217 13" fill="none" xmlns="http://www.w3.org/2000/svg">
<path d="M3.94021 10.4032C3.17376 10.4032 2.50546 10.2584 1.93529 9.9686C1.36513 9.67884 0.911798 9.2816 0.575308 8.77686C0.248164 8.26278 0.0565513 7.66924 0.000469483 6.99626L1.26231 6.91214C1.32774 7.40753 1.47262 7.82814 1.69694 8.17398C1.92127 8.51982 2.22037 8.78153 2.59425 8.95913C2.97748 9.13672 3.43548 9.22551 3.96826 9.22551C4.4356 9.22551 4.83285 9.16476 5.15999 9.04325C5.48714 8.92174 5.73483 8.74415 5.90308 8.51047C6.08067 8.2768 6.16946 7.99172 6.16946 7.65522C6.16946 7.34677 6.09469 7.07571 5.94514 6.84204C5.80493 6.59902 5.5292 6.37936 5.11793 6.18308C4.71601 5.97744 4.11781 5.77649 3.32331 5.5802C2.55686 5.38391 1.94464 5.16893 1.48664 4.93526C1.03798 4.70158 0.710839 4.4165 0.505205 4.08001C0.308919 3.74352 0.210776 3.32758 0.210776 2.83219C0.210776 2.27137 0.341634 1.78066 0.603349 1.36005C0.87441 0.930085 1.25764 0.598268 1.75302 0.364593C2.24841 0.121573 2.83727 6.24375e-05 3.5196 6.24375e-05C4.24866 6.24375e-05 4.87491 0.140267 5.39834 0.420675C5.92177 0.691737 6.33771 1.06562 6.64616 1.54231C6.95461 2.01901 7.14622 2.56113 7.221 3.16868L5.95916 3.25281C5.90308 2.85089 5.77222 2.4957 5.56659 2.18725C5.3703 1.86945 5.09924 1.62176 4.7534 1.44417C4.40756 1.26658 3.98695 1.17778 3.49156 1.17778C2.87466 1.17778 2.38394 1.32733 2.01941 1.62643C1.65488 1.91619 1.47262 2.29941 1.47262 2.77611C1.47262 3.08456 1.54272 3.3416 1.68292 3.54723C1.83247 3.74352 2.09419 3.92111 2.46807 4.08001C2.84195 4.22956 3.3794 4.39313 4.08042 4.57073C4.9123 4.77636 5.57126 5.02405 6.0573 5.31381C6.55269 5.59422 6.9032 5.92136 7.10883 6.29524C7.32381 6.66912 7.4313 7.09441 7.4313 7.5711C7.4313 8.15061 7.28175 8.65535 6.98265 9.08531C6.68355 9.50592 6.27228 9.83307 5.74885 10.0667C5.22542 10.2911 4.62254 10.4032 3.94021 10.4032ZM11.461 10.3471C10.6945 10.3471 10.0823 10.1696 9.6243 9.81437C9.17564 9.45919 8.95132 8.9638 8.95132 8.32821C8.95132 7.69261 9.13826 7.19255 9.51214 6.82802C9.88601 6.46349 10.4795 6.20645 11.2927 6.05689L13.9286 5.56618C13.9286 4.93993 13.779 4.47258 13.4799 4.16413C13.1902 3.85568 12.7509 3.70146 12.162 3.70146C11.6479 3.70146 11.2413 3.8183 10.9422 4.05197C10.6431 4.2763 10.4375 4.60344 10.3253 5.0334L9.0775 4.93526C9.21771 4.23424 9.5542 3.66874 10.087 3.23878C10.6291 2.79948 11.3208 2.57982 12.162 2.57982C13.1154 2.57982 13.8445 2.85089 14.3492 3.39301C14.8539 3.92579 15.1063 4.6642 15.1063 5.60824V8.67872C15.1063 8.84696 15.1343 8.96847 15.1904 9.04325C15.2558 9.10868 15.3587 9.14139 15.4989 9.14139H15.7933V10.1789C15.7559 10.1883 15.6952 10.1929 15.611 10.1929C15.5269 10.2023 15.4381 10.2069 15.3446 10.2069C15.0081 10.2069 14.7324 10.1555 14.5174 10.0527C14.3118 9.94056 14.1622 9.77231 14.0688 9.54798C13.9753 9.31431 13.9286 9.01053 13.9286 8.63666L14.0688 8.6647C14.0034 8.98249 13.8445 9.27225 13.5921 9.53396C13.3397 9.78633 13.0266 9.98729 12.6527 10.1368C12.2788 10.277 11.8816 10.3471 11.461 10.3471ZM11.5731 9.30964C12.0685 9.30964 12.4891 9.21617 12.835 9.02923C13.1902 8.83294 13.4612 8.57123 13.6482 8.24408C13.8351 7.90759 13.9286 7.53371 13.9286 7.12245V6.58967L11.5171 7.03832C11.0123 7.13179 10.6618 7.27667 10.4655 7.47296C10.2786 7.6599 10.1851 7.90759 10.1851 8.21604C10.1851 8.56188 10.3066 8.83294 10.5496 9.02923C10.802 9.21617 11.1432 9.30964 11.5731 9.30964ZM18.7287 10.1789L16.0228 2.74807H17.3126L19.4718 8.97315L21.6309 2.74807H22.9208L20.2149 10.1789H18.7287ZM26.8853 10.3471C26.1843 10.3471 25.5768 10.1883 25.0627 9.87045C24.5579 9.55266 24.1654 9.104 23.885 8.52449C23.6139 7.93563 23.4784 7.24863 23.4784 6.46349C23.4784 5.67834 23.6139 4.99601 23.885 4.4165C24.1654 3.83699 24.5533 3.38834 25.0486 3.07054C25.5534 2.7434 26.1469 2.57982 26.8292 2.57982C27.4742 2.57982 28.0444 2.73405 28.5397 3.0425C29.0351 3.3416 29.4184 3.78091 29.6894 4.36042C29.9698 4.93993 30.11 5.64563 30.11 6.47751V6.82802H24.7122C24.7589 7.62251 24.9692 8.22072 25.3431 8.62263C25.7263 9.02455 26.2404 9.22551 26.8853 9.22551C27.3714 9.22551 27.7686 9.11335 28.0771 8.88902C28.3949 8.65535 28.6145 8.35157 28.736 7.97769L29.9979 8.07584C29.8016 8.73947 29.4277 9.28627 28.8762 9.71623C28.3341 10.1368 27.6705 10.3471 26.8853 10.3471ZM24.7122 5.79051H28.8201C28.7641 5.07079 28.5538 4.54269 28.1892 4.2062C27.834 3.8697 27.3807 3.70146 26.8292 3.70146C26.2591 3.70146 25.7871 3.87905 25.4132 4.23424C25.0486 4.58007 24.815 5.09883 24.7122 5.79051ZM38.4458 10.4032C37.3429 10.4032 36.4923 10.1462 35.8941 9.63211C35.2959 9.10868 34.9734 8.4357 34.9267 7.61316L36.1745 7.52904C36.2306 8.13659 36.4643 8.57123 36.8755 8.83294C37.2962 9.09466 37.8196 9.22551 38.4458 9.22551C38.8758 9.22551 39.273 9.16943 39.6376 9.05727C40.0021 8.93576 40.2965 8.74415 40.5209 8.48243C40.7452 8.21137 40.8574 7.85151 40.8574 7.40286C40.8574 6.73922 40.6377 6.25318 40.1984 5.94473C39.7591 5.63628 39.1796 5.48206 38.4599 5.48206H37.6747V4.30434H38.4599C39.0487 4.30434 39.5348 4.1875 39.918 3.95383C40.3106 3.72015 40.5068 3.31823 40.5068 2.74807C40.5068 2.23399 40.3386 1.84609 40.0021 1.58437C39.675 1.31331 39.1796 1.17778 38.5159 1.17778C37.8617 1.17778 37.3663 1.30396 37.0298 1.55633C36.7026 1.8087 36.5063 2.15454 36.4409 2.59384L35.1791 2.50972C35.2725 1.76196 35.6044 1.15909 36.1745 0.701084C36.7447 0.233736 37.5252 6.24375e-05 38.5159 6.24375e-05C39.1889 6.24375e-05 39.7684 0.112226 40.2545 0.336553C40.7405 0.551533 41.1144 0.859983 41.3761 1.2619C41.6378 1.66382 41.7687 2.14052 41.7687 2.69199C41.7687 3.30889 41.5724 3.80895 41.1798 4.19217C40.7966 4.56605 40.2264 4.82309 39.4693 4.9633V4.71093C40.2825 4.8044 40.9275 5.09416 41.4042 5.5802C41.8808 6.06624 42.1192 6.67379 42.1192 7.40286C42.1192 8.03845 41.9603 8.58057 41.6425 9.02923C41.3341 9.47788 40.9041 9.81905 40.3526 10.0527C39.8011 10.2864 39.1656 10.4032 38.4458 10.4032ZM47.0443 10.4032C45.9414 10.4032 45.0908 10.1462 44.4926 9.63211C43.8944 9.10868 43.5719 8.4357 43.5252 7.61316L44.773 7.52904C44.8291 8.13659 45.0628 8.57123 45.474 8.83294C45.8946 9.09466 46.4181 9.22551 47.0443 9.22551C47.4743 9.22551 47.8715 9.16943 48.2361 9.05727C48.6006 8.93576 48.895 8.74415 49.1193 8.48243C49.3437 8.21137 49.4558 7.85151 49.4558 7.40286C49.4558 6.73922 49.2362 6.25318 48.7969 5.94473C48.3576 5.63628 47.7781 5.48206 47.0583 5.48206H46.2732V4.30434H47.0583C47.6472 4.30434 48.1332 4.1875 48.5165 3.95383C48.909 3.72015 49.1053 3.31823 49.1053 2.74807C49.1053 2.23399 48.9371 1.84609 48.6006 1.58437C48.2734 1.31331 47.7781 1.17778 47.1144 1.17778C46.4601 1.17778 45.9647 1.30396 45.6282 1.55633C45.3011 1.8087 45.1048 2.15454 45.0394 2.59384L43.7776 2.50972C43.871 1.76196 44.2028 1.15909 44.773 0.701084C45.3432 0.233736 46.1236 6.24375e-05 47.1144 6.24375e-05C47.7874 6.24375e-05 48.3669 0.112226 48.853 0.336553C49.339 0.551533 49.7129 0.859983 49.9746 1.2619C50.2363 1.66382 50.3672 2.14052 50.3672 2.69199C50.3672 3.30889 50.1709 3.80895 49.7783 4.19217C49.3951 4.56605 48.8249 4.82309 48.0678 4.9633V4.71093C48.881 4.8044 49.5259 5.09416 50.0026 5.5802C50.4793 6.06624 50.7177 6.67379 50.7177 7.40286C50.7177 8.03845 50.5588 8.58057 50.241 9.02923C49.9325 9.47788 49.5026 9.81905 48.9511 10.0527C48.3996 10.2864 47.764 10.4032 47.0443 10.4032ZM54.1987 5.04742C53.5724 5.04742 53.0537 4.83712 52.6424 4.4165C52.2405 3.98654 52.0395 3.37432 52.0395 2.57982C52.0395 1.77598 52.2405 1.16376 52.6424 0.743146C53.0537 0.322532 53.5724 0.112225 54.1987 0.112225C54.8343 0.112225 55.353 0.322532 55.755 0.743146C56.1569 1.16376 56.3578 1.77598 56.3578 2.57982C56.3578 3.37432 56.1569 3.98654 55.755 4.4165C55.353 4.83712 54.8343 5.04742 54.1987 5.04742ZM54.1987 4.17815C54.5819 4.17815 54.867 4.03795 55.0539 3.75754C55.2502 3.47713 55.3484 3.08456 55.3484 2.57982C55.3484 2.07509 55.2502 1.68252 55.0539 1.40211C54.867 1.1217 54.5819 0.981493 54.1987 0.981493C53.8248 0.981493 53.5397 1.1217 53.3434 1.40211C53.1471 1.68252 53.049 2.07509 53.049 2.57982C53.049 3.08456 53.1471 3.47713 53.3434 3.75754C53.5397 4.03795 53.8248 4.17815 54.1987 4.17815ZM59.891 10.2911C59.2647 10.2911 58.746 10.0808 58.3347 9.66015C57.9328 9.23019 57.7318 8.61796 57.7318 7.82347C57.7318 7.01963 57.9328 6.4074 58.3347 5.98679C58.746 5.56618 59.2647 5.35587 59.891 5.35587C60.5266 5.35587 61.0453 5.56618 61.4473 5.98679C61.8492 6.4074 62.0501 7.01963 62.0501 7.82347C62.0501 8.61796 61.8492 9.23019 61.4473 9.66015C61.0453 10.0808 60.5266 10.2911 59.891 10.2911ZM59.891 9.4218C60.2742 9.4218 60.5593 9.2816 60.7462 9.00119C60.9425 8.72078 61.0407 8.32821 61.0407 7.82347C61.0407 7.31873 60.9425 6.92616 60.7462 6.64575C60.5593 6.36534 60.2742 6.22514 59.891 6.22514C59.5171 6.22514 59.232 6.36534 59.0357 6.64575C58.8394 6.92616 58.7413 7.31873 58.7413 7.82347C58.7413 8.32821 58.8394 8.72078 59.0357 9.00119C59.232 9.2816 59.5171 9.4218 59.891 9.4218ZM53.049 10.1789L59.919 0.224389H61.0407L54.1706 10.1789H53.049Z" fill="url(#paint0_radial_176_695)"/>
<path d="M70.1926 10.3471C69.5103 10.3471 68.9121 10.1883 68.398 9.87045C67.8839 9.55266 67.4867 9.104 67.2063 8.52449C66.9258 7.93563 66.7856 7.24863 66.7856 6.46349C66.7856 5.66899 66.9258 4.98199 67.2063 4.40248C67.4867 3.82297 67.8839 3.37432 68.398 3.05652C68.9121 2.73872 69.5103 2.57982 70.1926 2.57982C70.8749 2.57982 71.4685 2.73872 71.9732 3.05652C72.4873 3.37432 72.8845 3.82297 73.1649 4.40248C73.4454 4.98199 73.5856 5.66899 73.5856 6.46349C73.5856 7.24863 73.4454 7.93563 73.1649 8.52449C72.8845 9.104 72.4873 9.55266 71.9732 9.87045C71.4685 10.1883 70.8749 10.3471 70.1926 10.3471ZM70.1926 9.22551C70.8749 9.22551 71.403 8.98249 71.7769 8.49645C72.1601 8.00106 72.3518 7.32341 72.3518 6.46349C72.3518 5.60357 72.1601 4.93058 71.7769 4.44454C71.403 3.94915 70.8749 3.70146 70.1926 3.70146C69.5103 3.70146 68.9775 3.94915 68.5943 4.44454C68.2111 4.93058 68.0194 5.60357 68.0194 6.46349C68.0194 7.32341 68.2111 8.00106 68.5943 8.49645C68.9775 8.98249 69.5103 9.22551 70.1926 9.22551ZM75.1906 10.1789V2.74807H76.2701L76.3122 4.64083L76.172 4.51465C76.2655 4.07534 76.429 3.71548 76.6627 3.43507C76.8964 3.14531 77.1768 2.93033 77.5039 2.79013C77.8404 2.64993 78.2003 2.57982 78.5835 2.57982C79.1537 2.57982 79.621 2.70601 79.9856 2.95838C80.3594 3.21074 80.6352 3.55191 80.8128 3.98187C80.9997 4.40248 81.0932 4.8745 81.0932 5.39793V10.1789H79.9155V5.73442C79.9155 5.27642 79.8594 4.8932 79.7472 4.58475C79.6444 4.26695 79.4762 4.0286 79.2425 3.8697C79.0088 3.70146 78.705 3.61734 78.3312 3.61734C77.761 3.61734 77.289 3.7996 76.9151 4.16413C76.5506 4.51932 76.3683 5.04275 76.3683 5.73442V10.1789H75.1906ZM88.8473 10.3471C88.0808 10.3471 87.4686 10.1696 87.0106 9.81437C86.5619 9.45919 86.3376 8.9638 86.3376 8.32821C86.3376 7.69261 86.5245 7.19255 86.8984 6.82802C87.2723 6.46349 87.8658 6.20645 88.679 6.05689L91.3148 5.56618C91.3148 4.93993 91.1653 4.47258 90.8662 4.16413C90.5764 3.85568 90.1371 3.70146 89.5483 3.70146C89.0342 3.70146 88.6276 3.8183 88.3285 4.05197C88.0294 4.2763 87.8238 4.60344 87.7116 5.0334L86.4638 4.93526C86.604 4.23424 86.9405 3.66874 87.4732 3.23878C88.0154 2.79948 88.707 2.57982 89.5483 2.57982C90.5017 2.57982 91.2307 2.85089 91.7355 3.39301C92.2402 3.92579 92.4926 4.6642 92.4926 5.60824V8.67872C92.4926 8.84696 92.5206 8.96847 92.5767 9.04325C92.6421 9.10868 92.7449 9.14139 92.8851 9.14139H93.1796V10.1789C93.1422 10.1883 93.0814 10.1929 92.9973 10.1929C92.9132 10.2023 92.8244 10.2069 92.7309 10.2069C92.3944 10.2069 92.1187 10.1555 91.9037 10.0527C91.6981 9.94056 91.5485 9.77231 91.4551 9.54798C91.3616 9.31431 91.3148 9.01053 91.3148 8.63666L91.4551 8.6647C91.3896 8.98249 91.2307 9.27225 90.9784 9.53396C90.726 9.78633 90.4129 9.98729 90.039 10.1368C89.6651 10.277 89.2679 10.3471 88.8473 10.3471ZM88.9594 9.30964C89.4548 9.30964 89.8754 9.21617 90.2213 9.02923C90.5764 8.83294 90.8475 8.57123 91.0344 8.24408C91.2214 7.90759 91.3148 7.53371 91.3148 7.12245V6.58967L88.9033 7.03832C88.3986 7.13179 88.0481 7.27667 87.8518 7.47296C87.6649 7.6599 87.5714 7.90759 87.5714 8.21604C87.5714 8.56188 87.6929 8.83294 87.9359 9.02923C88.1883 9.21617 88.5295 9.30964 88.9594 9.30964ZM98.3921 12.282V11.2445H99.2474C99.5091 11.2445 99.7007 11.2024 99.8222 11.1183C99.953 11.0435 100.051 10.9173 100.117 10.7397L100.383 10.0387H99.9764L97.2564 2.74807H98.5463L100.762 8.94511L102.879 2.74807H104.169L101.154 11.1183C101.014 11.5202 100.804 11.8146 100.523 12.0016C100.243 12.1885 99.8549 12.282 99.3595 12.282H98.3921ZM108.133 10.3471C107.432 10.3471 106.824 10.1883 106.31 9.87045C105.805 9.55266 105.413 9.104 105.132 8.52449C104.861 7.93563 104.726 7.24863 104.726 6.46349C104.726 5.67834 104.861 4.99601 105.132 4.4165C105.413 3.83699 105.801 3.38834 106.296 3.07054C106.801 2.7434 107.394 2.57982 108.077 2.57982C108.722 2.57982 109.292 2.73405 109.787 3.0425C110.283 3.3416 110.666 3.78091 110.937 4.36042C111.217 4.93993 111.357 5.64563 111.357 6.47751V6.82802H105.96C106.006 7.62251 106.217 8.22072 106.59 8.62263C106.974 9.02455 107.488 9.22551 108.133 9.22551C108.619 9.22551 109.016 9.11335 109.324 8.88902C109.642 8.65535 109.862 8.35157 109.983 7.97769L111.245 8.07584C111.049 8.73947 110.675 9.28627 110.124 9.71623C109.581 10.1368 108.918 10.3471 108.133 10.3471ZM105.96 5.79051H110.068C110.011 5.07079 109.801 4.54269 109.437 4.2062C109.081 3.8697 108.628 3.70146 108.077 3.70146C107.506 3.70146 107.034 3.87905 106.661 4.23424C106.296 4.58007 106.062 5.09883 105.96 5.79051ZM115.149 10.3471C114.383 10.3471 113.771 10.1696 113.313 9.81437C112.864 9.45919 112.64 8.9638 112.64 8.32821C112.64 7.69261 112.827 7.19255 113.2 6.82802C113.574 6.46349 114.168 6.20645 114.981 6.05689L117.617 5.56618C117.617 4.93993 117.467 4.47258 117.168 4.16413C116.878 3.85568 116.439 3.70146 115.85 3.70146C115.336 3.70146 114.93 3.8183 114.631 4.05197C114.331 4.2763 114.126 4.60344 114.014 5.0334L112.766 4.93526C112.906 4.23424 113.242 3.66874 113.775 3.23878C114.317 2.79948 115.009 2.57982 115.85 2.57982C116.804 2.57982 117.533 2.85089 118.037 3.39301C118.542 3.92579 118.795 4.6642 118.795 5.60824V8.67872C118.795 8.84696 118.823 8.96847 118.879 9.04325C118.944 9.10868 119.047 9.14139 119.187 9.14139H119.482V10.1789C119.444 10.1883 119.383 10.1929 119.299 10.1929C119.215 10.2023 119.126 10.2069 119.033 10.2069C118.696 10.2069 118.421 10.1555 118.206 10.0527C118 9.94056 117.851 9.77231 117.757 9.54798C117.664 9.31431 117.617 9.01053 117.617 8.63666L117.757 8.6647C117.692 8.98249 117.533 9.27225 117.28 9.53396C117.028 9.78633 116.715 9.98729 116.341 10.1368C115.967 10.277 115.57 10.3471 115.149 10.3471ZM115.261 9.30964C115.757 9.30964 116.177 9.21617 116.523 9.02923C116.878 8.83294 117.15 8.57123 117.336 8.24408C117.523 7.90759 117.617 7.53371 117.617 7.12245V6.58967L115.205 7.03832C114.701 7.13179 114.35 7.27667 114.154 7.47296C113.967 7.6599 113.873 7.90759 113.873 8.21604C113.873 8.56188 113.995 8.83294 114.238 9.02923C114.49 9.21617 114.831 9.30964 115.261 9.30964ZM120.812 10.1789V2.74807H121.849L121.905 4.62681L121.793 4.58475C121.887 3.94915 122.088 3.48648 122.396 3.19672C122.714 2.89762 123.135 2.74807 123.658 2.74807H124.387V3.8697H123.672C123.298 3.8697 122.985 3.93981 122.733 4.08001C122.49 4.21087 122.303 4.41183 122.172 4.68289C122.05 4.94461 121.989 5.2811 121.989 5.69236V10.1789H120.812ZM127.158 10.1789C126.728 10.1789 126.377 10.0667 126.106 9.84241C125.835 9.61809 125.7 9.2629 125.7 8.77686V0.224389H126.877V8.67872C126.877 8.82827 126.915 8.94511 126.99 9.02923C127.074 9.104 127.191 9.14139 127.34 9.14139H127.985V10.1789H127.158ZM129.418 12.282V11.2445H130.273C130.535 11.2445 130.726 11.2024 130.848 11.1183C130.979 11.0435 131.077 10.9173 131.142 10.7397L131.409 10.0387H131.002L128.282 2.74807H129.572L131.787 8.94511L133.904 2.74807H135.194L132.18 11.1183C132.04 11.5202 131.829 11.8146 131.549 12.0016C131.269 12.1885 130.881 12.282 130.385 12.282H129.418ZM142.837 10.3471C142.173 10.3471 141.608 10.2397 141.14 10.0247C140.682 9.8097 140.323 9.51527 140.061 9.14139C139.808 8.75817 139.664 8.32353 139.626 7.83749L140.86 7.75337C140.935 8.20202 141.126 8.56188 141.435 8.83294C141.743 9.09466 142.211 9.22551 142.837 9.22551C143.342 9.22551 143.744 9.14606 144.043 8.98717C144.351 8.81892 144.505 8.55253 144.505 8.188C144.505 7.99172 144.459 7.82814 144.365 7.69729C144.272 7.56643 144.089 7.45426 143.818 7.3608C143.547 7.25798 143.145 7.15984 142.613 7.06637C141.902 6.93551 141.341 6.77661 140.93 6.58967C140.528 6.39338 140.238 6.15504 140.061 5.87463C139.893 5.58487 139.808 5.24371 139.808 4.85114C139.808 4.1875 140.052 3.64538 140.538 3.22476C141.024 2.7948 141.715 2.57982 142.613 2.57982C143.22 2.57982 143.73 2.69199 144.141 2.91631C144.561 3.13129 144.889 3.42105 145.122 3.78558C145.365 4.14077 145.524 4.53334 145.599 4.9633L144.365 5.04742C144.309 4.78571 144.206 4.55671 144.057 4.36042C143.907 4.15479 143.711 3.99589 143.468 3.88372C143.225 3.76221 142.935 3.70146 142.599 3.70146C142.066 3.70146 141.673 3.80428 141.421 4.00991C141.168 4.21554 141.042 4.47726 141.042 4.79505C141.042 5.03808 141.098 5.23903 141.211 5.39793C141.332 5.54748 141.524 5.67367 141.785 5.77649C142.047 5.86995 142.398 5.95408 142.837 6.02885C143.594 6.15971 144.183 6.31861 144.603 6.50555C145.024 6.69249 145.319 6.92149 145.487 7.19255C145.655 7.46361 145.739 7.79543 145.739 8.188C145.739 8.646 145.608 9.03857 145.347 9.36572C145.094 9.68352 144.748 9.92654 144.309 10.0948C143.879 10.263 143.388 10.3471 142.837 10.3471ZM149.786 10.3471C149.048 10.3471 148.454 10.0995 148.006 9.60407C147.566 9.09933 147.347 8.40765 147.347 7.52904V2.74807H148.524V7.20657C148.524 7.92629 148.65 8.45906 148.903 8.8049C149.165 9.14139 149.562 9.30964 150.095 9.30964C150.683 9.30964 151.146 9.1227 151.483 8.74882C151.819 8.36559 151.987 7.84216 151.987 7.17853V2.74807H153.165V10.1789H152.043V8.34223L152.226 8.44037C152.076 9.04792 151.791 9.51994 151.37 9.85643C150.95 10.1836 150.422 10.3471 149.786 10.3471ZM158.613 10.3471C158.099 10.3471 157.641 10.235 157.239 10.0107C156.837 9.77698 156.528 9.45919 156.313 9.05727L156.271 10.1789H155.206V0.224389H156.383V3.78558C156.57 3.47713 156.86 3.2014 157.253 2.95838C157.645 2.70601 158.099 2.57982 158.613 2.57982C159.267 2.57982 159.832 2.73872 160.309 3.05652C160.786 3.37432 161.155 3.82297 161.417 4.40248C161.678 4.98199 161.809 5.66899 161.809 6.46349C161.809 7.25798 161.678 7.94498 161.417 8.52449C161.155 9.104 160.786 9.55266 160.309 9.87045C159.832 10.1883 159.267 10.3471 158.613 10.3471ZM158.543 9.22551C159.169 9.22551 159.664 8.97782 160.029 8.48243C160.393 7.98704 160.576 7.31406 160.576 6.46349C160.576 5.60357 160.393 4.93058 160.029 4.44454C159.664 3.94915 159.178 3.70146 158.571 3.70146C158.113 3.70146 157.72 3.81362 157.393 4.03795C157.066 4.25293 156.813 4.56605 156.636 4.97732C156.468 5.38859 156.383 5.88397 156.383 6.46349C156.383 7.0243 156.468 7.51502 156.636 7.93563C156.813 8.3469 157.061 8.6647 157.379 8.88902C157.706 9.11335 158.094 9.22551 158.543 9.22551ZM166.113 10.3471C165.449 10.3471 164.884 10.2397 164.417 10.0247C163.959 9.8097 163.599 9.51527 163.337 9.14139C163.085 8.75817 162.94 8.32353 162.902 7.83749L164.136 7.75337C164.211 8.20202 164.403 8.56188 164.711 8.83294C165.019 9.09466 165.487 9.22551 166.113 9.22551C166.618 9.22551 167.02 9.14606 167.319 8.98717C167.627 8.81892 167.781 8.55253 167.781 8.188C167.781 7.99172 167.735 7.82814 167.641 7.69729C167.548 7.56643 167.366 7.45426 167.094 7.3608C166.823 7.25798 166.421 7.15984 165.889 7.06637C165.178 6.93551 164.618 6.77661 164.206 6.58967C163.804 6.39338 163.515 6.15504 163.337 5.87463C163.169 5.58487 163.085 5.24371 163.085 4.85114C163.085 4.1875 163.328 3.64538 163.814 3.22476C164.3 2.7948 164.991 2.57982 165.889 2.57982C166.496 2.57982 167.006 2.69199 167.417 2.91631C167.838 3.13129 168.165 3.42105 168.398 3.78558C168.641 4.14077 168.8 4.53334 168.875 4.9633L167.641 5.04742C167.585 4.78571 167.482 4.55671 167.333 4.36042C167.183 4.15479 166.987 3.99589 166.744 3.88372C166.501 3.76221 166.211 3.70146 165.875 3.70146C165.342 3.70146 164.949 3.80428 164.697 4.00991C164.445 4.21554 164.318 4.47726 164.318 4.79505C164.318 5.03808 164.375 5.23903 164.487 5.39793C164.608 5.54748 164.8 5.67367 165.062 5.77649C165.323 5.86995 165.674 5.95408 166.113 6.02885C166.87 6.15971 167.459 6.31861 167.88 6.50555C168.3 6.69249 168.595 6.92149 168.763 7.19255C168.931 7.46361 169.015 7.79543 169.015 8.188C169.015 8.646 168.884 9.03857 168.623 9.36572C168.37 9.68352 168.024 9.92654 167.585 10.0948C167.155 10.263 166.665 10.3471 166.113 10.3471ZM173.525 10.3471C172.833 10.3471 172.23 10.1883 171.716 9.87045C171.212 9.55266 170.819 9.104 170.539 8.52449C170.258 7.93563 170.118 7.24863 170.118 6.46349C170.118 5.67834 170.258 4.99601 170.539 4.4165C170.819 3.83699 171.212 3.38834 171.716 3.07054C172.23 2.7434 172.833 2.57982 173.525 2.57982C174.095 2.57982 174.6 2.68264 175.039 2.88827C175.488 3.08456 175.852 3.37432 176.133 3.75754C176.413 4.14077 176.595 4.60811 176.68 5.15959L175.446 5.24371C175.362 4.74832 175.147 4.36977 174.801 4.10805C174.455 3.83699 174.03 3.70146 173.525 3.70146C172.843 3.70146 172.31 3.94915 171.927 4.44454C171.543 4.93058 171.352 5.60357 171.352 6.46349C171.352 7.32341 171.543 8.00106 171.927 8.49645C172.31 8.98249 172.843 9.22551 173.525 9.22551C174.03 9.22551 174.455 9.08531 174.801 8.8049C175.147 8.52449 175.362 8.10388 175.446 7.54306L176.68 7.62718C176.595 8.17865 176.413 8.66002 176.133 9.07129C175.852 9.47321 175.488 9.78633 175.039 10.0107C174.6 10.235 174.095 10.3471 173.525 10.3471ZM178.14 10.1789V2.74807H179.177L179.233 4.62681L179.121 4.58475C179.214 3.94915 179.415 3.48648 179.724 3.19672C180.042 2.89762 180.462 2.74807 180.986 2.74807H181.715V3.8697H181C180.626 3.8697 180.313 3.93981 180.06 4.08001C179.817 4.21087 179.63 4.41183 179.499 4.68289C179.378 4.94461 179.317 5.2811 179.317 5.69236V10.1789H178.14ZM183.027 10.1789V2.74807H184.205V10.1789H183.027ZM182.999 1.58437V0.210369H184.233V1.58437H182.999ZM186.587 12.282V2.74807H187.681L187.709 4.3464L187.541 4.26228C187.728 3.71081 188.036 3.29487 188.466 3.01446C188.905 2.7247 189.41 2.57982 189.98 2.57982C190.719 2.57982 191.322 2.76209 191.789 3.12662C192.266 3.49115 192.616 3.96785 192.84 4.55671C193.074 5.14556 193.191 5.78116 193.191 6.46349C193.191 7.14582 193.074 7.78141 192.84 8.37027C192.616 8.95913 192.266 9.43582 191.789 9.80035C191.322 10.1649 190.719 10.3471 189.98 10.3471C189.597 10.3471 189.237 10.2817 188.901 10.1509C188.574 10.02 188.293 9.83774 188.06 9.60407C187.835 9.37039 187.681 9.09466 187.597 8.77686L187.765 8.58057V12.282H186.587ZM189.868 9.22551C190.513 9.22551 191.023 8.98249 191.396 8.49645C191.77 8.01041 191.957 7.33275 191.957 6.46349C191.957 5.59422 191.77 4.91656 191.396 4.43052C191.023 3.94448 190.513 3.70146 189.868 3.70146C189.438 3.70146 189.064 3.80428 188.747 4.00991C188.438 4.21554 188.195 4.52399 188.017 4.93526C187.849 5.34652 187.765 5.85593 187.765 6.46349C187.765 7.07104 187.849 7.58045 188.017 7.99172C188.186 8.40298 188.429 8.71143 188.747 8.91706C189.064 9.1227 189.438 9.22551 189.868 9.22551ZM197.221 10.1789C196.548 10.1789 196.048 10.0247 195.721 9.71623C195.403 9.40778 195.244 8.92641 195.244 8.27212V1.00953H196.422V8.24408C196.422 8.58057 196.497 8.81425 196.646 8.94511C196.796 9.07596 197.025 9.14139 197.333 9.14139H198.399V10.1789H197.221ZM194.151 3.78558V2.74807H198.399V3.78558H194.151ZM199.91 10.1789V2.74807H201.087V10.1789H199.91ZM199.881 1.58437V0.210369H201.115V1.58437H199.881ZM206.098 10.3471C205.415 10.3471 204.817 10.1883 204.303 9.87045C203.789 9.55266 203.392 9.104 203.111 8.52449C202.831 7.93563 202.691 7.24863 202.691 6.46349C202.691 5.66899 202.831 4.98199 203.111 4.40248C203.392 3.82297 203.789 3.37432 204.303 3.05652C204.817 2.73872 205.415 2.57982 206.098 2.57982C206.78 2.57982 207.374 2.73872 207.878 3.05652C208.392 3.37432 208.79 3.82297 209.07 4.40248C209.351 4.98199 209.491 5.66899 209.491 6.46349C209.491 7.24863 209.351 7.93563 209.07 8.52449C208.79 9.104 208.392 9.55266 207.878 9.87045C207.374 10.1883 206.78 10.3471 206.098 10.3471ZM206.098 9.22551C206.78 9.22551 207.308 8.98249 207.682 8.49645C208.065 8.00106 208.257 7.32341 208.257 6.46349C208.257 5.60357 208.065 4.93058 207.682 4.44454C207.308 3.94915 206.78 3.70146 206.098 3.70146C205.415 3.70146 204.883 3.94915 204.499 4.44454C204.116 4.93058 203.925 5.60357 203.925 6.46349C203.925 7.32341 204.116 8.00106 204.499 8.49645C204.883 8.98249 205.415 9.22551 206.098 9.22551ZM211.096 10.1789V2.74807H212.175L212.217 4.64083L212.077 4.51465C212.171 4.07534 212.334 3.71548 212.568 3.43507C212.802 3.14531 213.082 2.93033 213.409 2.79013C213.746 2.64993 214.105 2.57982 214.489 2.57982C215.059 2.57982 215.526 2.70601 215.891 2.95838C216.265 3.21074 216.54 3.55191 216.718 3.98187C216.905 4.40248 216.998 4.8745 216.998 5.39793V10.1789H215.821V5.73442C215.821 5.27642 215.765 4.8932 215.652 4.58475C215.55 4.26695 215.381 4.0286 215.148 3.8697C214.914 3.70146 214.61 3.61734 214.236 3.61734C213.666 3.61734 213.194 3.7996 212.82 4.16413C212.456 4.51932 212.273 5.04275 212.273 5.73442V10.1789H211.096Z" fill="white"/>
<defs>
<radialGradient id="paint0_radial_176_695" cx="0" cy="0" r="1" gradientTransform="matrix(191.71 -4.6013 247.074 21.3738 26.8393 8.14892)" gradientUnits="userSpaceOnUse">
<stop stop-color="#6CE0FF"/>
<stop offset="1" stop-color="#A4A0FF"/>
</radialGradient>
</defs>
</svg>
