<svg width="897" height="112" viewBox="0 0 897 112" fill="none" xmlns="http://www.w3.org/2000/svg">
<path d="M47.3459 40.6771V7.22775H35.2436V0.896468H66.6759V7.22775H54.6297V40.6771H47.3459ZM70.011 40.6771V0.896468H77.1827V17.5931H76.2862C76.585 15.8749 77.1827 14.4742 78.0792 13.3909C78.9756 12.2704 80.0775 11.4486 81.3849 10.9257C82.6922 10.3654 84.1303 10.0852 85.6991 10.0852C87.9029 10.0852 89.7519 10.5708 91.246 11.542C92.7774 12.4758 93.9167 13.8018 94.6637 15.52C95.4482 17.2383 95.8404 19.218 95.8404 21.4591V40.6771H88.6686V23.196C88.6686 20.7681 88.2578 18.9565 87.436 17.7612C86.6142 16.5286 85.3256 15.9123 83.57 15.9123C81.6277 15.9123 80.0775 16.5472 78.9196 17.8172C77.7617 19.0872 77.1827 20.9362 77.1827 23.3641V40.6771H70.011ZM115.893 41.3494C112.904 41.3494 110.308 40.7144 108.105 39.4444C105.901 38.1371 104.201 36.3068 103.006 33.9536C101.811 31.6004 101.213 28.855 101.213 25.7173C101.213 22.5797 101.811 19.853 103.006 17.5371C104.201 15.1839 105.882 13.3536 108.049 12.0462C110.252 10.7389 112.811 10.0852 115.725 10.0852C118.563 10.0852 121.047 10.7202 123.176 11.9902C125.343 13.2602 127.005 15.0905 128.163 17.4811C129.321 19.8716 129.9 22.7478 129.9 26.1095V27.7344H108.665C108.814 30.3491 109.524 32.3288 110.794 33.6735C112.101 34.9808 113.82 35.6345 115.949 35.6345C117.555 35.6345 118.881 35.2796 119.927 34.5699C121.01 33.8229 121.757 32.7957 122.168 31.4883L129.508 31.9366C128.686 34.8501 127.061 37.1473 124.633 38.8281C122.243 40.509 119.329 41.3494 115.893 41.3494ZM108.665 22.9159H122.504C122.355 20.488 121.664 18.695 120.431 17.5371C119.198 16.3418 117.63 15.7442 115.725 15.7442C113.82 15.7442 112.232 16.3605 110.962 17.5931C109.729 18.8258 108.964 20.6 108.665 22.9159ZM152.432 40.6771V9.58097C152.432 6.89158 153.179 4.78115 154.673 3.24969C156.204 1.68087 158.539 0.896468 161.677 0.896468H167.504V6.44334H163.021C161.863 6.44334 161.004 6.74217 160.444 7.33981C159.921 7.93745 159.66 8.81524 159.66 9.97317V40.6771H152.432ZM148.174 17.0889V11.542H167.111V17.0889H148.174ZM183.176 41.3494C180.15 41.3494 177.741 40.3596 175.948 38.3799C174.192 36.3628 173.315 33.5801 173.315 30.0316V10.7576H180.486V28.2386C180.486 30.7413 180.897 32.5902 181.719 33.7855C182.578 34.9434 183.867 35.5224 185.585 35.5224C187.527 35.5224 189.021 34.8874 190.067 33.6174C191.15 32.3101 191.692 30.4238 191.692 27.9585V10.7576H198.864V40.6771H192.308L192.14 32.4408L193.037 32.721C192.588 35.5598 191.524 37.7075 189.843 39.1643C188.162 40.6211 185.94 41.3494 183.176 41.3494ZM217.423 40.6771C214.435 40.6771 212.231 39.9861 210.811 38.604C209.429 37.222 208.738 35.0555 208.738 32.1046V3.75395H215.91V31.4323C215.91 32.8143 216.209 33.7855 216.807 34.3458C217.404 34.8687 218.338 35.1302 219.608 35.1302H223.81V40.6771H217.423ZM204.032 16.3045V10.7576H223.81V16.3045H204.032ZM239.041 41.3494C236.015 41.3494 233.606 40.3596 231.813 38.3799C230.057 36.3628 229.179 33.5801 229.179 30.0316V10.7576H236.351V28.2386C236.351 30.7413 236.762 32.5902 237.584 33.7855C238.443 34.9434 239.732 35.5224 241.45 35.5224C243.392 35.5224 244.886 34.8874 245.932 33.6174C247.015 32.3101 247.557 30.4238 247.557 27.9585V10.7576H254.729V40.6771H248.173L248.005 32.4408L248.902 32.721C248.453 35.5598 247.389 37.7075 245.708 39.1643C244.027 40.6211 241.805 41.3494 239.041 41.3494ZM262.611 40.6771V10.7576H269.334L269.614 19.0499L268.998 18.9378C269.446 16.0617 270.287 13.9886 271.519 12.7186C272.789 11.4113 274.508 10.7576 276.674 10.7576H279.419V16.9208H276.618C275.087 16.9208 273.817 17.1449 272.808 17.5931C271.8 18.0414 271.034 18.7511 270.511 19.7222C270.025 20.656 269.782 21.8887 269.782 23.4201V40.6771H262.611ZM296.236 41.3494C293.248 41.3494 290.652 40.7144 288.448 39.4444C286.244 38.1371 284.545 36.3068 283.349 33.9536C282.154 31.6004 281.556 28.855 281.556 25.7173C281.556 22.5797 282.154 19.853 283.349 17.5371C284.545 15.1839 286.226 13.3536 288.392 12.0462C290.596 10.7389 293.154 10.0852 296.068 10.0852C298.907 10.0852 301.391 10.7202 303.52 11.9902C305.686 13.2602 307.349 15.0905 308.506 17.4811C309.664 19.8716 310.243 22.7478 310.243 26.1095V27.7344H289.008C289.158 30.3491 289.867 32.3288 291.137 33.6735C292.445 34.9808 294.163 35.6345 296.292 35.6345C297.898 35.6345 299.224 35.2796 300.27 34.5699C301.353 33.8229 302.1 32.7957 302.511 31.4883L309.851 31.9366C309.029 34.8501 307.405 37.1473 304.977 38.8281C302.586 40.509 299.673 41.3494 296.236 41.3494ZM289.008 22.9159H302.848C302.698 20.488 302.007 18.695 300.774 17.5371C299.542 16.3418 297.973 15.7442 296.068 15.7442C294.163 15.7442 292.576 16.3605 291.306 17.5931C290.073 18.8258 289.307 20.6 289.008 22.9159ZM342.636 41.3494C339.686 41.3494 337.09 40.7144 334.848 39.4444C332.645 38.1371 330.926 36.3068 329.694 33.9536C328.498 31.6004 327.901 28.855 327.901 25.7173C327.901 22.5424 328.498 19.7969 329.694 17.4811C330.926 15.1278 332.645 13.3162 334.848 12.0462C337.09 10.7389 339.686 10.0852 342.636 10.0852C345.587 10.0852 348.165 10.7389 350.368 12.0462C352.572 13.3162 354.272 15.1278 355.467 17.4811C356.7 19.7969 357.316 22.5424 357.316 25.7173C357.316 28.855 356.7 31.6004 355.467 33.9536C354.272 36.3068 352.572 38.1371 350.368 39.4444C348.165 40.7144 345.587 41.3494 342.636 41.3494ZM342.636 35.5224C344.952 35.5224 346.727 34.6633 347.959 32.9451C349.229 31.2269 349.864 28.8176 349.864 25.7173C349.864 22.6544 349.229 20.2638 347.959 18.5456C346.727 16.79 344.952 15.9123 342.636 15.9123C340.321 15.9123 338.528 16.79 337.258 18.5456C335.988 20.2638 335.353 22.6544 335.353 25.7173C335.353 28.8176 335.988 31.2269 337.258 32.9451C338.528 34.6633 340.321 35.5224 342.636 35.5224ZM364.839 40.6771V9.58097C364.839 6.89158 365.586 4.78115 367.08 3.24969C368.611 1.68087 370.946 0.896468 374.084 0.896468H379.911V6.44334H375.428C374.27 6.44334 373.411 6.74217 372.851 7.33981C372.328 7.93745 372.067 8.81524 372.067 9.97317V40.6771H364.839ZM360.581 17.0889V11.542H379.518V17.0889H360.581ZM399.523 40.6771V0.896468H412.746C419.096 0.896468 423.97 2.63337 427.369 6.10717C430.806 9.54362 432.524 14.4555 432.524 20.8428C432.524 27.1928 430.843 32.086 427.481 35.5224C424.12 38.9589 419.32 40.6771 413.082 40.6771H399.523ZM406.807 34.3458H412.746C416.892 34.3458 419.974 33.2252 421.991 30.9841C424.008 28.7429 425.016 25.3625 425.016 20.8428C425.016 16.2484 424.008 12.8307 421.991 10.5895C419.974 8.34833 416.892 7.22775 412.746 7.22775H406.807V34.3458ZM452.286 41.3494C449.297 41.3494 446.701 40.7144 444.498 39.4444C442.294 38.1371 440.594 36.3068 439.399 33.9536C438.204 31.6004 437.606 28.855 437.606 25.7173C437.606 22.5797 438.204 19.853 439.399 17.5371C440.594 15.1839 442.275 13.3536 444.442 12.0462C446.645 10.7389 449.204 10.0852 452.118 10.0852C454.956 10.0852 457.44 10.7202 459.569 11.9902C461.736 13.2602 463.398 15.0905 464.556 17.4811C465.714 19.8716 466.293 22.7478 466.293 26.1095V27.7344H445.058C445.207 30.3491 445.917 32.3288 447.187 33.6735C448.494 34.9808 450.213 35.6345 452.342 35.6345C453.948 35.6345 455.274 35.2796 456.32 34.5699C457.403 33.8229 458.15 32.7957 458.561 31.4883L465.901 31.9366C465.079 34.8501 463.454 37.1473 461.026 38.8281C458.636 40.509 455.722 41.3494 452.286 41.3494ZM445.058 22.9159H458.897C458.748 20.488 458.057 18.695 456.824 17.5371C455.591 16.3418 454.023 15.7442 452.118 15.7442C450.213 15.7442 448.625 16.3605 447.355 17.5931C446.123 18.8258 445.357 20.6 445.058 22.9159ZM479.04 40.6771L468.114 10.7576H475.678L483.298 33.4493L490.918 10.7576H498.482L487.556 40.6771H479.04ZM520.184 41.5736C516.262 41.5736 512.881 40.7518 510.042 39.1083C507.204 37.4274 505.019 35.0368 503.487 31.9366C501.993 28.8363 501.246 25.1384 501.246 20.8428C501.246 16.5472 501.993 12.8493 503.487 9.74906C505.019 6.61143 507.204 4.20218 510.042 2.52131C512.881 0.84044 516.262 5.24793e-06 520.184 5.24793e-06C524.18 5.24793e-06 527.58 0.84044 530.381 2.52131C533.22 4.20218 535.386 6.61143 536.88 9.74906C538.412 12.8493 539.178 16.5472 539.178 20.8428C539.178 25.1384 538.412 28.8363 536.88 31.9366C535.386 35.0368 533.22 37.4274 530.381 39.1083C527.58 40.7518 524.18 41.5736 520.184 41.5736ZM520.184 35.2423C522.612 35.2423 524.666 34.682 526.347 33.5614C528.065 32.4035 529.372 30.7599 530.269 28.6308C531.203 26.4644 531.67 23.8684 531.67 20.8428C531.67 17.8172 531.203 15.2212 530.269 13.0548C529.372 10.8883 528.065 9.22612 526.347 8.06819C524.666 6.91025 522.612 6.33128 520.184 6.33128C517.83 6.33128 515.795 6.91025 514.077 8.06819C512.358 9.22612 511.032 10.8883 510.098 13.0548C509.202 15.2212 508.754 17.8172 508.754 20.8428C508.754 23.8684 509.202 26.4644 510.098 28.6308C511.032 30.7599 512.358 32.4035 514.077 33.5614C515.795 34.682 517.83 35.2423 520.184 35.2423ZM545.492 49.0814V10.7576H552.383L552.551 17.1449L551.823 16.8087C552.57 14.6049 553.784 12.9427 555.465 11.8221C557.183 10.6642 559.182 10.0852 561.46 10.0852C564.299 10.0852 566.652 10.7949 568.52 12.2143C570.425 13.6337 571.844 15.52 572.778 17.8733C573.712 20.2265 574.179 22.8412 574.179 25.7173C574.179 28.5935 573.693 31.2082 572.722 33.5614C571.788 35.9146 570.369 37.8009 568.464 39.2203C566.596 40.6397 564.243 41.3494 561.404 41.3494C559.91 41.3494 558.509 41.088 557.202 40.565C555.932 40.0421 554.83 39.295 553.896 38.3239C553 37.3527 552.365 36.2134 551.991 34.9061L552.663 34.3458V49.0814H545.492ZM559.723 35.5224C561.89 35.5224 563.589 34.6633 564.822 32.9451C566.092 31.1895 566.727 28.7803 566.727 25.7173C566.727 22.6544 566.092 20.2638 564.822 18.5456C563.589 16.79 561.89 15.9123 559.723 15.9123C558.266 15.9123 557.015 16.2858 555.969 17.0328C554.923 17.7425 554.102 18.8258 553.504 20.2825C552.944 21.7393 552.663 23.5509 552.663 25.7173C552.663 27.8838 552.944 29.6954 553.504 31.1521C554.064 32.6089 554.867 33.7108 555.913 34.4579C556.996 35.1676 558.266 35.5224 559.723 35.5224ZM591.902 41.3494C588.951 41.3494 586.467 40.9199 584.45 40.0608C582.471 39.2017 580.939 38.0064 579.856 36.4749C578.773 34.9434 578.156 33.2065 578.007 31.2642L585.347 30.928C585.608 32.4968 586.262 33.7108 587.308 34.5699C588.354 35.429 589.904 35.8586 591.958 35.8586C593.639 35.8586 594.946 35.5971 595.88 35.0742C596.851 34.5139 597.337 33.6548 597.337 32.4968C597.337 31.8245 597.169 31.2642 596.833 30.816C596.497 30.3677 595.862 29.9755 594.928 29.6394C593.994 29.3032 592.612 28.967 590.782 28.6308C587.719 28.1079 585.309 27.4729 583.554 26.7259C581.798 25.9414 580.547 24.9703 579.8 23.8123C579.09 22.6544 578.735 21.2163 578.735 19.4981C578.735 16.6967 579.8 14.4368 581.929 12.7186C584.095 10.963 587.252 10.0852 591.398 10.0852C594.087 10.0852 596.347 10.5335 598.177 11.4299C600.008 12.289 601.427 13.4843 602.436 15.0158C603.482 16.5099 604.135 18.2281 604.397 20.1705L597.169 20.5066C596.982 19.4981 596.646 18.6203 596.16 17.8733C595.675 17.1262 595.021 16.5659 594.199 16.1924C593.378 15.7815 592.406 15.5761 591.286 15.5761C589.605 15.5761 588.335 15.9123 587.476 16.5846C586.617 17.2569 586.187 18.1534 586.187 19.274C586.187 20.0584 586.374 20.7121 586.748 21.235C587.158 21.7579 587.812 22.1875 588.709 22.5237C589.605 22.8225 590.8 23.1026 592.294 23.3641C595.432 23.8497 597.897 24.4847 599.69 25.2691C601.52 26.0162 602.809 26.9873 603.556 28.1826C604.341 29.3405 604.733 30.7413 604.733 32.3848C604.733 34.2898 604.191 35.9146 603.108 37.2593C602.062 38.604 600.568 39.6312 598.626 40.3409C596.721 41.0133 594.48 41.3494 591.902 41.3494ZM624.118 40.6771V10.7576H631.29V40.6771H624.118ZM624.006 6.77952V0.392207H631.458V6.77952H624.006ZM650.776 41.3494C647.826 41.3494 645.342 40.9199 643.325 40.0608C641.345 39.2017 639.813 38.0064 638.73 36.4749C637.647 34.9434 637.031 33.2065 636.881 31.2642L644.221 30.928C644.483 32.4968 645.136 33.7108 646.182 34.5699C647.228 35.429 648.778 35.8586 650.832 35.8586C652.513 35.8586 653.821 35.5971 654.754 35.0742C655.726 34.5139 656.211 33.6548 656.211 32.4968C656.211 31.8245 656.043 31.2642 655.707 30.816C655.371 30.3677 654.736 29.9755 653.802 29.6394C652.868 29.3032 651.486 28.967 649.656 28.6308C646.593 28.1079 644.184 27.4729 642.428 26.7259C640.673 25.9414 639.421 24.9703 638.674 23.8123C637.964 22.6544 637.61 21.2163 637.61 19.4981C637.61 16.6967 638.674 14.4368 640.803 12.7186C642.97 10.963 646.126 10.0852 650.272 10.0852C652.962 10.0852 655.221 10.5335 657.052 11.4299C658.882 12.289 660.301 13.4843 661.31 15.0158C662.356 16.5099 663.009 18.2281 663.271 20.1705L656.043 20.5066C655.856 19.4981 655.52 18.6203 655.035 17.8733C654.549 17.1262 653.895 16.5659 653.074 16.1924C652.252 15.7815 651.281 15.5761 650.16 15.5761C648.479 15.5761 647.209 15.9123 646.35 16.5846C645.491 17.2569 645.061 18.1534 645.061 19.274C645.061 20.0584 645.248 20.7121 645.622 21.235C646.033 21.7579 646.686 22.1875 647.583 22.5237C648.479 22.8225 649.675 23.1026 651.169 23.3641C654.306 23.8497 656.772 24.4847 658.564 25.2691C660.395 26.0162 661.683 26.9873 662.43 28.1826C663.215 29.3405 663.607 30.7413 663.607 32.3848C663.607 34.2898 663.065 35.9146 661.982 37.2593C660.936 38.604 659.442 39.6312 657.5 40.3409C655.595 41.0133 653.354 41.3494 650.776 41.3494ZM682.993 40.6771V0.896468H690.164V17.5931H689.268C689.567 15.8749 690.164 14.4742 691.061 13.3909C691.957 12.2704 693.059 11.4486 694.367 10.9257C695.674 10.3654 697.112 10.0852 698.681 10.0852C700.885 10.0852 702.734 10.5708 704.228 11.542C705.759 12.4758 706.898 13.8018 707.645 15.52C708.43 17.2383 708.822 19.218 708.822 21.4591V40.6771H701.65V23.196C701.65 20.7681 701.239 18.9565 700.418 17.7612C699.596 16.5286 698.307 15.9123 696.552 15.9123C694.609 15.9123 693.059 16.5472 691.901 17.8172C690.743 19.0872 690.164 20.9362 690.164 23.3641V40.6771H682.993ZM725.793 41.3494C722.767 41.3494 720.358 40.3596 718.565 38.3799C716.809 36.3628 715.932 33.5801 715.932 30.0316V10.7576H723.103V28.2386C723.103 30.7413 723.514 32.5902 724.336 33.7855C725.195 34.9434 726.484 35.5224 728.202 35.5224C730.144 35.5224 731.638 34.8874 732.684 33.6174C733.768 32.3101 734.309 30.4238 734.309 27.9585V10.7576H741.481V40.6771H734.925L734.757 32.4408L735.654 32.721C735.206 35.5598 734.141 37.7075 732.46 39.1643C730.779 40.6211 728.557 41.3494 725.793 41.3494ZM749.363 40.6771V10.7576H755.862L756.087 18.0974L755.414 17.7612C755.75 16.155 756.329 14.7917 757.151 13.6711C758.01 12.5132 759.037 11.6354 760.233 11.0377C761.465 10.4027 762.81 10.0852 764.267 10.0852C766.807 10.0852 768.861 10.8136 770.43 12.2704C771.999 13.6898 772.989 15.6508 773.399 18.1534H772.447C772.783 16.3978 773.362 14.9411 774.184 13.7831C775.006 12.5879 776.033 11.6727 777.265 11.0377C778.535 10.4027 779.955 10.0852 781.524 10.0852C783.578 10.0852 785.352 10.5335 786.846 11.4299C788.341 12.289 789.48 13.559 790.264 15.2399C791.086 16.9208 791.497 18.9938 791.497 21.4591V40.6771H784.325V23.3081C784.325 20.8428 783.896 18.9938 783.036 17.7612C782.215 16.5286 780.945 15.9123 779.227 15.9123C778.069 15.9123 777.079 16.2111 776.257 16.8087C775.435 17.4064 774.8 18.2841 774.352 19.4421C773.941 20.5627 773.736 21.926 773.736 23.5322V40.6771H767.068V23.5322C767.068 21.0669 766.695 19.1806 765.948 17.8733C765.201 16.5659 763.912 15.9123 762.082 15.9123C760.924 15.9123 759.934 16.2111 759.112 16.8087C758.328 17.4064 757.693 18.2841 757.207 19.4421C756.759 20.5627 756.535 21.926 756.535 23.5322V40.6771H749.363ZM807.347 41.3494C804.209 41.3494 801.688 40.6397 799.783 39.2203C797.878 37.7636 796.925 35.7465 796.925 33.1692C796.925 30.5919 797.728 28.5748 799.334 27.1181C800.941 25.6613 803.387 24.6154 806.674 23.9804L816.591 22.0194C816.591 19.8903 816.106 18.3028 815.135 17.2569C814.163 16.1737 812.725 15.6321 810.82 15.6321C809.102 15.6321 807.739 16.043 806.73 16.8647C805.759 17.6492 805.087 18.7884 804.713 20.2825L797.429 19.9463C798.027 16.7714 799.484 14.3434 801.8 12.6626C804.116 10.9443 807.122 10.0852 810.82 10.0852C815.079 10.0852 818.291 11.1685 820.457 13.3349C822.661 15.464 823.763 18.5269 823.763 22.5237V33.3933C823.763 34.1777 823.894 34.7193 824.155 35.0182C824.454 35.317 824.884 35.4664 825.444 35.4664H826.396V40.6771C826.172 40.7518 825.799 40.8078 825.276 40.8452C824.79 40.8825 824.286 40.9012 823.763 40.9012C822.53 40.9012 821.428 40.7144 820.457 40.3409C819.486 39.93 818.739 39.239 818.216 38.2678C817.693 37.2593 817.432 35.8959 817.432 34.1777L818.048 34.6259C817.749 35.9333 817.096 37.1099 816.087 38.1558C815.116 39.1643 813.883 39.9487 812.389 40.509C810.895 41.0693 809.214 41.3494 807.347 41.3494ZM808.803 36.1387C810.409 36.1387 811.791 35.8212 812.949 35.1862C814.107 34.5512 815.004 33.6735 815.639 32.5529C816.274 31.4323 816.591 30.1063 816.591 28.5748V26.8939L808.859 28.4628C807.253 28.7989 806.095 29.3032 805.385 29.9755C804.713 30.6105 804.377 31.451 804.377 32.4968C804.377 33.6548 804.75 34.5512 805.498 35.1862C806.282 35.8212 807.384 36.1387 808.803 36.1387ZM831.054 40.6771V10.7576H837.553L837.833 19.1619L836.993 18.8258C837.292 16.734 837.908 15.0531 838.842 13.7831C839.776 12.5132 840.915 11.5793 842.26 10.9817C843.604 10.3841 845.08 10.0852 846.686 10.0852C848.89 10.0852 850.739 10.5708 852.233 11.542C853.764 12.5132 854.922 13.8579 855.707 15.5761C856.491 17.2569 856.883 19.218 856.883 21.4591V40.6771H849.711V23.7563C849.711 22.0754 849.543 20.656 849.207 19.4981C848.871 18.3402 848.311 17.4624 847.526 16.8647C846.779 16.2297 845.771 15.9123 844.501 15.9123C842.596 15.9123 841.064 16.5846 839.906 17.9293C838.786 19.274 838.226 21.2163 838.226 23.7563V40.6771H831.054ZM0.111464 102.709V72.7897H7.28318V102.709H0.111464ZM-0.000593851 68.8117V62.4244H7.45127V68.8117H-0.000593851ZM15.5961 102.709V72.7897H22.0954L22.3756 81.1941L21.5351 80.8579C21.834 78.7662 22.4503 77.0853 23.3841 75.8153C24.3179 74.5453 25.4572 73.6115 26.8019 73.0138C28.1466 72.4162 29.622 72.1174 31.2282 72.1174C33.432 72.1174 35.2809 72.603 36.775 73.5741C38.3065 74.5453 39.4644 75.89 40.2488 77.6082C41.0332 79.2891 41.4254 81.2501 41.4254 83.4913V102.709H34.2537V85.7885C34.2537 84.1076 34.0856 82.6882 33.7495 81.5303C33.4133 80.3723 32.853 79.4945 32.0686 78.8969C31.3215 78.2619 30.313 77.9444 29.043 77.9444C27.138 77.9444 25.6066 78.6167 24.4486 79.9614C23.3281 81.3061 22.7678 83.2485 22.7678 85.7885V102.709H15.5961ZM59.1573 102.709C56.1691 102.709 53.9653 102.018 52.5459 100.636C51.1638 99.2541 50.4728 97.0877 50.4728 94.1368V65.7861H57.6445V93.4644C57.6445 94.8465 57.9434 95.8177 58.541 96.378C59.1386 96.9009 60.0725 97.1624 61.3424 97.1624H65.5446V102.709H59.1573ZM45.7664 78.3366V72.7897H65.5446V78.3366H45.7664ZM80.7749 103.382C77.7493 103.382 75.3401 102.392 73.5471 100.412C71.7916 98.395 70.9138 95.6122 70.9138 92.0637V72.7897H78.0855V90.2708C78.0855 92.7734 78.4964 94.6224 79.3181 95.8177C80.1772 96.9756 81.4659 97.5546 83.1841 97.5546C85.1265 97.5546 86.6206 96.9196 87.6665 95.6496C88.7497 94.3422 89.2913 92.4559 89.2913 89.9906V72.7897H96.463V102.709H89.9076L89.7395 94.473L90.636 94.7531C90.1878 97.5919 89.1232 99.7397 87.4423 101.196C85.7615 102.653 83.539 103.382 80.7749 103.382ZM103.798 102.709V72.7897H110.97V102.709H103.798ZM103.686 68.8117V62.4244H111.138V68.8117H103.686ZM128.975 102.709C125.987 102.709 123.783 102.018 122.363 100.636C120.981 99.2541 120.29 97.0877 120.29 94.1368V65.7861H127.462V93.4644C127.462 94.8465 127.761 95.8177 128.358 96.378C128.956 96.9009 129.89 97.1624 131.16 97.1624H135.362V102.709H128.975ZM115.584 78.3366V72.7897H135.362V78.3366H115.584ZM140.622 102.709V72.7897H147.793V102.709H140.622ZM140.51 68.8117V62.4244H147.962V68.8117H140.51ZM168.12 103.382C165.169 103.382 162.573 102.747 160.332 101.477C158.128 100.169 156.41 98.339 155.178 95.9857C153.982 93.6325 153.385 90.8871 153.385 87.7495C153.385 84.5745 153.982 81.8291 155.178 79.5132C156.41 77.16 158.128 75.3484 160.332 74.0784C162.573 72.771 165.169 72.1174 168.12 72.1174C171.071 72.1174 173.648 72.771 175.852 74.0784C178.056 75.3484 179.756 77.16 180.951 79.5132C182.184 81.8291 182.8 84.5745 182.8 87.7495C182.8 90.8871 182.184 93.6325 180.951 95.9857C179.756 98.339 178.056 100.169 175.852 101.477C173.648 102.747 171.071 103.382 168.12 103.382ZM168.12 97.5546C170.436 97.5546 172.21 96.6954 173.443 94.9772C174.713 93.259 175.348 90.8498 175.348 87.7495C175.348 84.6866 174.713 82.296 173.443 80.5778C172.21 78.8222 170.436 77.9444 168.12 77.9444C165.804 77.9444 164.011 78.8222 162.741 80.5778C161.471 82.296 160.836 84.6866 160.836 87.7495C160.836 90.8498 161.471 93.259 162.741 94.9772C164.011 96.6954 165.804 97.5546 168.12 97.5546ZM188.334 102.709V72.7897H194.833L195.114 81.1941L194.273 80.8579C194.572 78.7662 195.188 77.0853 196.122 75.8153C197.056 74.5453 198.195 73.6115 199.54 73.0138C200.885 72.4162 202.36 72.1174 203.966 72.1174C206.17 72.1174 208.019 72.603 209.513 73.5741C211.044 74.5453 212.202 75.89 212.987 77.6082C213.771 79.2891 214.163 81.2501 214.163 83.4913V102.709H206.992V85.7885C206.992 84.1076 206.824 82.6882 206.487 81.5303C206.151 80.3723 205.591 79.4945 204.807 78.8969C204.059 78.2619 203.051 77.9444 201.781 77.9444C199.876 77.9444 198.345 78.6167 197.187 79.9614C196.066 81.3061 195.506 83.2485 195.506 85.7885V102.709H188.334ZM235.225 111.114V72.7897H242.117L242.285 79.177L241.557 78.8409C242.304 76.6371 243.518 74.9749 245.199 73.8543C246.917 72.6963 248.915 72.1174 251.194 72.1174C254.033 72.1174 256.386 72.8271 258.253 74.2465C260.158 75.6659 261.578 77.5522 262.512 79.9054C263.445 82.2586 263.912 84.8733 263.912 87.7495C263.912 90.6256 263.427 93.2403 262.456 95.5935C261.522 97.9468 260.102 99.8331 258.197 101.252C256.33 102.672 253.977 103.382 251.138 103.382C249.644 103.382 248.243 103.12 246.936 102.597C245.666 102.074 244.564 101.327 243.63 100.356C242.733 99.3848 242.098 98.2456 241.725 96.9382L242.397 96.378V111.114H235.225ZM249.457 97.5546C251.623 97.5546 253.323 96.6954 254.556 94.9772C255.826 93.2216 256.46 90.8124 256.46 87.7495C256.46 84.6866 255.826 82.296 254.556 80.5778C253.323 78.8222 251.623 77.9444 249.457 77.9444C248 77.9444 246.749 78.3179 245.703 79.065C244.657 79.7747 243.835 80.8579 243.238 82.3147C242.677 83.7714 242.397 85.583 242.397 87.7495C242.397 89.9159 242.677 91.7275 243.238 93.1843C243.798 94.6411 244.601 95.743 245.647 96.49C246.73 97.1997 248 97.5546 249.457 97.5546ZM282.476 103.382C279.525 103.382 276.929 102.747 274.688 101.477C272.485 100.169 270.766 98.339 269.534 95.9857C268.338 93.6325 267.741 90.8871 267.741 87.7495C267.741 84.5745 268.338 81.8291 269.534 79.5132C270.766 77.16 272.485 75.3484 274.688 74.0784C276.929 72.771 279.525 72.1174 282.476 72.1174C285.427 72.1174 288.005 72.771 290.208 74.0784C292.412 75.3484 294.112 77.16 295.307 79.5132C296.54 81.8291 297.156 84.5745 297.156 87.7495C297.156 90.8871 296.54 93.6325 295.307 95.9857C294.112 98.339 292.412 100.169 290.208 101.477C288.005 102.747 285.427 103.382 282.476 103.382ZM282.476 97.5546C284.792 97.5546 286.566 96.6954 287.799 94.9772C289.069 93.259 289.704 90.8498 289.704 87.7495C289.704 84.6866 289.069 82.296 287.799 80.5778C286.566 78.8222 284.792 77.9444 282.476 77.9444C280.16 77.9444 278.368 78.8222 277.098 80.5778C275.828 82.296 275.193 84.6866 275.193 87.7495C275.193 90.8498 275.828 93.259 277.098 94.9772C278.368 96.6954 280.16 97.5546 282.476 97.5546ZM307.926 102.709L298.905 72.7897H306.245L312.072 94.585L318.067 72.7897H324.342L330.393 94.585L336.22 72.7897H343.56L334.54 102.709H327.144L321.205 82.6508L315.322 102.709H307.926ZM360.007 103.382C357.019 103.382 354.423 102.747 352.219 101.477C350.016 100.169 348.316 98.339 347.121 95.9857C345.925 93.6325 345.328 90.8871 345.328 87.7495C345.328 84.6119 345.925 81.8851 347.121 79.5692C348.316 77.216 349.997 75.3857 352.163 74.0784C354.367 72.771 356.926 72.1174 359.839 72.1174C362.678 72.1174 365.162 72.7524 367.291 74.0224C369.458 75.2924 371.12 77.1226 372.278 79.5132C373.436 81.9038 374.015 84.7799 374.015 88.1417V89.7665H352.78C352.929 92.3812 353.639 94.3609 354.909 95.7056C356.216 97.0129 357.934 97.6666 360.063 97.6666C361.67 97.6666 362.996 97.3118 364.041 96.6021C365.125 95.855 365.872 94.8278 366.283 93.5205L373.622 93.9687C372.801 96.8822 371.176 99.1794 368.748 100.86C366.357 102.541 363.444 103.382 360.007 103.382ZM352.78 84.948H366.619C366.469 82.5201 365.778 80.7272 364.546 79.5692C363.313 78.374 361.744 77.7763 359.839 77.7763C357.934 77.7763 356.347 78.3926 355.077 79.6253C353.844 80.8579 353.078 82.6322 352.78 84.948ZM379.621 102.709V72.7897H386.344L386.624 81.082L386.008 80.97C386.456 78.0938 387.297 76.0207 388.529 74.7507C389.799 73.4434 391.517 72.7897 393.684 72.7897H396.429V78.9529H393.628C392.096 78.9529 390.826 79.177 389.818 79.6253C388.809 80.0735 388.044 80.7832 387.521 81.7544C387.035 82.6882 386.792 83.9208 386.792 85.4523V102.709H379.621ZM413.246 103.382C410.258 103.382 407.662 102.747 405.458 101.477C403.254 100.169 401.555 98.339 400.359 95.9857C399.164 93.6325 398.566 90.8871 398.566 87.7495C398.566 84.6119 399.164 81.8851 400.359 79.5692C401.555 77.216 403.235 75.3857 405.402 74.0784C407.606 72.771 410.164 72.1174 413.078 72.1174C415.917 72.1174 418.401 72.7524 420.53 74.0224C422.696 75.2924 424.358 77.1226 425.516 79.5132C426.674 81.9038 427.253 84.7799 427.253 88.1417V89.7665H406.018C406.168 92.3812 406.877 94.3609 408.147 95.7056C409.455 97.0129 411.173 97.6666 413.302 97.6666C414.908 97.6666 416.234 97.3118 417.28 96.6021C418.363 95.855 419.11 94.8278 419.521 93.5205L426.861 93.9687C426.039 96.8822 424.414 99.1794 421.986 100.86C419.596 102.541 416.682 103.382 413.246 103.382ZM406.018 84.948H419.857C419.708 82.5201 419.017 80.7272 417.784 79.5692C416.552 78.374 414.983 77.7763 413.078 77.7763C411.173 77.7763 409.585 78.3926 408.315 79.6253C407.083 80.8579 406.317 82.6322 406.018 84.948ZM443.505 103.382C440.965 103.382 438.761 102.747 436.893 101.477C435.063 100.207 433.644 98.395 432.635 96.0418C431.627 93.6886 431.122 90.9245 431.122 87.7495C431.122 84.5745 431.627 81.8104 432.635 79.4572C433.644 77.104 435.082 75.2924 436.949 74.0224C438.817 72.7524 441.002 72.1174 443.505 72.1174C445.596 72.1174 447.427 72.5469 448.996 73.406C450.602 74.2652 451.816 75.4791 452.637 77.0479V62.9286H459.809V102.709H452.974L452.805 98.2829C451.984 99.8891 450.751 101.14 449.108 102.037C447.464 102.933 445.596 103.382 443.505 103.382ZM445.69 97.5546C447.184 97.5546 448.435 97.181 449.444 96.434C450.49 95.6869 451.274 94.585 451.797 93.1283C452.357 91.6342 452.637 89.8412 452.637 87.7495C452.637 85.6204 452.357 83.8274 451.797 82.3707C451.274 80.9139 450.49 79.812 449.444 79.065C448.435 78.3179 447.184 77.9444 445.69 77.9444C443.523 77.9444 441.786 78.8222 440.479 80.5778C439.209 82.296 438.574 84.6866 438.574 87.7495C438.574 90.7377 439.209 93.1283 440.479 94.9212C441.786 96.6768 443.523 97.5546 445.69 97.5546ZM496.98 103.382C494.888 103.382 493.058 102.933 491.489 102.037C489.958 101.14 488.762 99.8891 487.903 98.2829L487.735 102.709H480.9V62.9286H488.071V77.0479C488.893 75.6659 490.07 74.5079 491.601 73.5741C493.133 72.603 494.926 72.1174 496.98 72.1174C499.557 72.1174 501.78 72.771 503.647 74.0784C505.552 75.3484 507.009 77.16 508.018 79.5132C509.064 81.8291 509.587 84.5745 509.587 87.7495C509.587 90.9245 509.064 93.6886 508.018 96.0418C507.009 98.3576 505.552 100.169 503.647 101.477C501.78 102.747 499.557 103.382 496.98 103.382ZM495.355 97.5546C497.41 97.5546 499.053 96.6954 500.286 94.9772C501.518 93.2216 502.135 90.8124 502.135 87.7495C502.135 84.6492 501.518 82.24 500.286 80.5217C499.09 78.8035 497.466 77.9444 495.411 77.9444C493.88 77.9444 492.554 78.3366 491.433 79.121C490.35 79.8681 489.509 80.97 488.912 82.4267C488.352 83.8835 488.071 85.6577 488.071 87.7495C488.071 89.7665 488.352 91.5221 488.912 93.0162C489.509 94.473 490.35 95.5935 491.433 96.378C492.516 97.1624 493.824 97.5546 495.355 97.5546ZM516.241 111.114V105.567H520.051C521.022 105.567 521.732 105.417 522.18 105.118C522.666 104.82 523.039 104.315 523.301 103.606L524.141 101.533H522.068L511.367 72.7897H518.819L526.327 94.8091L533.498 72.7897H540.95L529.24 105.847C528.568 107.714 527.615 109.059 526.383 109.881C525.187 110.703 523.506 111.114 521.34 111.114H516.241Z" fill="url(#paint0_linear_176_1114)"/>
<path d="M556.45 102.709L570.793 62.9286H579.702L594.046 102.709H586.426L583.12 93.2964H567.376L564.07 102.709H556.45ZM569.505 87.0771H580.991L575.276 70.2684L569.505 87.0771ZM598.278 102.709V62.9286H605.562V102.709H598.278ZM640.153 103.382C637.164 103.382 634.568 102.747 632.365 101.477C630.161 100.169 628.461 98.339 627.266 95.9857C626.071 93.6325 625.473 90.8871 625.473 87.7495C625.473 84.6119 626.071 81.8851 627.266 79.5692C628.461 77.216 630.142 75.3857 632.309 74.0784C634.512 72.771 637.071 72.1174 639.984 72.1174C642.823 72.1174 645.307 72.7524 647.436 74.0224C649.603 75.2924 651.265 77.1226 652.423 79.5132C653.581 81.9038 654.16 84.7799 654.16 88.1417V89.7665H632.925C633.074 92.3812 633.784 94.3609 635.054 95.7056C636.361 97.0129 638.08 97.6666 640.209 97.6666C641.815 97.6666 643.141 97.3118 644.187 96.6021C645.27 95.855 646.017 94.8278 646.428 93.5205L653.768 93.9687C652.946 96.8822 651.321 99.1794 648.893 100.86C646.503 102.541 643.589 103.382 640.153 103.382ZM632.925 84.948H646.764C646.615 82.5201 645.924 80.7272 644.691 79.5692C643.458 78.374 641.889 77.7763 639.984 77.7763C638.08 77.7763 636.492 78.3926 635.222 79.6253C633.989 80.8579 633.224 82.6322 632.925 84.948ZM655.685 102.709L666.443 87.4693L656.078 72.7897H663.866L670.701 82.987L677.425 72.7897H685.325L675.015 87.5254L685.717 102.709H677.929L670.813 91.9517L663.641 102.709H655.685ZM701.872 103.382C698.884 103.382 696.288 102.747 694.084 101.477C691.88 100.169 690.181 98.339 688.985 95.9857C687.79 93.6325 687.192 90.8871 687.192 87.7495C687.192 84.6119 687.79 81.8851 688.985 79.5692C690.181 77.216 691.862 75.3857 694.028 74.0784C696.232 72.771 698.79 72.1174 701.704 72.1174C704.543 72.1174 707.027 72.7524 709.156 74.0224C711.322 75.2924 712.984 77.1226 714.142 79.5132C715.3 81.9038 715.879 84.7799 715.879 88.1417V89.7665H694.644C694.794 92.3812 695.503 94.3609 696.773 95.7056C698.081 97.0129 699.799 97.6666 701.928 97.6666C703.534 97.6666 704.86 97.3118 705.906 96.6021C706.989 95.855 707.736 94.8278 708.147 93.5205L715.487 93.9687C714.665 96.8822 713.041 99.1794 710.613 100.86C708.222 102.541 705.309 103.382 701.872 103.382ZM694.644 84.948H708.483C708.334 82.5201 707.643 80.7272 706.41 79.5692C705.178 78.374 703.609 77.7763 701.704 77.7763C699.799 77.7763 698.212 78.3926 696.942 79.6253C695.709 80.8579 694.943 82.6322 694.644 84.948ZM734.484 103.382C731.496 103.382 728.9 102.747 726.696 101.477C724.492 100.169 722.774 98.339 721.541 95.9857C720.346 93.6325 719.748 90.8871 719.748 87.7495C719.748 84.6119 720.346 81.8851 721.541 79.5692C722.774 77.216 724.492 75.3857 726.696 74.0784C728.9 72.771 731.496 72.1174 734.484 72.1174C737.024 72.1174 739.284 72.5656 741.264 73.4621C743.243 74.3585 744.849 75.6472 746.082 77.3281C747.352 78.9716 748.136 80.9886 748.435 83.3792L741.039 83.7714C740.741 81.8664 739.994 80.4284 738.798 79.4572C737.64 78.4487 736.202 77.9444 734.484 77.9444C732.168 77.9444 730.375 78.8222 729.105 80.5778C727.835 82.296 727.2 84.6866 727.2 87.7495C727.2 90.8498 727.835 93.259 729.105 94.9772C730.375 96.6954 732.168 97.5546 734.484 97.5546C736.24 97.5546 737.696 97.0503 738.854 96.0418C740.05 95.0333 740.778 93.4644 741.039 91.3353L748.435 91.6715C748.136 94.0621 747.371 96.1352 746.138 97.8907C744.905 99.6463 743.299 101.01 741.32 101.981C739.34 102.915 737.061 103.382 734.484 103.382ZM763.3 103.382C760.275 103.382 757.866 102.392 756.073 100.412C754.317 98.395 753.439 95.6122 753.439 92.0637V72.7897H760.611V90.2708C760.611 92.7734 761.022 94.6224 761.844 95.8177C762.703 96.9756 763.991 97.5546 765.71 97.5546C767.652 97.5546 769.146 96.9196 770.192 95.6496C771.275 94.3422 771.817 92.4559 771.817 89.9906V72.7897H778.989V102.709H772.433L772.265 94.473L773.162 94.7531C772.713 97.5919 771.649 99.7397 769.968 101.196C768.287 102.653 766.065 103.382 763.3 103.382ZM797.548 102.709C794.56 102.709 792.356 102.018 790.936 100.636C789.554 99.2541 788.863 97.0877 788.863 94.1368V65.7861H796.035V93.4644C796.035 94.8465 796.334 95.8177 796.931 96.378C797.529 96.9009 798.463 97.1624 799.733 97.1624H803.935V102.709H797.548ZM784.157 78.3366V72.7897H803.935V78.3366H784.157ZM809.195 102.709V72.7897H816.367V102.709H809.195ZM809.083 68.8117V62.4244H816.535V68.8117H809.083ZM836.693 103.382C833.742 103.382 831.146 102.747 828.905 101.477C826.701 100.169 824.983 98.339 823.751 95.9857C822.555 93.6325 821.958 90.8871 821.958 87.7495C821.958 84.5745 822.555 81.8291 823.751 79.5132C824.983 77.16 826.701 75.3484 828.905 74.0784C831.146 72.771 833.742 72.1174 836.693 72.1174C839.644 72.1174 842.221 72.771 844.425 74.0784C846.629 75.3484 848.329 77.16 849.524 79.5132C850.757 81.8291 851.373 84.5745 851.373 87.7495C851.373 90.8871 850.757 93.6325 849.524 95.9857C848.329 98.339 846.629 100.169 844.425 101.477C842.221 102.747 839.644 103.382 836.693 103.382ZM836.693 97.5546C839.009 97.5546 840.783 96.6954 842.016 94.9772C843.286 93.259 843.921 90.8498 843.921 87.7495C843.921 84.6866 843.286 82.296 842.016 80.5778C840.783 78.8222 839.009 77.9444 836.693 77.9444C834.377 77.9444 832.584 78.8222 831.314 80.5778C830.044 82.296 829.409 84.6866 829.409 87.7495C829.409 90.8498 830.044 93.259 831.314 94.9772C832.584 96.6954 834.377 97.5546 836.693 97.5546ZM856.907 102.709V72.7897H863.406L863.687 81.1941L862.846 80.8579C863.145 78.7662 863.761 77.0853 864.695 75.8153C865.629 74.5453 866.768 73.6115 868.113 73.0138C869.458 72.4162 870.933 72.1174 872.539 72.1174C874.743 72.1174 876.592 72.603 878.086 73.5741C879.617 74.5453 880.775 75.89 881.56 77.6082C882.344 79.2891 882.736 81.2501 882.736 83.4913V102.709H875.565V85.7885C875.565 84.1076 875.397 82.6882 875.06 81.5303C874.724 80.3723 874.164 79.4945 873.38 78.8969C872.633 78.2619 871.624 77.9444 870.354 77.9444C868.449 77.9444 866.918 78.6167 865.76 79.9614C864.639 81.3061 864.079 83.2485 864.079 85.7885V102.709H856.907ZM888.82 102.709V94.8652H897.001V102.709H888.82Z" fill="url(#paint1_radial_176_1114)"/>
<defs>
<linearGradient id="paint0_linear_176_1114" x1="498.814" y1="40.6771" x2="498.814" y2="113.715" gradientUnits="userSpaceOnUse">
<stop stop-color="white" stop-opacity="0.7"/>
<stop offset="1" stop-color="white" stop-opacity="0.3"/>
</linearGradient>
<radialGradient id="paint1_radial_176_1114" cx="0" cy="0" r="1" gradientTransform="matrix(853.575 -28.5013 1100.08 132.393 82.3831 70.1248)" gradientUnits="userSpaceOnUse">
<stop stop-color="#6CE0FF"/>
<stop offset="1" stop-color="#A4A0FF"/>
</radialGradient>
</defs>
</svg>
