<svg width="900" height="50" viewBox="0 0 900 50" fill="none" xmlns="http://www.w3.org/2000/svg">
<path d="M12.0949 40.6559V7.22379H-0.00118746V0.895763H31.415V7.22379H19.3749V40.6559H12.0949ZM33.4358 40.6559V10.7518H40.1558L40.4358 19.0398L39.8198 18.9278C40.2678 16.0532 41.1078 13.9812 42.3398 12.7118C43.6091 11.4051 45.3265 10.7518 47.4918 10.7518H50.2358V16.9118H47.4358C45.9052 16.9118 44.6358 17.1358 43.6278 17.5838C42.6198 18.0318 41.8545 18.7412 41.3318 19.7118C40.8465 20.6452 40.6038 21.8772 40.6038 23.4079V40.6559H33.4358ZM63.0065 41.3279C59.8705 41.3279 57.3505 40.6186 55.4465 39.1999C53.5425 37.7439 52.5905 35.7279 52.5905 33.1519C52.5905 30.5759 53.3931 28.5599 54.9985 27.1039C56.6038 25.6479 59.0492 24.6025 62.3345 23.9679L72.2466 22.0079C72.2466 19.8798 71.7612 18.2932 70.7906 17.2478C69.8199 16.1652 68.3825 15.6238 66.4785 15.6238C64.7612 15.6238 63.3985 16.0345 62.3905 16.8558C61.4199 17.6398 60.7478 18.7785 60.3745 20.2718L53.0945 19.9358C53.6918 16.7625 55.1478 14.3358 57.4625 12.6558C59.7772 10.9385 62.7825 10.0798 66.4785 10.0798C70.7346 10.0798 73.9452 11.1625 76.1106 13.3278C78.3133 15.4558 79.4146 18.5172 79.4146 22.5119V33.3759C79.4146 34.1599 79.5453 34.7012 79.8066 34.9999C80.1053 35.2986 80.5346 35.4479 81.0946 35.4479H82.0466V40.6559C81.8226 40.7306 81.4493 40.7866 80.9266 40.8239C80.4413 40.8613 79.9373 40.8799 79.4146 40.8799C78.1826 40.8799 77.0813 40.6933 76.1106 40.3199C75.1399 39.9093 74.3932 39.2186 73.8706 38.2479C73.3479 37.2399 73.0866 35.8773 73.0866 34.1599L73.7026 34.6079C73.4039 35.9146 72.7506 37.0906 71.7426 38.1359C70.7719 39.1439 69.5399 39.9279 68.0465 40.4879C66.5532 41.0479 64.8732 41.3279 63.0065 41.3279ZM64.4625 36.1199C66.0679 36.1199 67.4492 35.8026 68.6065 35.1679C69.7639 34.5332 70.6599 33.6559 71.2946 32.5359C71.9292 31.4159 72.2466 30.0906 72.2466 28.5599V26.8799L64.5185 28.4479C62.9132 28.7839 61.7559 29.2879 61.0465 29.9599C60.3745 30.5946 60.0385 31.4346 60.0385 32.4799C60.0385 33.6372 60.4118 34.5332 61.1585 35.1679C61.9425 35.8026 63.0439 36.1199 64.4625 36.1199ZM86.7016 40.6559V10.7518H93.1977L93.4777 19.1518L92.6377 18.8158C92.9363 16.7252 93.5523 15.0452 94.4857 13.7758C95.419 12.5065 96.5577 11.5731 97.9017 10.9758C99.2457 10.3785 100.72 10.0798 102.326 10.0798C104.528 10.0798 106.376 10.5651 107.87 11.5358C109.4 12.5065 110.558 13.8505 111.342 15.5678C112.126 17.2478 112.518 19.2078 112.518 21.4479V40.6559H105.35V23.7439C105.35 22.0639 105.182 20.6452 104.846 19.4878C104.51 18.3305 103.95 17.4532 103.166 16.8558C102.419 16.2212 101.411 15.9038 100.142 15.9038C98.2377 15.9038 96.707 16.5758 95.5497 17.9198C94.4297 19.2638 93.8697 21.2052 93.8697 23.7439V40.6559H86.7016ZM131.776 41.3279C128.826 41.3279 126.344 40.8986 124.328 40.0399C122.349 39.1813 120.818 37.9866 119.736 36.4559C118.653 34.9252 118.037 33.1892 117.888 31.2479L125.224 30.9119C125.485 32.4799 126.138 33.6932 127.184 34.5519C128.229 35.4106 129.778 35.8399 131.832 35.8399C133.512 35.8399 134.818 35.5786 135.752 35.0559C136.722 34.4959 137.208 33.6372 137.208 32.4799C137.208 31.8079 137.04 31.2479 136.704 30.7999C136.368 30.3519 135.733 29.9599 134.8 29.6239C133.866 29.2879 132.485 28.9519 130.656 28.6159C127.594 28.0932 125.186 27.4585 123.432 26.7119C121.677 25.9279 120.426 24.9572 119.68 23.7999C118.97 22.6425 118.616 21.2052 118.616 19.4878C118.616 16.6878 119.68 14.4292 121.808 12.7118C123.973 10.9571 127.128 10.0798 131.272 10.0798C133.96 10.0798 136.218 10.5278 138.048 11.4238C139.877 12.2825 141.296 13.4772 142.304 15.0078C143.349 16.5012 144.002 18.2185 144.264 20.1598L137.04 20.4958C136.853 19.4878 136.517 18.6105 136.032 17.8638C135.546 17.1172 134.893 16.5572 134.072 16.1838C133.25 15.7732 132.28 15.5678 131.16 15.5678C129.48 15.5678 128.21 15.9038 127.352 16.5758C126.493 17.2478 126.064 18.1438 126.064 19.2638C126.064 20.0478 126.25 20.7012 126.624 21.2239C127.034 21.7465 127.688 22.1759 128.584 22.5119C129.48 22.8105 130.674 23.0905 132.168 23.3519C135.304 23.8372 137.768 24.4719 139.56 25.2559C141.389 26.0025 142.677 26.9732 143.424 28.1679C144.208 29.3252 144.6 30.7252 144.6 32.3679C144.6 34.2719 144.058 35.8959 142.976 37.2399C141.93 38.5839 140.437 39.6106 138.496 40.3199C136.592 40.9919 134.352 41.3279 131.776 41.3279ZM152.182 40.6559V9.5758C152.182 6.88779 152.928 4.77845 154.422 3.24777C155.952 1.67977 158.286 0.895763 161.422 0.895763H167.246V6.43979H162.766C161.608 6.43979 160.75 6.73846 160.19 7.33579C159.667 7.93313 159.406 8.81046 159.406 9.9678V40.6559H152.182ZM147.926 17.0798V11.5358H166.854V17.0798H147.926ZM183.803 41.3279C180.854 41.3279 178.259 40.6933 176.019 39.4239C173.817 38.1173 172.099 36.2879 170.867 33.9359C169.673 31.5839 169.075 28.8399 169.075 25.7039C169.075 22.5305 169.673 19.7865 170.867 17.4718C172.099 15.1198 173.817 13.3092 176.019 12.0398C178.259 10.7331 180.854 10.0798 183.803 10.0798C186.753 10.0798 189.329 10.7331 191.531 12.0398C193.734 13.3092 195.433 15.1198 196.627 17.4718C197.859 19.7865 198.475 22.5305 198.475 25.7039C198.475 28.8399 197.859 31.5839 196.627 33.9359C195.433 36.2879 193.734 38.1173 191.531 39.4239C189.329 40.6933 186.753 41.3279 183.803 41.3279ZM183.803 35.5039C186.118 35.5039 187.891 34.6452 189.123 32.9279C190.393 31.2106 191.027 28.8026 191.027 25.7039C191.027 22.6425 190.393 20.2532 189.123 18.5358C187.891 16.7812 186.118 15.9038 183.803 15.9038C181.489 15.9038 179.697 16.7812 178.427 18.5358C177.158 20.2532 176.523 22.6425 176.523 25.7039C176.523 28.8026 177.158 31.2106 178.427 32.9279C179.697 34.6452 181.489 35.5039 183.803 35.5039ZM204.007 40.6559V10.7518H210.727L211.007 19.0398L210.391 18.9278C210.839 16.0532 211.679 13.9812 212.911 12.7118C214.18 11.4051 215.898 10.7518 218.063 10.7518H220.807V16.9118H218.007C216.476 16.9118 215.207 17.1358 214.199 17.5838C213.191 18.0318 212.426 18.7412 211.903 19.7118C211.418 20.6452 211.175 21.8772 211.175 23.4079V40.6559H204.007ZM225.116 40.6559V10.7518H231.612L231.836 18.0878L231.164 17.7518C231.5 16.1465 232.079 14.7838 232.9 13.6638C233.759 12.5065 234.786 11.6291 235.98 11.0318C237.212 10.3971 238.556 10.0798 240.012 10.0798C242.551 10.0798 244.604 10.8078 246.172 12.2638C247.74 13.6825 248.73 15.6425 249.14 18.1438H248.188C248.524 16.3892 249.103 14.9332 249.924 13.7758C250.746 12.5811 251.772 11.6665 253.004 11.0318C254.274 10.3971 255.692 10.0798 257.26 10.0798C259.314 10.0798 261.087 10.5278 262.58 11.4238C264.074 12.2825 265.212 13.5518 265.996 15.2318C266.818 16.9118 267.228 18.9838 267.228 21.4479V40.6559H260.06V23.2959C260.06 20.8319 259.631 18.9838 258.772 17.7518C257.951 16.5198 256.682 15.9038 254.964 15.9038C253.807 15.9038 252.818 16.2025 251.996 16.7998C251.175 17.3972 250.54 18.2745 250.092 19.4318C249.682 20.5519 249.476 21.9145 249.476 23.5199V40.6559H242.812V23.5199C242.812 21.0559 242.439 19.1705 241.692 17.8638C240.946 16.5572 239.658 15.9038 237.828 15.9038C236.671 15.9038 235.682 16.2025 234.86 16.7998C234.076 17.3972 233.442 18.2745 232.956 19.4318C232.508 20.5519 232.284 21.9145 232.284 23.5199V40.6559H225.116ZM291.417 40.6559V9.5758C291.417 6.88779 292.163 4.77845 293.657 3.24777C295.187 1.67977 297.521 0.895763 300.657 0.895763H306.481V6.43979H302.001C300.843 6.43979 299.985 6.73846 299.425 7.33579C298.902 7.93313 298.641 8.81046 298.641 9.9678V40.6559H291.417ZM287.161 17.0798V11.5358H306.089V17.0798H287.161ZM310.812 40.6559V10.7518H317.532L317.812 19.0398L317.196 18.9278C317.644 16.0532 318.484 13.9812 319.716 12.7118C320.985 11.4051 322.703 10.7518 324.868 10.7518H327.612V16.9118H324.812C323.281 16.9118 322.012 17.1358 321.004 17.5838C319.996 18.0318 319.231 18.7412 318.708 19.7118C318.223 20.6452 317.98 21.8772 317.98 23.4079V40.6559H310.812ZM344.476 41.3279C341.527 41.3279 338.932 40.6933 336.692 39.4239C334.489 38.1173 332.772 36.2879 331.54 33.9359C330.345 31.5839 329.748 28.8399 329.748 25.7039C329.748 22.5305 330.345 19.7865 331.54 17.4718C332.772 15.1198 334.489 13.3092 336.692 12.0398C338.932 10.7331 341.527 10.0798 344.476 10.0798C347.425 10.0798 350.001 10.7331 352.204 12.0398C354.407 13.3092 356.105 15.1198 357.3 17.4718C358.532 19.7865 359.148 22.5305 359.148 25.7039C359.148 28.8399 358.532 31.5839 357.3 33.9359C356.105 36.2879 354.407 38.1173 352.204 39.4239C350.001 40.6933 347.425 41.3279 344.476 41.3279ZM344.476 35.5039C346.791 35.5039 348.564 34.6452 349.796 32.9279C351.065 31.2106 351.7 28.8026 351.7 25.7039C351.7 22.6425 351.065 20.2532 349.796 18.5358C348.564 16.7812 346.791 15.9038 344.476 15.9038C342.161 15.9038 340.369 16.7812 339.1 18.5358C337.831 20.2532 337.196 22.6425 337.196 25.7039C337.196 28.8026 337.831 31.2106 339.1 32.9279C340.369 34.6452 342.161 35.5039 344.476 35.5039ZM364.679 40.6559V10.7518H371.175L371.399 18.0878L370.727 17.7518C371.063 16.1465 371.642 14.7838 372.463 13.6638C373.322 12.5065 374.349 11.6291 375.543 11.0318C376.775 10.3971 378.119 10.0798 379.575 10.0798C382.114 10.0798 384.167 10.8078 385.735 12.2638C387.303 13.6825 388.293 15.6425 388.704 18.1438H387.751C388.087 16.3892 388.666 14.9332 389.488 13.7758C390.309 12.5811 391.336 11.6665 392.568 11.0318C393.837 10.3971 395.256 10.0798 396.824 10.0798C398.877 10.0798 400.65 10.5278 402.144 11.4238C403.637 12.2825 404.776 13.5518 405.56 15.2318C406.381 16.9118 406.792 18.9838 406.792 21.4479V40.6559H399.624V23.2959C399.624 20.8319 399.194 18.9838 398.336 17.7518C397.514 16.5198 396.245 15.9038 394.528 15.9038C393.37 15.9038 392.381 16.2025 391.56 16.7998C390.738 17.3972 390.104 18.2745 389.656 19.4318C389.245 20.5519 389.04 21.9145 389.04 23.5199V40.6559H382.375V23.5199C382.375 21.0559 382.002 19.1705 381.255 17.8638C380.509 16.5572 379.221 15.9038 377.391 15.9038C376.234 15.9038 375.245 16.2025 374.423 16.7998C373.639 17.3972 373.005 18.2745 372.519 19.4318C372.071 20.5519 371.847 21.9145 371.847 23.5199V40.6559H364.679Z" fill="white"/>
<path d="M428.404 40.6559V0.895763H441.62C447.966 0.895763 452.839 2.63177 456.236 6.10379C459.671 9.53847 461.388 14.4478 461.388 20.8319C461.388 27.1785 459.708 32.0692 456.348 35.5039C452.988 38.9386 448.19 40.6559 441.956 40.6559H428.404ZM435.684 34.3279H441.62C445.764 34.3279 448.844 33.2079 450.86 30.9679C452.876 28.7279 453.884 25.3492 453.884 20.8319C453.884 16.2398 452.876 12.8238 450.86 10.5838C448.844 8.3438 445.764 7.22379 441.62 7.22379H435.684V34.3279ZM481.139 41.3279C478.153 41.3279 475.558 40.6933 473.355 39.4239C471.153 38.1173 469.454 36.2879 468.259 33.9359C467.065 31.5839 466.467 28.8399 466.467 25.7039C466.467 22.5679 467.065 19.8425 468.259 17.5278C469.454 15.1758 471.134 13.3465 473.299 12.0398C475.502 10.7331 478.059 10.0798 480.971 10.0798C483.809 10.0798 486.291 10.7145 488.419 11.9838C490.585 13.2532 492.246 15.0825 493.403 17.4718C494.561 19.8612 495.139 22.7359 495.139 26.0959V27.7199H473.915C474.065 30.3332 474.774 32.3119 476.043 33.6559C477.35 34.9626 479.067 35.6159 481.195 35.6159C482.801 35.6159 484.126 35.2612 485.171 34.5519C486.254 33.8052 487.001 32.7786 487.411 31.4719L494.747 31.9199C493.926 34.8319 492.302 37.1279 489.875 38.8079C487.486 40.4879 484.574 41.3279 481.139 41.3279ZM473.915 22.9039H487.747C487.598 20.4772 486.907 18.6852 485.675 17.5278C484.443 16.3332 482.875 15.7358 480.971 15.7358C479.067 15.7358 477.481 16.3518 476.211 17.5838C474.979 18.8158 474.214 20.5892 473.915 22.9039ZM507.879 40.6559L496.959 10.7518H504.519L512.135 33.4319L519.752 10.7518H527.312L516.391 40.6559H507.879ZM549.002 41.5519C545.082 41.5519 541.704 40.7306 538.866 39.0879C536.029 37.4079 533.845 35.0186 532.314 31.9199C530.821 28.8212 530.074 25.1252 530.074 20.8319C530.074 16.5385 530.821 12.8425 532.314 9.7438C533.845 6.60779 536.029 4.19978 538.866 2.51977C541.704 0.839764 545.082 -0.000238896 549.002 -0.000238896C552.997 -0.000238896 556.394 0.839764 559.194 2.51977C562.032 4.19978 564.197 6.60779 565.691 9.7438C567.221 12.8425 567.987 16.5385 567.987 20.8319C567.987 25.1252 567.221 28.8212 565.691 31.9199C564.197 35.0186 562.032 37.4079 559.194 39.0879C556.394 40.7306 552.997 41.5519 549.002 41.5519ZM549.002 35.2239C551.429 35.2239 553.482 34.6639 555.162 33.5439C556.88 32.3866 558.186 30.7439 559.082 28.6159C560.016 26.4505 560.482 23.8559 560.482 20.8319C560.482 17.8078 560.016 15.2132 559.082 13.0478C558.186 10.8825 556.88 9.22113 555.162 8.0638C553.482 6.90646 551.429 6.32779 549.002 6.32779C546.65 6.32779 544.616 6.90646 542.898 8.0638C541.181 9.22113 539.856 10.8825 538.922 13.0478C538.026 15.2132 537.578 17.8078 537.578 20.8319C537.578 23.8559 538.026 26.4505 538.922 28.6159C539.856 30.7439 541.181 32.3866 542.898 33.5439C544.616 34.6639 546.65 35.2239 549.002 35.2239ZM574.297 49.056V10.7518H581.186L581.354 17.1358L580.626 16.7998C581.372 14.5972 582.586 12.9358 584.266 11.8158C585.983 10.6585 587.98 10.0798 590.258 10.0798C593.095 10.0798 595.447 10.7891 597.314 12.2078C599.218 13.6265 600.636 15.5118 601.57 17.8638C602.503 20.2158 602.97 22.8292 602.97 25.7039C602.97 28.5786 602.484 31.1919 601.514 33.5439C600.58 35.8959 599.162 37.7813 597.258 39.1999C595.391 40.6186 593.039 41.3279 590.202 41.3279C588.708 41.3279 587.308 41.0666 586.002 40.5439C584.732 40.0213 583.631 39.2746 582.698 38.3039C581.802 37.3333 581.167 36.1946 580.794 34.8879L581.466 34.3279V49.056H574.297ZM588.522 35.5039C590.687 35.5039 592.386 34.6452 593.618 32.9279C594.887 31.1732 595.522 28.7652 595.522 25.7039C595.522 22.6425 594.887 20.2532 593.618 18.5358C592.386 16.7812 590.687 15.9038 588.522 15.9038C587.066 15.9038 585.815 16.2772 584.77 17.0238C583.724 17.7332 582.903 18.8158 582.306 20.2718C581.746 21.7279 581.466 23.5385 581.466 25.7039C581.466 27.8692 581.746 29.6799 582.306 31.1359C582.866 32.5919 583.668 33.6932 584.714 34.4399C585.796 35.1492 587.066 35.5039 588.522 35.5039ZM620.684 41.3279C617.735 41.3279 615.252 40.8986 613.236 40.0399C611.257 39.1813 609.727 37.9866 608.644 36.4559C607.561 34.9252 606.945 33.1892 606.796 31.2479L614.132 30.9119C614.393 32.4799 615.047 33.6932 616.092 34.5519C617.137 35.4106 618.687 35.8399 620.74 35.8399C622.42 35.8399 623.727 35.5786 624.66 35.0559C625.631 34.4959 626.116 33.6372 626.116 32.4799C626.116 31.8079 625.948 31.2479 625.612 30.7999C625.276 30.3519 624.641 29.9599 623.708 29.6239C622.775 29.2879 621.393 28.9519 619.564 28.6159C616.503 28.0932 614.095 27.4585 612.34 26.7119C610.585 25.9279 609.335 24.9572 608.588 23.7999C607.879 22.6425 607.524 21.2052 607.524 19.4878C607.524 16.6878 608.588 14.4292 610.716 12.7118C612.881 10.9571 616.036 10.0798 620.18 10.0798C622.868 10.0798 625.127 10.5278 626.956 11.4238C628.785 12.2825 630.204 13.4772 631.212 15.0078C632.257 16.5012 632.911 18.2185 633.172 20.1598L625.948 20.4958C625.761 19.4878 625.425 18.6105 624.94 17.8638C624.455 17.1172 623.801 16.5572 622.98 16.1838C622.159 15.7732 621.188 15.5678 620.068 15.5678C618.388 15.5678 617.119 15.9038 616.26 16.5758C615.401 17.2478 614.972 18.1438 614.972 19.2638C614.972 20.0478 615.159 20.7012 615.532 21.2239C615.943 21.7465 616.596 22.1759 617.492 22.5119C618.388 22.8105 619.583 23.0905 621.076 23.3519C624.212 23.8372 626.676 24.4719 628.468 25.2559C630.297 26.0025 631.585 26.9732 632.332 28.1679C633.116 29.3252 633.508 30.7252 633.508 32.3679C633.508 34.2719 632.967 35.8959 631.884 37.2399C630.839 38.5839 629.345 39.6106 627.404 40.3199C625.5 40.9919 623.26 41.3279 620.684 41.3279ZM664.868 40.6559C661.881 40.6559 659.678 39.9653 658.26 38.5839C656.878 37.2026 656.188 35.0372 656.188 32.0879V3.75178H663.356V31.4159C663.356 32.7972 663.654 33.7679 664.252 34.3279C664.849 34.8506 665.782 35.1119 667.052 35.1119H671.252V40.6559H664.868ZM651.484 16.2958V10.7518H671.252V16.2958H651.484ZM689.009 41.3279C686.059 41.3279 683.465 40.6933 681.225 39.4239C679.022 38.1173 677.305 36.2879 676.073 33.9359C674.878 31.5839 674.281 28.8399 674.281 25.7039C674.281 22.5305 674.878 19.7865 676.073 17.4718C677.305 15.1198 679.022 13.3092 681.225 12.0398C683.465 10.7331 686.059 10.0798 689.009 10.0798C691.958 10.0798 694.534 10.7331 696.737 12.0398C698.939 13.3092 700.638 15.1198 701.833 17.4718C703.065 19.7865 703.681 22.5305 703.681 25.7039C703.681 28.8399 703.065 31.5839 701.833 33.9359C700.638 36.2879 698.939 38.1173 696.737 39.4239C694.534 40.6933 691.958 41.3279 689.009 41.3279ZM689.009 35.5039C691.323 35.5039 693.097 34.6452 694.329 32.9279C695.598 31.2106 696.233 28.8026 696.233 25.7039C696.233 22.6425 695.598 20.2532 694.329 18.5358C693.097 16.7812 691.323 15.9038 689.009 15.9038C686.694 15.9038 684.902 16.7812 683.633 18.5358C682.363 20.2532 681.729 22.6425 681.729 25.7039C681.729 28.8026 682.363 31.2106 683.633 32.9279C684.902 34.6452 686.694 35.5039 689.009 35.5039ZM723.553 40.6559V0.895763H732.065L749.202 30.7999V0.895763H756.482V40.6559H747.746L730.833 11.5918V40.6559H723.553ZM777.329 41.3279C774.38 41.3279 771.785 40.6933 769.545 39.4239C767.343 38.1173 765.625 36.2879 764.393 33.9359C763.199 31.5839 762.601 28.8399 762.601 25.7039C762.601 22.5305 763.199 19.7865 764.393 17.4718C765.625 15.1198 767.343 13.3092 769.545 12.0398C771.785 10.7331 774.38 10.0798 777.329 10.0798C780.279 10.0798 782.855 10.7331 785.057 12.0398C787.26 13.3092 788.959 15.1198 790.153 17.4718C791.385 19.7865 792.002 22.5305 792.002 25.7039C792.002 28.8399 791.385 31.5839 790.153 33.9359C788.959 36.2879 787.26 38.1173 785.057 39.4239C782.855 40.6933 780.279 41.3279 777.329 41.3279ZM777.329 35.5039C779.644 35.5039 781.417 34.6452 782.649 32.9279C783.919 31.2106 784.553 28.8026 784.553 25.7039C784.553 22.6425 783.919 20.2532 782.649 18.5358C781.417 16.7812 779.644 15.9038 777.329 15.9038C775.015 15.9038 773.223 16.7812 771.953 18.5358C770.684 20.2532 770.049 22.6425 770.049 25.7039C770.049 28.8026 770.684 31.2106 771.953 32.9279C773.223 34.6452 775.015 35.5039 777.329 35.5039ZM815.496 41.5519C811.576 41.5519 808.197 40.7306 805.36 39.0879C802.522 37.4079 800.338 35.0186 798.808 31.9199C797.314 28.8212 796.568 25.1252 796.568 20.8319C796.568 16.5385 797.314 12.8425 798.808 9.7438C800.338 6.60779 802.522 4.19978 805.36 2.51977C808.197 0.839764 811.576 -0.000238896 815.496 -0.000238896C819.49 -0.000238896 822.888 0.839764 825.688 2.51977C828.525 4.19978 830.691 6.60779 832.184 9.7438C833.715 12.8425 834.48 16.5385 834.48 20.8319C834.48 25.1252 833.715 28.8212 832.184 31.9199C830.691 35.0186 828.525 37.4079 825.688 39.0879C822.888 40.7306 819.49 41.5519 815.496 41.5519ZM815.496 35.2239C817.922 35.2239 819.976 34.6639 821.656 33.5439C823.373 32.3866 824.68 30.7439 825.576 28.6159C826.509 26.4505 826.976 23.8559 826.976 20.8319C826.976 17.8078 826.509 15.2132 825.576 13.0478C824.68 10.8825 823.373 9.22113 821.656 8.0638C819.976 6.90646 817.922 6.32779 815.496 6.32779C813.144 6.32779 811.109 6.90646 809.392 8.0638C807.674 9.22113 806.349 10.8825 805.416 13.0478C804.52 15.2132 804.072 17.8078 804.072 20.8319C804.072 23.8559 804.52 26.4505 805.416 28.6159C806.349 30.7439 807.674 32.3866 809.392 33.5439C811.109 34.6639 813.144 35.2239 815.496 35.2239ZM840.791 49.056V10.7518H847.679L847.847 17.1358L847.119 16.7998C847.866 14.5972 849.079 12.9358 850.759 11.8158C852.476 10.6585 854.474 10.0798 856.751 10.0798C859.588 10.0798 861.94 10.7891 863.807 12.2078C865.711 13.6265 867.13 15.5118 868.063 17.8638C868.996 20.2158 869.463 22.8292 869.463 25.7039C869.463 28.5786 868.978 31.1919 868.007 33.5439C867.074 35.8959 865.655 37.7813 863.751 39.1999C861.884 40.6186 859.532 41.3279 856.695 41.3279C855.202 41.3279 853.802 41.0666 852.495 40.5439C851.226 40.0213 850.124 39.2746 849.191 38.3039C848.295 37.3333 847.66 36.1946 847.287 34.8879L847.959 34.3279V49.056H840.791ZM855.015 35.5039C857.18 35.5039 858.879 34.6452 860.111 32.9279C861.38 31.1732 862.015 28.7652 862.015 25.7039C862.015 22.6425 861.38 20.2532 860.111 18.5358C858.879 16.7812 857.18 15.9038 855.015 15.9038C853.559 15.9038 852.308 16.2772 851.263 17.0238C850.218 17.7332 849.396 18.8158 848.799 20.2718C848.239 21.7279 847.959 23.5385 847.959 25.7039C847.959 27.8692 848.239 29.6799 848.799 31.1359C849.359 32.5919 850.162 33.6932 851.207 34.4399C852.29 35.1492 853.559 35.5039 855.015 35.5039ZM887.177 41.3279C884.228 41.3279 881.745 40.8986 879.729 40.0399C877.751 39.1813 876.22 37.9866 875.137 36.4559C874.055 34.9252 873.439 33.1892 873.289 31.2479L880.625 30.9119C880.887 32.4799 881.54 33.6932 882.585 34.5519C883.631 35.4106 885.18 35.8399 887.233 35.8399C888.913 35.8399 890.22 35.5786 891.153 35.0559C892.124 34.4959 892.609 33.6372 892.609 32.4799C892.609 31.8079 892.441 31.2479 892.105 30.7999C891.769 30.3519 891.135 29.9599 890.201 29.6239C889.268 29.2879 887.887 28.9519 886.057 28.6159C882.996 28.0932 880.588 27.4585 878.833 26.7119C877.079 25.9279 875.828 24.9572 875.081 23.7999C874.372 22.6425 874.017 21.2052 874.017 19.4878C874.017 16.6878 875.081 14.4292 877.209 12.7118C879.375 10.9571 882.529 10.0798 886.673 10.0798C889.361 10.0798 891.62 10.5278 893.449 11.4238C895.279 12.2825 896.697 13.4772 897.705 15.0078C898.751 16.5012 899.404 18.2185 899.665 20.1598L892.441 20.4958C892.255 19.4878 891.919 18.6105 891.433 17.8638C890.948 17.1172 890.295 16.5572 889.473 16.1838C888.652 15.7732 887.681 15.5678 886.561 15.5678C884.881 15.5678 883.612 15.9038 882.753 16.5758C881.895 17.2478 881.465 18.1438 881.465 19.2638C881.465 20.0478 881.652 20.7012 882.025 21.2239C882.436 21.7465 883.089 22.1759 883.985 22.5119C884.881 22.8105 886.076 23.0905 887.569 23.3519C890.705 23.8372 893.169 24.4719 894.961 25.2559C896.791 26.0025 898.079 26.9732 898.825 28.1679C899.609 29.3252 900.001 30.7252 900.001 32.3679C900.001 34.2719 899.46 35.8959 898.377 37.2399C897.332 38.5839 895.839 39.6106 893.897 40.3199C891.993 40.9919 889.753 41.3279 887.177 41.3279Z" fill="url(#paint0_radial_176_872)"/>
<defs>
<radialGradient id="paint0_radial_176_872" cx="0" cy="0" r="1" gradientTransform="matrix(534.992 -7.43584 689.667 31.6044 357.792 8.61188)" gradientUnits="userSpaceOnUse">
<stop stop-color="#43D7FF"/>
<stop offset="0.96" stop-color="#5C58CE"/>
</radialGradient>
</defs>
</svg>
