<svg width="36" height="27" viewBox="0 0 36 27" fill="none" xmlns="http://www.w3.org/2000/svg">
<path d="M3.17741 24.6341C1.11002 22.4394 0 19.9764 0 15.9837C0 9.39704 4.3368 3.44991 10.7932 0.169905C11.5372 -0.208039 12.434 0.0677724 12.8878 0.768053C13.4296 1.60412 13.1367 2.71945 12.3018 3.26301C9.10585 5.34375 7.42024 7.6776 6.48005 9.79715C5.82035 11.2844 7.62021 12.8238 9.24023 12.974C12.861 13.3098 15.7148 16.2821 15.7148 19.9764C15.7148 23.8553 12.5702 26.9998 8.6913 26.9998C6.538 26.9998 4.47885 26.0155 3.17741 24.6341ZM23.2443 24.6341C21.177 22.4394 20.0669 19.9764 20.0669 15.9837C20.0669 9.39703 24.4037 3.4499 30.8602 0.169897C31.6041 -0.208043 32.501 0.0677654 32.9547 0.768039C33.4965 1.60411 33.2036 2.71945 32.3687 3.26301C29.1727 5.34374 27.4872 7.67757 26.547 9.79711C25.8873 11.2843 27.6871 12.8238 29.3071 12.974C32.928 13.3098 35.7817 16.2821 35.7817 19.9764C35.7817 23.8553 32.6372 26.9998 28.7583 26.9998C26.6049 26.9998 24.5458 26.0155 23.2443 24.6341Z" fill="url(#paint0_radial_176_374)"/>
<defs>
<radialGradient id="paint0_radial_176_374" cx="0" cy="0" r="1" gradientTransform="matrix(30.4822 -27.0434 62.6814 6.65516 -4.68076e-06 31.6977)" gradientUnits="userSpaceOnUse">
<stop stop-color="#43D7FF"/>
<stop offset="0.96" stop-color="#5C58CE"/>
</radialGradient>
</defs>
</svg>
