<svg width="161" height="34" viewBox="0 0 161 34" fill="none" xmlns="http://www.w3.org/2000/svg">
<path d="M26.5232 13.3947C23.4002 13.3947 21.6491 10.8313 21.6491 6.71538C21.6491 2.58145 23.4002 -7.05371e-06 26.5232 -7.05371e-06C28.9602 -7.05371e-06 30.603 1.67884 31.0904 4.49497L29.0144 4.60328C28.6714 2.76197 27.7868 1.84131 26.5232 1.84131C24.7541 1.84131 23.7432 3.57431 23.7432 6.71538C23.7432 9.85645 24.7541 11.5534 26.5232 11.5534C27.859 11.5534 28.7797 10.5785 29.0866 8.57475L31.1626 8.68306C30.7113 11.6256 29.0685 13.3947 26.5232 13.3947ZM33.0149 13.1058V0.288826H37.0766C39.8205 0.288826 41.4813 1.75105 41.4813 4.13393C41.4813 5.66836 40.5426 6.78759 39.3512 7.18474C40.6148 7.41941 41.2106 8.12345 41.3369 9.49541L41.6438 13.1058H39.622L39.3331 9.80229C39.2248 8.5928 38.6652 8.15955 37.2933 8.15955H35.0006V13.1058H33.0149ZM37.0225 6.31824C38.5208 6.31824 39.3873 5.54199 39.3873 4.22419C39.3873 2.92444 38.5208 2.11209 37.0225 2.11209H35.0006V6.31824H37.0225ZM44.2363 13.1058V0.288826H52.1792V2.11209H46.222V5.74057H51.9626V7.58188H46.222V11.2826H52.3236V13.1058H44.2363ZM53.8871 13.1058L57.7141 0.288826H60.1331L63.9602 13.1058H61.8842L61.0177 10.0731H56.8296L55.9631 13.1058H53.8871ZM57.3531 8.30397H60.4942L58.9236 2.81612L57.3531 8.30397ZM68.755 13.1058V2.11209H65.0543V0.288826H74.4414V2.11209H70.7407V13.1058H68.755ZM76.7089 13.1058V0.288826H84.6519V2.11209H78.6947V5.74057H84.4352V7.58188H78.6947V11.2826H84.7963V13.1058H76.7089Z" fill="url(#paint0_radial_176_1317)"/>
<path d="M101.246 13.1058V7.92487L97.527 0.288826H99.7654L102.221 5.65031L104.676 0.288826H106.914L103.231 7.92487V13.1058H101.246ZM113.045 13.3947C109.976 13.3947 108.243 10.9215 108.243 6.71538C108.243 2.47313 109.976 -7.05371e-06 113.045 -7.05371e-06C116.114 -7.05371e-06 117.847 2.47313 117.847 6.71538C117.847 10.9215 116.114 13.3947 113.045 13.3947ZM113.045 11.5353C114.814 11.5353 115.753 9.85645 115.753 6.71538C115.753 3.55626 114.814 1.85936 113.045 1.85936C111.276 1.85936 110.337 3.55626 110.337 6.71538C110.337 9.85645 111.276 11.5353 113.045 11.5353ZM123.869 13.3947C121.089 13.3947 119.464 11.6617 119.464 8.66501V0.288826H121.45V8.73722C121.45 10.5605 122.316 11.5534 123.869 11.5534C125.421 11.5534 126.288 10.5605 126.288 8.73722V0.288826H128.274V8.66501C128.274 11.6617 126.649 13.3947 123.869 13.3947ZM130.433 13.1058V0.288826H134.495C137.239 0.288826 138.899 1.75105 138.899 4.13393C138.899 5.66836 137.961 6.78759 136.769 7.18474C138.033 7.41941 138.629 8.12345 138.755 9.49541L139.062 13.1058H137.04L136.751 9.80229C136.643 8.5928 136.083 8.15955 134.711 8.15955H132.419V13.1058H130.433ZM134.44 6.31824C135.939 6.31824 136.805 5.54199 136.805 4.22419C136.805 2.92444 135.939 2.11209 134.44 2.11209H132.419V6.31824H134.44ZM4.87475 33.4526C1.75173 33.4526 0.000673854 30.8892 0.000673854 26.7733C0.000673854 22.6394 1.75173 20.0579 4.87475 20.0579C7.31178 20.0579 8.95453 21.7368 9.44193 24.5529L7.36594 24.6612C7.02295 22.8199 6.1384 21.8992 4.87475 21.8992C3.10564 21.8992 2.09472 23.6322 2.09472 26.7733C2.09472 29.9144 3.10564 31.6113 4.87475 31.6113C6.2106 31.6113 7.13126 30.6364 7.43815 28.6327L9.51414 28.741C9.06284 31.6835 7.4201 33.4526 4.87475 33.4526ZM11.9441 33.1637V20.3467H13.9299V31.3405H20.0315V33.1637H11.9441ZM26.451 33.4526C23.3821 33.4526 21.6491 30.9794 21.6491 26.7733C21.6491 22.531 23.3821 20.0579 26.451 20.0579C29.5198 20.0579 31.2528 22.531 31.2528 26.7733C31.2528 30.9794 29.5198 33.4526 26.451 33.4526ZM26.451 31.5932C28.2201 31.5932 29.1588 29.9144 29.1588 26.7733C29.1588 23.6142 28.2201 21.9173 26.451 21.9173C24.6819 21.9173 23.7432 23.6142 23.7432 26.7733C23.7432 29.9144 24.6819 31.5932 26.451 31.5932ZM37.2752 33.4526C34.4952 33.4526 32.8705 31.7196 32.8705 28.7229V20.3467H34.8562V28.7951C34.8562 30.6184 35.7227 31.6113 37.2752 31.6113C38.8277 31.6113 39.6942 30.6184 39.6942 28.7951V20.3467H41.6799V28.7229C41.6799 31.7196 40.0552 33.4526 37.2752 33.4526ZM44.0557 33.1637V20.3467H47.3412C50.7711 20.3467 52.9013 22.6935 52.9013 26.7733C52.9013 30.8531 50.7711 33.1637 47.3412 33.1637H44.0557ZM47.251 31.3405C49.5075 31.3405 50.8072 29.806 50.8072 26.7733C50.8072 23.7405 49.5075 22.17 47.251 22.17H46.0415V31.3405H47.251ZM65.4876 33.1637V20.3467H69.5493C72.2932 20.3467 73.954 21.809 73.954 24.1918C73.954 25.7263 73.0153 26.8455 71.8239 27.2426C73.0875 27.4773 73.6832 28.1814 73.8096 29.5533L74.1165 33.1637H72.0946L71.8058 29.8602C71.6975 28.6507 71.1379 28.2175 69.7659 28.2175H67.4733V33.1637H65.4876ZM69.4951 26.3761C70.9935 26.3761 71.86 25.5999 71.86 24.2821C71.86 22.9823 70.9935 22.17 69.4951 22.17H67.4733V26.3761H69.4951ZM76.7089 33.1637V20.3467H84.6519V22.17H78.6947V25.7985H84.4352V27.6398H78.6947V31.3405H84.7963V33.1637H76.7089ZM91.5407 33.4526C88.7246 33.4526 86.9555 31.6293 86.7389 28.9937L88.7607 28.8493C89.0134 30.5823 90.0063 31.6113 91.5768 31.6113C93.1474 31.6113 93.9958 30.9433 93.9958 29.8602C93.9958 28.7229 93.364 28.1092 90.8186 27.4412C88.183 26.7733 87.0096 25.7985 87.0096 23.7947C87.0096 21.5743 88.7065 20.0579 91.3783 20.0579C93.9778 20.0579 95.5663 21.7729 95.8732 24.2099L93.8333 24.3182C93.6528 22.9101 92.8224 21.8992 91.3421 21.8992C89.9341 21.8992 89.0676 22.6213 89.0676 23.7044C89.0676 24.8056 89.7175 25.2389 91.8115 25.7804C94.8984 26.5747 96.0538 27.7301 96.0538 29.9144C96.0538 31.9904 94.2485 33.4526 91.5407 33.4526ZM102.221 33.4526C99.1517 33.4526 97.4187 30.9794 97.4187 26.7733C97.4187 22.531 99.1517 20.0579 102.221 20.0579C105.289 20.0579 107.022 22.531 107.022 26.7733C107.022 30.9794 105.289 33.4526 102.221 33.4526ZM102.221 31.5932C103.99 31.5932 104.928 29.9144 104.928 26.7733C104.928 23.6142 103.99 21.9173 102.221 21.9173C100.451 21.9173 99.5127 23.6142 99.5127 26.7733C99.5127 29.9144 100.451 31.5932 102.221 31.5932ZM113.045 33.4526C110.265 33.4526 108.64 31.7196 108.64 28.7229V20.3467H110.626V28.7951C110.626 30.6184 111.492 31.6113 113.045 31.6113C114.597 31.6113 115.464 30.6184 115.464 28.7951V20.3467H117.449V28.7229C117.449 31.7196 115.825 33.4526 113.045 33.4526ZM119.609 33.1637V20.3467H123.67C126.414 20.3467 128.075 21.809 128.075 24.1918C128.075 25.7263 127.136 26.8455 125.945 27.2426C127.209 27.4773 127.804 28.1814 127.931 29.5533L128.238 33.1637H126.216L125.927 29.8602C125.819 28.6507 125.259 28.2175 123.887 28.2175H121.594V33.1637H119.609ZM123.616 26.3761C125.115 26.3761 125.981 25.5999 125.981 24.2821C125.981 22.9823 125.115 22.17 123.616 22.17H121.594V26.3761H123.616ZM134.765 33.4526C131.642 33.4526 129.891 30.8892 129.891 26.7733C129.891 22.6394 131.642 20.0579 134.765 20.0579C137.202 20.0579 138.845 21.7368 139.333 24.5529L137.257 24.6612C136.914 22.8199 136.029 21.8992 134.765 21.8992C132.996 21.8992 131.985 23.6322 131.985 26.7733C131.985 29.9144 132.996 31.6113 134.765 31.6113C136.101 31.6113 137.022 30.6364 137.329 28.6327L139.405 28.741C138.953 31.6835 137.311 33.4526 134.765 33.4526ZM141.654 33.1637V20.3467H149.597V22.17H143.64V25.7985H149.381V27.6398H143.64V31.3405H149.742V33.1637H141.654ZM156.486 33.4526C153.67 33.4526 151.901 31.6293 151.684 28.9937L153.706 28.8493C153.959 30.5823 154.952 31.6113 156.522 31.6113C158.093 31.6113 158.941 30.9433 158.941 29.8602C158.941 28.7229 158.309 28.1092 155.764 27.4412C153.128 26.7733 151.955 25.7985 151.955 23.7947C151.955 21.5743 153.652 20.0579 156.324 20.0579C158.923 20.0579 160.512 21.7729 160.819 24.2099L158.779 24.3182C158.598 22.9101 157.768 21.8992 156.287 21.8992C154.879 21.8992 154.013 22.6213 154.013 23.7044C154.013 24.8056 154.663 25.2389 156.757 25.7804C159.844 26.5747 160.999 27.7301 160.999 29.9144C160.999 31.9904 159.194 33.4526 156.486 33.4526Z" fill="white"/>
<defs>
<radialGradient id="paint0_radial_176_1317" cx="0" cy="0" r="1" gradientTransform="matrix(206.888 -9.2158 266.635 42.8088 -7.97728 23.0806)" gradientUnits="userSpaceOnUse">
<stop stop-color="#6CE0FF"/>
<stop offset="1" stop-color="#A4A0FF"/>
</radialGradient>
</defs>
</svg>
