<svg width="60" height="1127" viewBox="0 0 60 1127" fill="none" xmlns="http://www.w3.org/2000/svg">
<g opacity="0.6" clip-path="url(#clip0_176_874)">
<line x1="400.854" y1="-382.146" x2="-381.146" y2="399.854" stroke="#393939"/>
<line x1="395.354" y1="-385.646" x2="-386.646" y2="396.354" stroke="#393939"/>
<line x1="404.354" y1="-374.646" x2="-377.646" y2="407.354" stroke="#393939"/>
<line x1="407.854" y1="-367.146" x2="-374.146" y2="414.854" stroke="#393939"/>
<line x1="411.354" y1="-359.646" x2="-370.646" y2="422.354" stroke="#393939"/>
<line x1="414.854" y1="-352.146" x2="-367.146" y2="429.854" stroke="#393939"/>
<line x1="418.354" y1="-344.646" x2="-363.646" y2="437.354" stroke="#393939"/>
<line x1="421.854" y1="-337.146" x2="-360.146" y2="444.854" stroke="#393939"/>
<line x1="425.354" y1="-329.646" x2="-356.646" y2="452.354" stroke="#393939"/>
<line x1="428.854" y1="-322.146" x2="-353.146" y2="459.854" stroke="#393939"/>
<line x1="432.354" y1="-314.646" x2="-349.646" y2="467.354" stroke="#393939"/>
<line x1="435.854" y1="-307.146" x2="-346.146" y2="474.854" stroke="#393939"/>
<line x1="439.354" y1="-299.646" x2="-342.646" y2="482.354" stroke="#393939"/>
<line x1="442.854" y1="-292.146" x2="-339.146" y2="489.854" stroke="#393939"/>
<line x1="446.354" y1="-284.646" x2="-335.646" y2="497.354" stroke="#393939"/>
<line x1="449.854" y1="-277.146" x2="-332.146" y2="504.854" stroke="#393939"/>
<line x1="453.354" y1="-269.646" x2="-328.646" y2="512.354" stroke="#393939"/>
<line x1="456.854" y1="-262.146" x2="-325.146" y2="519.854" stroke="#393939"/>
<line x1="460.354" y1="-254.646" x2="-321.646" y2="527.354" stroke="#393939"/>
<line x1="463.854" y1="-247.146" x2="-318.146" y2="534.854" stroke="#393939"/>
<line x1="467.354" y1="-239.646" x2="-314.646" y2="542.354" stroke="#393939"/>
<line x1="470.854" y1="-232.146" x2="-311.146" y2="549.854" stroke="#393939"/>
<line x1="474.354" y1="-224.646" x2="-307.646" y2="557.354" stroke="#393939"/>
<line x1="477.854" y1="-217.146" x2="-304.146" y2="564.854" stroke="#393939"/>
<line x1="481.354" y1="-209.646" x2="-300.646" y2="572.354" stroke="#393939"/>
<line x1="484.854" y1="-202.146" x2="-297.146" y2="579.854" stroke="#393939"/>
<line x1="488.354" y1="-194.646" x2="-293.646" y2="587.354" stroke="#393939"/>
<line x1="491.854" y1="-187.146" x2="-290.146" y2="594.854" stroke="#393939"/>
<line x1="495.354" y1="-179.646" x2="-286.646" y2="602.354" stroke="#393939"/>
<line x1="498.854" y1="-172.146" x2="-283.146" y2="609.854" stroke="#393939"/>
<line x1="502.354" y1="-164.646" x2="-279.646" y2="617.354" stroke="#393939"/>
<line x1="505.854" y1="-157.146" x2="-276.146" y2="624.854" stroke="#393939"/>
<line x1="509.354" y1="-149.646" x2="-272.646" y2="632.354" stroke="#393939"/>
<line x1="512.854" y1="-142.146" x2="-269.146" y2="639.854" stroke="#393939"/>
<line x1="516.354" y1="-134.646" x2="-265.646" y2="647.354" stroke="#393939"/>
<line x1="519.854" y1="-127.146" x2="-262.146" y2="654.854" stroke="#393939"/>
<line x1="523.354" y1="-119.646" x2="-258.646" y2="662.354" stroke="#393939"/>
<line x1="526.854" y1="-112.146" x2="-255.146" y2="669.854" stroke="#393939"/>
<line x1="530.354" y1="-104.646" x2="-251.646" y2="677.354" stroke="#393939"/>
<line x1="533.854" y1="-97.1464" x2="-248.146" y2="684.854" stroke="#393939"/>
<line x1="537.354" y1="-89.6464" x2="-244.646" y2="692.354" stroke="#393939"/>
<line x1="540.854" y1="-82.1464" x2="-241.146" y2="699.854" stroke="#393939"/>
<line x1="544.354" y1="-74.6464" x2="-237.646" y2="707.354" stroke="#393939"/>
<line x1="547.854" y1="-67.1464" x2="-234.146" y2="714.854" stroke="#393939"/>
<line x1="551.354" y1="-59.6464" x2="-230.646" y2="722.354" stroke="#393939"/>
<line x1="554.854" y1="-52.1464" x2="-227.146" y2="729.854" stroke="#393939"/>
<line x1="558.354" y1="-44.6464" x2="-223.646" y2="737.354" stroke="#393939"/>
<line x1="561.854" y1="-37.1464" x2="-220.146" y2="744.854" stroke="#393939"/>
<line x1="565.354" y1="-29.6464" x2="-216.646" y2="752.354" stroke="#393939"/>
<line x1="568.854" y1="-22.1464" x2="-213.146" y2="759.854" stroke="#393939"/>
<line x1="572.354" y1="-14.6464" x2="-209.646" y2="767.354" stroke="#393939"/>
<line x1="575.854" y1="-7.14645" x2="-206.146" y2="774.854" stroke="#393939"/>
<line x1="579.354" y1="0.353553" x2="-202.646" y2="782.354" stroke="#393939"/>
<line x1="582.854" y1="7.85355" x2="-199.146" y2="789.854" stroke="#393939"/>
<line x1="586.354" y1="15.3536" x2="-195.646" y2="797.354" stroke="#393939"/>
<line x1="589.854" y1="22.8536" x2="-192.146" y2="804.854" stroke="#393939"/>
<line x1="593.354" y1="30.3536" x2="-188.646" y2="812.354" stroke="#393939"/>
<line x1="596.854" y1="37.8536" x2="-185.146" y2="819.854" stroke="#393939"/>
<line x1="600.354" y1="45.3536" x2="-181.646" y2="827.354" stroke="#393939"/>
<line x1="603.854" y1="52.8536" x2="-178.146" y2="834.854" stroke="#393939"/>
<line x1="607.354" y1="60.3536" x2="-174.646" y2="842.354" stroke="#393939"/>
<line x1="610.854" y1="67.8536" x2="-171.146" y2="849.854" stroke="#393939"/>
<line x1="614.354" y1="75.3536" x2="-167.646" y2="857.354" stroke="#393939"/>
<line x1="617.854" y1="82.8536" x2="-164.146" y2="864.854" stroke="#393939"/>
<line x1="621.354" y1="90.3536" x2="-160.646" y2="872.354" stroke="#393939"/>
<line x1="624.854" y1="97.8536" x2="-157.146" y2="879.854" stroke="#393939"/>
<line x1="628.354" y1="105.354" x2="-153.646" y2="887.354" stroke="#393939"/>
<line x1="631.854" y1="112.854" x2="-150.146" y2="894.854" stroke="#393939"/>
<line x1="635.354" y1="120.354" x2="-146.646" y2="902.354" stroke="#393939"/>
<line x1="638.854" y1="127.854" x2="-143.146" y2="909.854" stroke="#393939"/>
<line x1="642.354" y1="135.354" x2="-139.646" y2="917.354" stroke="#393939"/>
<line x1="645.854" y1="142.854" x2="-136.146" y2="924.854" stroke="#393939"/>
<line x1="649.354" y1="150.354" x2="-132.646" y2="932.354" stroke="#393939"/>
<line x1="652.854" y1="157.854" x2="-129.146" y2="939.854" stroke="#393939"/>
<line x1="656.354" y1="165.354" x2="-125.646" y2="947.354" stroke="#393939"/>
<line x1="659.854" y1="172.854" x2="-122.146" y2="954.854" stroke="#393939"/>
<line x1="663.354" y1="180.354" x2="-118.646" y2="962.354" stroke="#393939"/>
<line x1="666.854" y1="187.854" x2="-115.146" y2="969.854" stroke="#393939"/>
<line x1="670.354" y1="195.354" x2="-111.646" y2="977.354" stroke="#393939"/>
<line x1="673.854" y1="202.854" x2="-108.146" y2="984.854" stroke="#393939"/>
<line x1="677.354" y1="210.354" x2="-104.646" y2="992.354" stroke="#393939"/>
<line x1="680.854" y1="217.854" x2="-101.146" y2="999.854" stroke="#393939"/>
<line x1="684.354" y1="225.354" x2="-97.6465" y2="1007.35" stroke="#393939"/>
<line x1="687.854" y1="232.854" x2="-94.1465" y2="1014.85" stroke="#393939"/>
<line x1="691.354" y1="240.354" x2="-90.6465" y2="1022.35" stroke="#393939"/>
<line x1="694.854" y1="247.854" x2="-87.1465" y2="1029.85" stroke="#393939"/>
<line x1="698.354" y1="255.354" x2="-83.6465" y2="1037.35" stroke="#393939"/>
<line x1="701.854" y1="262.854" x2="-80.1465" y2="1044.85" stroke="#393939"/>
<line x1="705.354" y1="270.354" x2="-76.6465" y2="1052.35" stroke="#393939"/>
<line x1="708.854" y1="277.854" x2="-73.1465" y2="1059.85" stroke="#393939"/>
<line x1="712.354" y1="285.354" x2="-69.6465" y2="1067.35" stroke="#393939"/>
<line x1="715.854" y1="292.854" x2="-66.1465" y2="1074.85" stroke="#393939"/>
<line x1="719.354" y1="300.354" x2="-62.6465" y2="1082.35" stroke="#393939"/>
<line x1="722.854" y1="307.854" x2="-59.1465" y2="1089.85" stroke="#393939"/>
<line x1="726.354" y1="315.354" x2="-55.6465" y2="1097.35" stroke="#393939"/>
<line x1="729.854" y1="322.854" x2="-52.1465" y2="1104.85" stroke="#393939"/>
<line x1="733.354" y1="330.354" x2="-48.6465" y2="1112.35" stroke="#393939"/>
<line x1="736.854" y1="337.854" x2="-45.1465" y2="1119.85" stroke="#393939"/>
<line x1="740.354" y1="345.354" x2="-41.6465" y2="1127.35" stroke="#393939"/>
<line x1="743.854" y1="352.854" x2="-38.1465" y2="1134.85" stroke="#393939"/>
<line x1="747.354" y1="360.354" x2="-34.6465" y2="1142.35" stroke="#393939"/>
<line x1="750.854" y1="367.854" x2="-31.1465" y2="1149.85" stroke="#393939"/>
<line x1="754.354" y1="375.354" x2="-27.6465" y2="1157.35" stroke="#393939"/>
<line x1="757.854" y1="382.854" x2="-24.1465" y2="1164.85" stroke="#393939"/>
<line x1="761.354" y1="390.354" x2="-20.6465" y2="1172.35" stroke="#393939"/>
<line x1="764.854" y1="397.854" x2="-17.1465" y2="1179.85" stroke="#393939"/>
<line x1="768.354" y1="405.354" x2="-13.6465" y2="1187.35" stroke="#393939"/>
<line x1="771.854" y1="412.854" x2="-10.1465" y2="1194.85" stroke="#393939"/>
<line x1="775.354" y1="420.354" x2="-6.64646" y2="1202.35" stroke="#393939"/>
<line x1="778.854" y1="427.854" x2="-3.14646" y2="1209.85" stroke="#393939"/>
<line x1="782.354" y1="435.354" x2="0.353543" y2="1217.35" stroke="#393939"/>
<line x1="785.854" y1="442.854" x2="3.85354" y2="1224.85" stroke="#393939"/>
<line x1="789.354" y1="450.354" x2="7.35354" y2="1232.35" stroke="#393939"/>
</g>
<defs>
<clipPath id="clip0_176_874">
<rect width="60" height="1127" fill="white"/>
</clipPath>
</defs>
</svg>
