<svg width="402" height="50" viewBox="0 0 402 50" fill="none" xmlns="http://www.w3.org/2000/svg">
<path d="M-0.000469108 40.3221V0.504884H26.6378V6.842H3.30829L7.29002 2.74811V21.0304L3.30829 17.7216H25.6284V24.0027H3.30829L7.29002 20.6939V40.3221H-0.000469108ZM39.1482 40.3221C36.9798 40.3221 35.2413 39.7613 33.9327 38.6397C32.6242 37.5181 31.9699 35.7235 31.9699 33.256V0.504884H39.1482V32.5269C39.1482 33.2747 39.3351 33.8355 39.709 34.2094C40.1203 34.5832 40.6811 34.7702 41.3914 34.7702H43.5786V40.3221H39.1482ZM61.1353 40.9951C58.1444 40.9951 55.546 40.3595 53.3401 39.0884C51.1343 37.7798 49.4332 35.9479 48.2368 33.5925C47.0404 31.2371 46.4422 28.4891 46.4422 25.3486C46.4422 22.2081 47.0404 19.4788 48.2368 17.1608C49.4332 14.8055 51.1156 12.9735 53.284 11.6649C55.4899 10.3564 58.0509 9.70211 60.9671 9.70211C63.8085 9.70211 66.2947 10.3377 68.4258 11.6089C70.5943 12.88 72.258 14.712 73.417 17.1048C74.576 19.4975 75.1555 22.3763 75.1555 25.7412V27.3675H53.9009C54.0505 29.9846 54.7608 31.9661 56.032 33.3121C57.3405 34.6206 59.0603 35.2749 61.1914 35.2749C62.7991 35.2749 64.1263 34.9197 65.1731 34.2094C66.2574 33.4616 67.0051 32.4335 67.4164 31.1249L74.7629 31.5736C73.9404 34.4898 72.3141 36.7891 69.8839 38.4715C67.4911 40.1539 64.5749 40.9951 61.1353 40.9951ZM53.9009 22.5446H67.7528C67.6033 20.1144 66.9116 18.3198 65.6779 17.1608C64.4441 15.9645 62.8738 15.3663 60.9671 15.3663C59.0603 15.3663 57.4714 15.9831 56.2002 17.2169C54.9665 18.4507 54.2 20.2266 53.9009 22.5446ZM76.6824 40.3221L87.4499 25.0682L77.0749 10.3751H84.8701L91.712 20.5818L98.4417 10.3751H106.349L96.0302 25.1243L106.742 40.3221H98.9464L91.8241 29.5547L84.6458 40.3221H76.6824ZM110.45 40.3221V10.3751H117.628V40.3221H110.45ZM110.338 6.39335V0.00015806H117.796V6.39335H110.338ZM140.73 40.9951C138.636 40.9951 136.804 40.5465 135.234 39.6492C133.701 38.7519 132.504 37.4994 131.644 35.8918L131.476 40.3221H124.634V0.504884H131.813V14.6372C132.635 13.2539 133.813 12.0949 135.346 11.1602C136.879 10.1881 138.673 9.70211 140.73 9.70211C143.309 9.70211 145.534 10.3564 147.403 11.6649C149.31 12.9361 150.768 14.7494 151.777 17.1048C152.824 19.4228 153.348 22.1707 153.348 25.3486C153.348 28.5265 152.824 31.2932 151.777 33.6486C150.768 35.9666 149.31 37.7798 147.403 39.0884C145.534 40.3595 143.309 40.9951 140.73 40.9951ZM139.103 35.1627C141.159 35.1627 142.805 34.3028 144.038 32.583C145.272 30.8258 145.889 28.4144 145.889 25.3486C145.889 22.2455 145.272 19.834 144.038 18.1142C142.842 16.3944 141.216 15.5345 139.159 15.5345C137.626 15.5345 136.299 15.9271 135.178 16.7122C134.093 17.4599 133.252 18.5629 132.654 20.021C132.093 21.479 131.813 23.2549 131.813 25.3486C131.813 27.3675 132.093 29.1247 132.654 30.6202C133.252 32.0783 134.093 33.1999 135.178 33.985C136.262 34.7702 137.57 35.1627 139.103 35.1627ZM166.37 40.3221C164.202 40.3221 162.463 39.7613 161.155 38.6397C159.846 37.5181 159.192 35.7235 159.192 33.256V0.504884H166.37V32.5269C166.37 33.2747 166.557 33.8355 166.931 34.2094C167.342 34.5832 167.903 34.7702 168.613 34.7702H170.801V40.3221H166.37ZM188.357 40.9951C185.366 40.9951 182.768 40.3595 180.562 39.0884C178.356 37.7798 176.655 35.9479 175.459 33.5925C174.262 31.2371 173.664 28.4891 173.664 25.3486C173.664 22.2081 174.262 19.4788 175.459 17.1608C176.655 14.8055 178.338 12.9735 180.506 11.6649C182.712 10.3564 185.273 9.70211 188.189 9.70211C191.031 9.70211 193.517 10.3377 195.648 11.6089C197.816 12.88 199.48 14.712 200.639 17.1048C201.798 19.4975 202.378 22.3763 202.378 25.7412V27.3675H181.123C181.272 29.9846 181.983 31.9661 183.254 33.3121C184.563 34.6206 186.282 35.2749 188.413 35.2749C190.021 35.2749 191.348 34.9197 192.395 34.2094C193.479 33.4616 194.227 32.4335 194.638 31.1249L201.985 31.5736C201.162 34.4898 199.536 36.7891 197.106 38.4715C194.713 40.1539 191.797 40.9951 188.357 40.9951ZM181.123 22.5446H194.975C194.825 20.1144 194.134 18.3198 192.9 17.1608C191.666 15.9645 190.096 15.3663 188.189 15.3663C186.282 15.3663 184.693 15.9831 183.422 17.2169C182.188 18.4507 181.422 20.2266 181.123 22.5446Z" fill="white"/>
<path d="M222.351 40.3221V0.504884H237.773C242.446 0.504884 246.091 1.6265 248.708 3.86972C251.326 6.11295 252.634 9.21608 252.634 13.1791C252.634 15.8336 252.036 18.1329 250.84 20.077C249.643 21.9838 247.942 23.4419 245.736 24.4513C243.53 25.4608 240.876 25.9655 237.773 25.9655H229.641V40.3221H222.351ZM229.641 19.6284H237.436C239.904 19.6284 241.792 19.0863 243.1 18.002C244.446 16.9178 245.119 15.3102 245.119 13.1791C245.119 11.0854 244.446 9.51518 243.1 8.46834C241.792 7.38411 239.904 6.842 237.436 6.842H229.641V19.6284ZM258.647 40.3221V10.3751H265.377L265.658 18.675L265.041 18.5629C265.489 15.684 266.33 13.6091 267.564 12.3379C268.835 11.0294 270.555 10.3751 272.724 10.3751H275.472V16.544H272.668C271.135 16.544 269.864 16.7683 268.854 17.2169C267.845 17.6656 267.078 18.3759 266.555 19.348C266.069 20.2827 265.826 21.5164 265.826 23.0493V40.3221H258.647ZM280.116 40.3221V10.3751H287.294V40.3221H280.116ZM280.004 6.39335V0.00015806H287.462V6.39335H280.004ZM307.64 40.9951C304.649 40.9951 302.05 40.3595 299.844 39.0884C297.639 37.7798 295.919 35.9479 294.685 33.5925C293.489 31.2371 292.89 28.4891 292.89 25.3486C292.89 22.2081 293.489 19.4788 294.685 17.1608C295.919 14.8055 297.639 12.9735 299.844 11.6649C302.05 10.3564 304.649 9.70211 307.64 9.70211C310.182 9.70211 312.444 10.1508 314.425 11.048C316.407 11.9453 318.015 13.2352 319.248 14.9176C320.519 16.5626 321.305 18.5815 321.604 20.9743L314.201 21.3669C313.902 19.4601 313.154 18.0207 311.958 17.0487C310.799 16.0392 309.359 15.5345 307.64 15.5345C305.322 15.5345 303.527 16.4131 302.256 18.1703C300.985 19.8901 300.349 22.2829 300.349 25.3486C300.349 28.4517 300.985 30.8632 302.256 32.583C303.527 34.3028 305.322 35.1627 307.64 35.1627C309.397 35.1627 310.855 34.658 312.014 33.6486C313.21 32.6391 313.939 31.0688 314.201 28.9378L321.604 29.2743C321.305 31.667 320.538 33.742 319.304 35.4992C318.071 37.2564 316.463 38.621 314.481 39.5931C312.5 40.5278 310.219 40.9951 307.64 40.9951ZM326.612 40.3221V10.3751H333.791V40.3221H326.612ZM326.5 6.39335V0.00015806H333.959V6.39335H326.5ZM342.111 40.3221V10.3751H348.617L348.897 18.7872L348.056 18.4507C348.355 16.357 348.972 14.6746 349.906 13.4034C350.841 12.1323 351.981 11.1976 353.327 10.5994C354.673 10.0012 356.15 9.70211 357.758 9.70211C359.964 9.70211 361.814 10.1881 363.31 11.1602C364.843 12.1323 366.002 13.4782 366.787 15.198C367.572 16.8804 367.964 18.8433 367.964 21.0865V40.3221H360.786V23.3858C360.786 21.7034 360.618 20.2827 360.281 19.1237C359.945 17.9647 359.384 17.0861 358.599 16.4879C357.851 15.8523 356.842 15.5345 355.571 15.5345C353.664 15.5345 352.131 16.2075 350.972 17.5534C349.85 18.8993 349.29 20.8435 349.29 23.3858V40.3221H342.111ZM387.867 49.4072C385.25 49.4072 383.007 49.052 381.137 48.3417C379.268 47.6313 377.754 46.6219 376.595 45.3133C375.473 44.0422 374.688 42.5654 374.239 40.883L381.642 40.3782C382.016 41.4998 382.651 42.3784 383.549 43.014C384.483 43.6496 385.923 43.9674 387.867 43.9674C390.073 43.9674 391.774 43.4627 392.97 42.4532C394.167 41.4811 394.765 39.9483 394.765 37.8546V34.0411C394.054 35.4992 392.914 36.6769 391.344 37.5742C389.774 38.4341 388.016 38.8641 386.072 38.8641C383.605 38.8641 381.399 38.2659 379.455 37.0695C377.548 35.8357 376.053 34.1346 374.968 31.9661C373.884 29.7603 373.342 27.218 373.342 24.3392C373.342 21.4604 373.865 18.9367 374.912 16.7683C375.996 14.5624 377.492 12.8426 379.399 11.6089C381.305 10.3377 383.493 9.70211 385.96 9.70211C388.129 9.70211 389.998 10.1881 391.568 11.1602C393.138 12.1323 394.279 13.4221 394.989 15.0298V10.3751H401.999V37.6864C401.999 40.2287 401.401 42.3784 400.205 44.1356C399.046 45.8928 397.401 47.2014 395.27 48.0613C393.176 48.9586 390.708 49.4072 387.867 49.4072ZM387.755 33.256C389.886 33.256 391.587 32.4709 392.858 30.9006C394.129 29.293 394.784 27.0871 394.821 24.2831C394.858 22.4137 394.578 20.8248 393.98 19.5162C393.419 18.1703 392.596 17.1421 391.512 16.4318C390.465 15.684 389.213 15.3102 387.755 15.3102C385.549 15.3102 383.829 16.1327 382.595 17.7777C381.399 19.3854 380.801 21.5538 380.801 24.2831C380.801 27.0123 381.418 29.1995 382.651 30.8445C383.923 32.4522 385.624 33.256 387.755 33.256Z" fill="url(#paint0_radial_176_687)"/>
<defs>
<radialGradient id="paint0_radial_176_687" cx="0" cy="0" r="1" gradientTransform="matrix(1102.97 -14.2638 1421.49 66.2574 -271.336 29.5228)" gradientUnits="userSpaceOnUse">
<stop stop-color="#6CE0FF"/>
<stop offset="1" stop-color="#A4A0FF"/>
</radialGradient>
</defs>
</svg>
