<svg width="40" height="40" viewBox="0 0 40 40" fill="none" xmlns="http://www.w3.org/2000/svg">
<path d="M0 20C0 8.95431 8.95431 0 20 0C31.0457 0 40 8.95431 40 20C40 31.0457 31.0457 40 20 40C8.95431 40 0 31.0457 0 20Z" fill="white" fill-opacity="0.12"/>
<circle opacity="0.1" cx="8.38889" cy="11.2409" r="1.38889" fill="white"/>
<circle opacity="0.1" cx="13.9436" cy="11.2409" r="1.38889" fill="white"/>
<circle cx="19.4983" cy="11.2409" r="1.38889" fill="white"/>
<circle opacity="0.1" cx="25.0569" cy="11.2409" r="1.38889" fill="white"/>
<circle opacity="0.1" cx="30.6115" cy="11.2409" r="1.38889" fill="white"/>
<circle opacity="0.1" cx="8.38889" cy="15.8708" r="1.38889" fill="white"/>
<circle opacity="0.1" cx="13.9436" cy="15.8708" r="1.38889" fill="white"/>
<circle opacity="0.1" cx="19.4983" cy="15.8708" r="1.38889" fill="white"/>
<circle cx="25.0569" cy="15.8708" r="1.38889" fill="white"/>
<circle opacity="0.1" cx="30.6115" cy="15.8708" r="1.38889" fill="white"/>
<circle cx="8.38889" cy="20.5002" r="1.38889" fill="white"/>
<circle cx="13.9436" cy="20.5002" r="1.38889" fill="white"/>
<circle cx="19.4983" cy="20.5002" r="1.38889" fill="white"/>
<circle cx="25.0569" cy="20.5002" r="1.38889" fill="white"/>
<circle cx="30.6115" cy="20.5002" r="1.38889" fill="white"/>
<circle opacity="0.1" cx="8.38889" cy="25.1296" r="1.38889" fill="white"/>
<circle opacity="0.1" cx="13.9436" cy="25.1296" r="1.38889" fill="white"/>
<circle opacity="0.1" cx="19.4983" cy="25.1296" r="1.38889" fill="white"/>
<circle cx="25.0569" cy="25.1296" r="1.38889" fill="white"/>
<circle opacity="0.1" cx="30.6115" cy="25.1296" r="1.38889" fill="white"/>
<circle opacity="0.1" cx="8.38889" cy="29.7595" r="1.38889" fill="white"/>
<circle opacity="0.1" cx="13.9436" cy="29.7595" r="1.38889" fill="white"/>
<circle cx="19.4983" cy="29.7595" r="1.38889" fill="white"/>
<circle opacity="0.1" cx="25.0569" cy="29.7595" r="1.38889" fill="white"/>
<circle opacity="0.1" cx="30.6115" cy="29.7595" r="1.38889" fill="white"/>
</svg>
