<svg width="16" height="16" viewBox="0 0 16 16" fill="none" xmlns="http://www.w3.org/2000/svg">
<g clip-path="url(#clip0_176_85)">
<circle cx="8" cy="8" r="8" fill="#2AAA6E" fill-opacity="0.3"/>
<circle cx="8" cy="8" r="6" fill="#2AAA6E"/>
<g clip-path="url(#clip1_176_85)">
<path d="M11.3268 6.92985L7.62292 10.6337C7.53638 10.7202 7.41903 10.7688 7.29667 10.7688C7.17432 10.7688 7.05697 10.7202 6.97042 10.6337L4.90446 8.55678C4.81806 8.47024 4.76953 8.35295 4.76953 8.23067C4.76953 8.10839 4.81806 7.9911 4.90446 7.90456L5.48138 7.32764C5.56788 7.2415 5.68499 7.19314 5.80706 7.19314C5.92913 7.19314 6.04623 7.2415 6.13273 7.32764L7.30821 8.46764L10.0994 5.71081C10.1859 5.62459 10.303 5.57617 10.4252 5.57617C10.5473 5.57617 10.6645 5.62459 10.751 5.71081L11.3265 6.27447C11.3698 6.31736 11.4041 6.36839 11.4276 6.42462C11.451 6.48085 11.4631 6.54117 11.4631 6.6021C11.4632 6.66303 11.4511 6.72336 11.4277 6.77961C11.4043 6.83587 11.37 6.88693 11.3268 6.92985Z" fill="black"/>
</g>
</g>
<defs>
<clipPath id="clip0_176_85">
<rect width="16" height="16" fill="white"/>
</clipPath>
<clipPath id="clip1_176_85">
<rect width="7.38462" height="7.38462" fill="white" transform="translate(4.30859 4.30762)"/>
</clipPath>
</defs>
</svg>
