<svg width="32" height="32" viewBox="0 0 32 32" fill="none" xmlns="http://www.w3.org/2000/svg">
<rect x="0.5" y="0.5" width="31" height="31" rx="7.5" stroke="white" stroke-opacity="0.16"/>
<g clip-path="url(#clip0_176_1192)">
<path d="M21.6432 13.7957L21.8076 13.4186C22.1006 12.7462 22.6284 12.2108 23.2869 11.9179L23.7933 11.6927C24.0672 11.5709 24.0672 11.1724 23.7933 11.0506L23.3152 10.8379C22.6398 10.5375 22.1026 9.98232 21.8146 9.28706L21.6458 8.87952C21.5282 8.5955 21.1359 8.5955 21.0182 8.87952L20.8494 9.28706C20.5615 9.98232 20.0243 10.5375 19.3488 10.8379L18.8707 11.0506C18.5969 11.1724 18.5969 11.5709 18.8707 11.6927L19.3772 11.9179C20.0357 12.2108 20.5634 12.7462 20.8564 13.4186L21.0208 13.7957C21.1411 14.0718 21.523 14.0718 21.6432 13.7957ZM11.8653 18.6665H13.3014L13.7014 17.6665H15.6293L16.0293 18.6665H17.4653L15.332 13.3332H13.9987L11.8653 18.6665ZM14.6653 15.2566L15.096 16.3332H14.2347L14.6653 15.2566ZM17.9987 18.6665V13.3332H19.332V18.6665H17.9987ZM9.9987 9.99984C9.63051 9.99984 9.33203 10.2983 9.33203 10.6665V21.3332C9.33203 21.7014 9.63051 21.9998 9.9987 21.9998H21.9987C22.3669 21.9998 22.6654 21.7014 22.6654 21.3332V15.3332H21.332V20.6665H10.6654V11.3332H17.332V9.99984H9.9987Z" fill="white"/>
</g>
<defs>
<clipPath id="clip0_176_1192">
<rect width="16" height="16" fill="white" transform="translate(8 8)"/>
</clipPath>
</defs>
</svg>
