<svg width="32" height="32" viewBox="0 0 32 32" fill="none" xmlns="http://www.w3.org/2000/svg">
<rect x="0.5" y="0.5" width="31" height="31" rx="7.5" stroke="white" stroke-opacity="0.16"/>
<path d="M12.0013 22.3334C10.7126 22.3334 9.66797 21.2887 9.66797 20C9.66797 18.7114 10.7126 17.6667 12.0013 17.6667C13.0581 17.6667 13.9508 18.3693 14.2378 19.3328L18.0013 19.333V18L19.3346 17.9996V14.1623L17.8393 12.6663H14.0013V14.0001H10.0013V10.0001H14.0013V11.333H17.8393L20.0013 9.17163L22.8297 12.0001L20.668 14.161V17.9996L22.0013 18V22H18.0013V20.6663L14.238 20.6669C13.9511 21.6306 13.0583 22.3334 12.0013 22.3334ZM12.0013 19C11.449 19 11.0013 19.4478 11.0013 20C11.0013 20.5524 11.449 21 12.0013 21C12.5536 21 13.0013 20.5524 13.0013 20C13.0013 19.4478 12.5536 19 12.0013 19ZM20.668 19.3334H19.3346V20.6667H20.668V19.3334ZM20.0013 11.0572L19.0585 12.0001L20.0013 12.9429L20.9441 12.0001L20.0013 11.0572ZM12.668 11.3334H11.3346V12.6667H12.668V11.3334Z" fill="white"/>
</svg>
