<svg width="94" height="25" viewBox="0 0 94 25" fill="none" xmlns="http://www.w3.org/2000/svg">
<g opacity="0.8" clip-path="url(#clip0_176_431)">
<mask id="mask0_176_431" style="mask-type:luminance" maskUnits="userSpaceOnUse" x="0" y="0" width="94" height="25">
<path d="M93.9986 0H0V24.8417H93.9986V0Z" fill="white"/>
</mask>
<g mask="url(#mask0_176_431)">
<path d="M30.877 15.0458V8.00702H35.5937V9.2945H32.2352V10.7727H34.3666V12.0602H32.2352V15.0458H30.877ZM38.1074 8.00702H39.4647V15.0458H38.1074V8.00702ZM48.1431 15.0458H46.9367L44.1409 10.9435C44.0468 10.8029 43.9502 10.6251 43.8492 10.4103C43.8699 10.5785 43.8794 10.7554 43.8794 10.9435V15.0458H42.5315V8.00702H43.8095L46.5346 12.0602C46.6485 12.2474 46.7452 12.4252 46.8263 12.5926C46.8056 12.4321 46.7952 12.2543 46.7952 12.0602V8.00702H48.1431V15.0458ZM55.836 15.0458L55.2933 13.5884H52.5785L52.0349 15.0458H50.5774L53.2723 8.00702H54.5995L57.2944 15.0458H55.836ZM54.8506 12.3509L54.1568 10.5207C54.0498 10.2532 53.9756 10.0418 53.9359 9.88733C53.8953 10.0418 53.8211 10.2532 53.715 10.5207L53.0203 12.3509H54.8506ZM65.3393 15.0458H64.133L61.3371 10.9435C61.2431 10.8029 61.1456 10.6251 61.0455 10.4103C61.0653 10.5785 61.0757 10.7554 61.0757 10.9435V15.0458H59.7278V8.00702H61.0049L63.73 12.0602C63.8439 12.2474 63.9414 12.4252 64.0217 12.5926C64.0018 12.4321 63.9915 12.2543 63.9915 12.0602V8.00702H65.3393V15.0458ZM71.0614 15.1572C68.917 15.1572 68.1041 13.3709 68.1041 11.5268C68.1041 10.7312 68.4148 7.89657 71.0614 7.89657C72.8873 7.89657 73.4905 9.27812 73.575 9.48521L72.3583 10.0383C71.8682 9.28502 71.4566 9.20391 71.0614 9.20391C70.39 9.20391 69.5124 9.72337 69.5124 11.5268C69.5124 11.7452 69.5797 13.849 71.0614 13.849C71.5506 13.849 71.9761 13.5478 72.3385 12.9446L73.5854 13.4175C73.0625 14.5773 72.2211 15.1572 71.0614 15.1572ZM76.2501 8.00702H77.6075V15.0458H76.2501V8.00702ZM85.3513 15.0458L84.8077 13.5884H82.0929L81.5493 15.0458H80.0918L82.7867 8.00702H84.1139L86.8088 15.0458H85.3513ZM84.365 12.3509L83.6712 10.5207C83.5642 10.2532 83.49 10.0418 83.4503 9.88733C83.4097 10.0418 83.3355 10.2532 83.2294 10.5207L82.5356 12.3509H84.365ZM89.2422 15.0458V8.00702H90.6004V13.7394H93.9986V15.0458H89.2422ZM24.8417 3.54227C24.8417 1.3945 23.449 0 21.2977 0H3.54314C1.39534 0 0 1.39187 0 3.54227V21.2994C0 23.4472 1.39189 24.8417 3.54314 24.8417H21.2977C23.4464 24.8417 24.8417 23.4498 24.8417 21.2994V3.54227ZM21.1329 23.2652H3.70796C2.30227 23.2652 1.57655 22.542 1.57655 21.1346V3.70712C1.57655 2.30229 2.30054 1.57658 3.70796 1.57658H21.1329C22.5386 1.57658 23.2652 2.29966 23.2652 3.70712V21.1346C23.2652 22.5394 22.5412 23.2652 21.1329 23.2652ZM20.2389 8.46349V15.0458H18.4285V8.72842C18.4285 8.29006 18.1411 8.00702 17.7149 8.00702H16.6914V15.0458H14.881V8.00702H13.144V15.0458H11.3336V6.43566H18.211C19.4744 6.43566 20.2389 7.21831 20.2389 8.46349ZM9.95981 6.43566V15.3962C9.95981 16.4498 9.48952 18.4061 6.41235 18.4061H5.65039V16.8165H6.41235C7.62216 16.7941 8.12438 16.2841 8.14509 15.4074V15.0458H6.63067C5.4269 15.0458 4.60281 14.2347 4.60281 13.0188V8.46349C4.60281 7.25112 5.40878 6.43566 6.63067 6.43566H9.95981ZM8.14941 8.00702H7.1303C6.70229 8.00702 6.41235 8.30644 6.41235 8.72236V12.741C6.41235 13.1742 6.71782 13.4727 7.15101 13.4727H8.14941V8.00702ZM11.3336 18.4061H20.2389V16.8166H11.3336V18.4061Z" fill="white"/>
</g>
</g>
<defs>
<clipPath id="clip0_176_431">
<rect width="93.0689" height="24.596" fill="white" transform="scale(1.00999)"/>
</clipPath>
</defs>
</svg>
