<svg width="82" height="27" viewBox="0 0 82 27" fill="none" xmlns="http://www.w3.org/2000/svg">
<g opacity="0.8">
<path d="M35.7872 12.5683C35.7872 13.6704 35.7872 14.7849 35.7872 15.887C35.7872 16.308 35.7377 16.729 35.6263 17.1377C35.2795 18.475 34.4499 19.3914 33.1621 19.8991C32.803 20.0353 32.4315 20.1343 32.0476 20.1839C31.478 20.2705 30.896 20.2705 30.3264 20.221C29.8558 20.1839 29.3853 20.0848 28.9395 19.9114C28.3203 19.6762 27.7879 19.3171 27.3668 18.8094C27.1439 18.5245 26.9582 18.2274 26.822 17.8806C26.8096 17.8311 26.822 17.794 26.8715 17.7692C26.9087 17.7568 26.9582 17.732 26.9953 17.7197C27.4783 17.5339 27.9612 17.3358 28.4441 17.15C28.6175 17.0757 28.7909 17.0138 28.9766 16.9395C29.0014 16.9271 29.0633 16.9395 29.0757 16.9643C29.1004 17.0014 29.1128 17.0386 29.1376 17.0881C29.311 17.3977 29.5834 17.633 29.9053 17.7816C30.1654 17.9054 30.4502 17.9797 30.735 18.0045C31.0817 18.0292 31.4161 18.0292 31.7504 17.9549C31.9981 17.9054 32.2333 17.8187 32.4562 17.6949C32.9639 17.3853 33.2487 16.9271 33.2983 16.3328C33.3107 16.2089 33.2983 16.0851 33.2983 15.9613L33.2859 15.9489C33.2735 15.9489 33.2611 15.9365 33.2611 15.9365C33.2364 15.9489 33.224 15.9737 33.1992 15.986C32.7039 16.4442 32.1095 16.7043 31.4408 16.7909C30.6112 16.9024 29.8063 16.7909 29.0509 16.4442C27.8869 15.8994 27.1316 14.9954 26.822 13.7323C26.5496 12.6055 26.6982 11.5158 27.3173 10.5128C27.8993 9.55928 28.7537 8.95251 29.8434 8.68009C30.3759 8.54388 30.9084 8.51911 31.4532 8.59341C32.0971 8.68009 32.6791 8.92775 33.1744 9.37353C33.1992 9.3983 33.224 9.42307 33.2611 9.43545C33.2735 9.44783 33.2983 9.43545 33.3107 9.43545C33.3107 9.43545 33.323 9.42307 33.323 9.41068C33.323 9.2497 33.323 9.08873 33.3354 8.92775C33.3354 8.87822 33.3354 8.84107 33.3478 8.79153C33.3478 8.77915 33.3726 8.76677 33.385 8.75439C33.4097 8.742 33.4345 8.742 33.4593 8.742C34.2022 8.742 34.9452 8.742 35.7006 8.742C35.7129 8.742 35.7377 8.742 35.7501 8.75439C35.7625 8.76677 35.7749 8.77915 35.7872 8.79153C35.7996 8.80392 35.7996 8.82868 35.7996 8.84107C35.7996 8.92775 35.7996 9.00205 35.7996 9.08873C35.7872 10.2403 35.7872 11.4043 35.7872 12.5683ZM33.1621 12.9151C33.1621 12.6426 33.1497 12.4445 33.0878 12.2588C32.902 11.6272 32.5058 11.1938 31.8742 10.9957C31.6637 10.9214 31.4408 10.8966 31.2179 10.8966C30.4502 10.9214 29.8806 11.2805 29.5462 11.974C29.2738 12.5436 29.2738 13.138 29.5462 13.72C29.7691 14.2029 30.153 14.5372 30.6607 14.7106C30.9084 14.7973 31.1684 14.8097 31.4284 14.7849C32.06 14.7354 32.5553 14.4382 32.8896 13.8933C33.0754 13.5714 33.1621 13.2246 33.1621 12.9151Z" fill="white"/>
<path d="M74.2983 12.9643C74.2983 14.2521 74.2983 15.5523 74.3107 16.8402C74.3107 16.9268 74.3107 17.0135 74.2983 17.1126C74.2983 17.1497 74.2612 17.1869 74.2364 17.1869C74.1993 17.1869 74.1621 17.1993 74.125 17.1993C73.4192 17.1993 72.7257 17.1993 72.0199 17.1993C71.9827 17.1993 71.9456 17.1993 71.9084 17.1869C71.8837 17.1869 71.8341 17.1497 71.8341 17.1126C71.8341 17.0259 71.8341 16.9392 71.8218 16.8402C71.8218 16.7411 71.8218 16.642 71.8094 16.543C71.8094 16.5306 71.797 16.5058 71.7722 16.5058C71.7598 16.5058 71.7351 16.5058 71.7227 16.5058C71.6979 16.5306 71.6608 16.543 71.636 16.5677C71.215 16.9516 70.7197 17.1869 70.1624 17.3107C70.0262 17.3355 69.8776 17.3603 69.7414 17.3603C69.5433 17.3603 69.3452 17.3726 69.147 17.3603C68.6393 17.3479 68.1564 17.2364 67.6858 17.0383C66.8562 16.6792 66.2247 16.1096 65.7789 15.3294C65.5064 14.8589 65.3331 14.3512 65.2464 13.8187C65.1597 13.3234 65.1597 12.8281 65.2092 12.3452C65.2835 11.6517 65.5064 11.0202 65.9027 10.4382C66.3732 9.78188 66.9924 9.31133 67.7354 9.01413C68.1688 8.84077 68.6269 8.75409 69.0975 8.72933C69.3452 8.71694 69.5804 8.71694 69.8281 8.74171C70.4844 8.79124 71.0664 9.00175 71.5865 9.41039C71.6484 9.45992 71.6979 9.49707 71.7598 9.5466C71.7722 9.55898 71.797 9.5466 71.8094 9.5466C71.8218 9.53422 71.8341 9.52184 71.8341 9.50945C71.8341 9.32371 71.8341 9.13796 71.8465 8.93984C71.8465 8.8903 71.8589 8.85315 71.8589 8.80362C71.8589 8.79124 71.8837 8.77886 71.896 8.76647C71.9084 8.75409 71.9332 8.75409 71.9456 8.75409C72.0075 8.75409 72.0694 8.75409 72.1313 8.75409C72.7629 8.75409 73.3944 8.75409 74.0135 8.75409C74.0755 8.75409 74.1374 8.75409 74.1993 8.75409C74.2364 8.75409 74.286 8.79124 74.286 8.84077C74.286 8.92745 74.286 9.01413 74.286 9.1132C74.286 10.401 74.286 11.6765 74.2983 12.9643ZM67.8592 13.0014C67.8468 13.2367 67.884 13.4844 67.9707 13.732C68.0821 14.0664 68.2555 14.3512 68.5155 14.5741C68.8994 14.9084 69.3575 15.0446 69.8529 15.0323C69.9519 15.0323 70.051 15.0075 70.1501 14.9951C70.3977 14.958 70.6206 14.8713 70.8311 14.7474C71.1902 14.5246 71.4379 14.215 71.5865 13.8311C71.7846 13.2863 71.797 12.7414 71.6236 12.1966C71.4874 11.7632 71.2274 11.4164 70.8311 11.1688C70.4101 10.9211 69.9519 10.8344 69.4814 10.9087C68.8251 11.0202 68.3545 11.3793 68.0573 11.986C67.9087 12.308 67.8468 12.6423 67.8592 13.0014Z" fill="white"/>
<path d="M61.2711 13.7575C60.3671 13.7575 59.4508 13.7575 58.5468 13.7575C58.4601 13.7575 58.3858 13.7575 58.2992 13.7575C58.262 13.7575 58.2372 13.7947 58.2496 13.8318C58.2496 13.8442 58.2496 13.869 58.262 13.8814C58.522 14.5748 59.005 15.0082 59.7356 15.1568C60.1071 15.2311 60.4909 15.2187 60.8624 15.1444C61.2711 15.0701 61.593 14.8596 61.8407 14.5377C61.8778 14.4757 61.9274 14.4262 61.9645 14.3643C61.9769 14.3519 62.0017 14.3519 62.014 14.3519C62.0388 14.3643 62.0636 14.3767 62.0883 14.3891C62.6827 14.7853 63.2895 15.1816 63.8839 15.5778C63.9086 15.5902 63.9334 15.615 63.9458 15.6274C63.9582 15.6397 63.9582 15.6645 63.9582 15.6769C63.9458 15.7017 63.9334 15.7264 63.921 15.7388C63.3514 16.457 62.6208 16.94 61.7416 17.1752C61.3577 17.2743 60.9739 17.3362 60.5776 17.3486C60.3052 17.361 60.0328 17.361 59.7727 17.3486C59.1536 17.3114 58.5468 17.1628 57.9896 16.8904C56.9123 16.358 56.2064 15.5159 55.8597 14.3767C55.6987 13.8566 55.6244 13.3241 55.6492 12.7793C55.7359 10.7113 57.1475 9.17583 58.7821 8.6929C59.3269 8.53192 59.8842 8.47001 60.4538 8.53192C60.912 8.58145 61.3577 8.66813 61.7788 8.85388C62.9799 9.39873 63.7724 10.2779 64.1934 11.5162C64.3792 12.0734 64.4411 12.6554 64.3916 13.2498C64.3544 13.6956 64.3544 13.7328 64.3173 13.7452C64.1563 13.7823 63.9953 13.7575 63.8343 13.7575C62.9799 13.7575 62.1255 13.7575 61.2711 13.7575ZM60.0328 12.0858C60.5652 12.0858 61.0977 12.0858 61.6178 12.0858C61.6921 12.0858 61.7664 12.0858 61.8283 12.0858C61.8654 12.0858 61.8902 12.0487 61.8778 12.0115C61.8035 11.702 61.6797 11.4172 61.4692 11.1695C61.2463 10.8971 60.9739 10.7113 60.6272 10.6123C60.2309 10.5008 59.847 10.5008 59.4632 10.6123C58.7449 10.8104 58.3735 11.3181 58.2001 12.0115C58.2001 12.0363 58.2249 12.0611 58.2372 12.0734C58.3115 12.0734 58.3858 12.0734 58.4478 12.0734C58.9926 12.0858 59.5127 12.0858 60.0328 12.0858Z" fill="white"/>
<path d="M36.9108 12.9649C36.9108 11.6647 36.9108 10.3645 36.9108 9.05189C36.9108 8.96521 36.9108 8.89091 36.9108 8.80423C36.9108 8.79185 36.948 8.74231 36.9604 8.74231C36.9851 8.74231 37.0099 8.74231 37.047 8.74231C37.79 8.74231 38.533 8.74231 39.2883 8.74231C39.3131 8.74231 39.3379 8.74231 39.3626 8.7547C39.3874 8.76708 39.4122 8.77946 39.4122 8.81661C39.4122 8.86614 39.4122 8.92806 39.4246 8.97759C39.4246 9.08904 39.4246 9.21287 39.4246 9.32431C39.4246 9.3367 39.4369 9.34908 39.4493 9.36146C39.4493 9.36146 39.4617 9.36146 39.4741 9.36146C39.5112 9.3367 39.5484 9.31193 39.5855 9.28717C40.1056 8.87853 40.7 8.65563 41.3563 8.58134C41.7278 8.5318 42.0869 8.54419 42.4584 8.59372C42.9042 8.65563 43.3252 8.80423 43.7091 9.05189C44.3158 9.43576 44.7121 9.96823 44.935 10.6369C45.034 10.9465 45.096 11.2561 45.1083 11.5904C45.1083 11.7018 45.1207 11.8009 45.1207 11.9124C45.1207 13.5841 45.1207 15.2558 45.1207 16.9275C45.1207 17.0018 45.1207 17.076 45.1083 17.138C45.1083 17.1503 45.0836 17.1627 45.0712 17.1751C45.0588 17.1875 45.034 17.1875 45.0217 17.1875C44.9474 17.1875 44.8731 17.1875 44.8112 17.1875C44.1301 17.1875 43.449 17.1875 42.768 17.1875C42.6813 17.1875 42.607 17.1875 42.5203 17.1875C42.5079 17.1875 42.4708 17.1503 42.4708 17.138C42.4708 17.0637 42.4584 16.977 42.4584 16.9027C42.4584 15.4415 42.4584 13.9927 42.4584 12.5315C42.4584 12.3581 42.446 12.1848 42.4212 12.0238C42.3098 11.4418 41.8888 11.0703 41.3687 10.9589C41.0096 10.8846 40.6752 10.9217 40.3409 11.0827C40.0066 11.2437 39.7589 11.5037 39.6351 11.8628C39.5855 11.999 39.5732 12.1476 39.5608 12.2838C39.5608 12.3581 39.5608 12.4324 39.5608 12.4944C39.5608 13.9803 39.5608 15.4539 39.5608 16.9398C39.5608 17.1999 39.5732 17.1875 39.3131 17.1875C38.5825 17.1875 37.8519 17.1875 37.1337 17.1875C37.0718 17.1875 37.0099 17.1875 36.948 17.1751C36.9356 17.1751 36.9232 17.1503 36.9108 17.138C36.8984 17.1256 36.8984 17.1008 36.8984 17.0884C36.8984 17.0018 36.8984 16.9275 36.8984 16.8408C36.9108 15.5529 36.9108 14.2527 36.9108 12.9649Z" fill="white"/>
<path d="M53.4568 12.457C53.4568 12.8408 53.4568 13.2247 53.4568 13.621C53.4568 13.7696 53.4692 13.9305 53.5063 14.0791C53.6426 14.6116 54.0512 14.8221 54.4103 14.8469C54.5217 14.8593 54.6208 14.8593 54.7323 14.8593C54.9675 14.8593 55.2028 14.8593 55.4381 14.8593C55.4876 14.8593 55.5124 14.8964 55.5248 14.9459C55.5248 14.9583 55.5248 14.9831 55.5248 14.9955C55.5248 15.0079 55.5248 15.0326 55.5248 15.045C55.5248 15.6889 55.5248 16.3328 55.5248 16.9891C55.5248 17.0263 55.5248 17.0634 55.5248 17.1006C55.5248 17.1501 55.4876 17.1749 55.4381 17.1749C55.3886 17.1749 55.3514 17.1749 55.3019 17.1749C54.918 17.1749 54.5341 17.1749 54.1379 17.1749C53.8283 17.1749 53.5063 17.1625 53.1968 17.1006C52.9367 17.051 52.6767 16.9644 52.429 16.8529C51.8223 16.5681 51.3765 16.1099 51.104 15.5032C50.9431 15.1441 50.8564 14.7602 50.8192 14.3639C50.8069 14.1906 50.8069 14.0172 50.8069 13.8562C50.8069 13.0266 50.8069 12.1845 50.8069 11.3549C50.8069 11.2682 50.8069 11.1939 50.8069 11.1072C50.8069 11.0825 50.7573 11.0329 50.7326 11.0329C50.683 11.0329 50.6211 11.0329 50.5716 11.0329C50.2372 11.0329 49.9029 11.0329 49.5686 11.0329C49.519 11.0329 49.4819 11.0329 49.4323 11.0205C49.42 11.0205 49.3952 10.9958 49.3952 10.9834C49.3828 10.9462 49.3828 10.9091 49.3828 10.8843C49.3828 10.2404 49.3828 9.5965 49.3828 8.9402C49.3828 8.90306 49.3828 8.86591 49.3828 8.82876C49.3828 8.79161 49.42 8.76684 49.4571 8.76684C49.5066 8.76684 49.5686 8.76684 49.6181 8.76684C49.7791 8.76684 49.94 8.76684 50.101 8.76684C50.1753 8.76684 50.262 8.75446 50.3363 8.74208C50.6706 8.66778 50.8564 8.44489 50.9183 8.11055C50.9431 7.97433 50.9431 7.83812 50.9431 7.71429C50.9431 7.40472 50.9431 7.10753 50.9431 6.79795C50.9431 6.73604 50.9431 6.67412 50.9431 6.61221C50.9431 6.57506 50.9802 6.55029 51.0174 6.55029C51.0421 6.55029 51.0669 6.55029 51.104 6.55029C51.8594 6.55029 52.6148 6.55029 53.3701 6.55029C53.4073 6.55029 53.4444 6.55029 53.4816 6.55029C53.5187 6.55029 53.5435 6.58744 53.5435 6.62459C53.5435 6.69889 53.5435 6.77319 53.5435 6.8351C53.5435 7.39233 53.5435 7.94957 53.5435 8.5068C53.5435 8.5811 53.5435 8.6554 53.5559 8.71731C53.5559 8.7297 53.593 8.76684 53.6054 8.76684C53.6797 8.77923 53.754 8.76684 53.8159 8.76684C54.2989 8.76684 54.7818 8.76684 55.2771 8.76684C55.3266 8.76684 55.3638 8.76684 55.4133 8.77923C55.4257 8.77923 55.4381 8.80399 55.4505 8.81638C55.4628 8.84114 55.4628 8.86591 55.4628 8.89067C55.4628 9.57174 55.4628 10.2528 55.4628 10.9339C55.4628 10.9462 55.4628 10.971 55.4628 10.9834C55.4505 10.9958 55.4381 11.0205 55.4257 11.0205C55.3762 11.0205 55.3143 11.0329 55.2647 11.0329C54.7818 11.0329 54.2989 11.0329 53.8035 11.0329C53.7292 11.0329 53.6549 11.0329 53.593 11.0329C53.4692 11.0329 53.4568 11.0701 53.4568 11.1815C53.4568 11.2434 53.4568 11.3054 53.4568 11.3673C53.4568 11.7264 53.4568 12.0855 53.4568 12.457Z" fill="white"/>
<path d="M13.0651 16.1227C13.0279 16.3208 13.0279 16.5189 12.9908 16.7047C12.8298 17.5343 12.5079 18.2773 11.9754 18.9336C11.5791 19.4413 11.0962 19.8623 10.5637 20.2091C9.98173 20.5929 9.36258 20.8901 8.6939 21.0882C8.2605 21.2121 7.83948 21.3607 7.40607 21.4845C7.36893 21.4969 7.33178 21.4969 7.30701 21.5093C7.29463 21.5093 7.28225 21.4969 7.26986 21.4845V21.4597C7.30701 21.3978 7.34416 21.3359 7.38131 21.274C7.65373 20.9149 7.91378 20.5558 8.1862 20.1967C8.29765 20.0481 8.40909 19.8871 8.50816 19.7261C8.59484 19.5899 8.65675 19.4413 8.70629 19.2803C8.75582 19.1317 8.7682 18.9831 8.74343 18.8222C8.73105 18.7479 8.6939 18.6859 8.64437 18.6364C8.61961 18.6116 8.59484 18.5869 8.55769 18.5621C8.37195 18.4259 8.16144 18.4507 8.00046 18.624C7.95092 18.6736 7.91378 18.7355 7.87663 18.7974C7.76518 18.9955 7.66612 19.1936 7.56705 19.3918C7.45561 19.6147 7.35654 19.8252 7.25748 20.0481C7.04697 20.5434 6.71263 20.9273 6.30399 21.2616C5.94488 21.5464 5.54863 21.7817 5.12761 21.9674C4.87995 22.0789 4.61991 22.1903 4.35986 22.277C4.07506 22.3761 3.79025 22.438 3.50544 22.5123C3.41876 22.537 3.39399 22.5247 3.38161 22.4256C3.34446 22.1408 3.34446 21.856 3.33208 21.5712C3.30731 21.1749 3.28255 20.7787 3.2454 20.3948C3.2454 20.37 3.2454 20.3453 3.2454 20.3081C3.23301 20.0233 3.22063 19.7385 3.19587 19.4537C3.1711 19.1689 3.1711 18.8841 3.14633 18.5993C3.10919 18.1411 3.0968 17.6829 3.07204 17.2248C3.07204 17.1752 3.07204 17.1133 3.05965 17.0638C3.01012 16.6056 3.01012 16.1474 3.0225 15.6893C3.03489 15.3178 3.10919 14.9587 3.20825 14.5996C3.27016 14.3519 3.35684 14.1166 3.45591 13.8814C3.57974 13.547 3.76548 13.2498 3.95123 12.965C4.13697 12.6926 4.34748 12.4325 4.58276 12.1973C4.78089 12.0115 4.97901 11.8382 5.20191 11.6772C5.25144 11.64 5.28859 11.6153 5.32574 11.5781C5.33812 11.5781 5.36289 11.5781 5.37527 11.5781C5.89535 11.64 6.41544 11.7391 6.92314 11.8877C7.00982 11.9125 7.0965 11.9496 7.1708 11.9744C7.07173 11.9991 6.98505 12.0239 6.88599 12.0611C6.09348 12.3335 5.4248 12.7917 4.92948 13.4727C4.38463 14.2281 4.12459 15.0701 4.08744 15.9865C4.07506 16.197 4.09982 16.4199 4.11221 16.6304C4.13697 16.9399 4.13697 17.2619 4.17412 17.5715C4.19889 17.8563 4.19889 18.1411 4.22365 18.4259C4.24842 18.7107 4.24842 18.9955 4.27318 19.2803C4.31033 19.7261 4.32272 20.1719 4.34748 20.6301C4.35986 20.7539 4.37225 20.8777 4.38463 21.0016C4.38463 21.0263 4.42178 21.0511 4.44655 21.0387C4.45893 21.0387 4.48369 21.0387 4.49608 21.0263C4.87995 20.853 5.25144 20.6548 5.58578 20.3948C5.88297 20.1595 6.13063 19.8747 6.26684 19.5156C6.27922 19.5032 6.27922 19.4785 6.29161 19.4661C6.46497 19.1193 6.62595 18.7726 6.79931 18.4259C6.87361 18.2773 6.96029 18.1411 7.04697 18.0049C7.25748 17.6829 7.56705 17.4848 7.93854 17.3857C8.12429 17.3362 8.32241 17.3238 8.52054 17.361C9.00348 17.4476 9.44926 17.7696 9.65977 18.2154C9.75884 18.4259 9.82075 18.6488 9.82075 18.8965C9.82075 19.0203 9.80837 19.1441 9.79599 19.2679C9.79599 19.2803 9.79599 19.2927 9.80837 19.2927C9.82075 19.2927 9.84552 19.3051 9.8579 19.3051C9.89505 19.2927 9.91982 19.2803 9.95697 19.2556C10.2665 19.0451 10.5637 18.8098 10.8238 18.525C11.1705 18.1659 11.4429 17.7572 11.6287 17.2991C11.7773 16.9276 11.8763 16.5437 11.9259 16.1598C11.963 15.8255 11.963 15.4788 11.8887 15.1444C11.8639 15.0454 11.8516 14.9463 11.8268 14.8596C11.8144 14.8101 11.802 14.7482 11.8144 14.6986C11.8392 14.711 11.8639 14.7234 11.8763 14.7358C12.0868 14.9463 12.2973 15.1444 12.4831 15.3673C12.5202 15.4168 12.5698 15.454 12.6193 15.4911C12.6688 15.6026 12.7555 15.7017 12.8422 15.7883C12.9413 15.9245 13.0156 16.0236 13.0651 16.1227Z" fill="white"/>
<path d="M23.2422 12.977C23.2422 11.6768 23.2422 10.3766 23.2422 9.07635C23.2422 8.98967 23.2422 8.91537 23.2422 8.82869C23.2422 8.77916 23.2793 8.75439 23.3289 8.75439C23.3536 8.75439 23.3784 8.75439 23.4156 8.75439C24.1957 8.75439 24.9758 8.75439 25.7559 8.75439C25.7931 8.75439 25.8302 8.7544 25.8674 8.76678C25.8798 8.76678 25.9045 8.79154 25.9045 8.80393C25.9169 8.81631 25.9169 8.84108 25.9169 8.85346C25.9169 8.92776 25.9169 9.00205 25.9169 9.06397C25.9169 11.6644 25.9169 14.2772 25.9169 16.8776C25.9169 16.9643 25.9169 17.0386 25.9169 17.1253C25.9169 17.1624 25.8798 17.1872 25.8426 17.1872C25.7931 17.1872 25.7559 17.1872 25.7064 17.1872C24.951 17.1872 24.1957 17.1872 23.4403 17.1872C23.3908 17.1872 23.3536 17.1872 23.3041 17.1748C23.2793 17.1748 23.2546 17.15 23.2546 17.1253C23.2422 17.0634 23.2422 17.0015 23.2422 16.9395C23.2422 16.3699 23.2422 15.8127 23.2422 15.2431C23.2422 14.4877 23.2422 13.7323 23.2422 12.977Z" fill="white"/>
<path d="M46.1875 12.9767C46.1875 11.6888 46.1875 10.3886 46.1875 9.10081C46.1875 9.01412 46.1875 8.93983 46.1875 8.85315C46.1875 8.76647 46.2123 8.7417 46.2989 8.7417C46.3732 8.7417 46.4475 8.7417 46.5095 8.7417C47.1781 8.7417 47.8592 8.7417 48.5279 8.7417C48.6146 8.7417 48.6889 8.7417 48.7755 8.7417C48.8127 8.7417 48.8498 8.77885 48.8498 8.80361C48.8498 8.89029 48.8622 8.97698 48.8622 9.07604C48.8622 11.6641 48.8622 14.2521 48.8622 16.8278C48.8622 16.9145 48.8622 16.9888 48.8622 17.0754C48.8622 17.0878 48.8622 17.1126 48.8498 17.125C48.8375 17.1374 48.8251 17.1497 48.8127 17.1621C48.7879 17.1745 48.7632 17.1745 48.7384 17.1745C47.9335 17.1745 47.1286 17.1745 46.3113 17.1745C46.2989 17.1745 46.2742 17.1745 46.2618 17.1745C46.2494 17.1745 46.2123 17.1374 46.2123 17.125C46.2123 17.0507 46.1999 16.964 46.1999 16.8897C46.1875 15.5771 46.1875 14.2769 46.1875 12.9767Z" fill="white"/>
<path d="M26.4233 5.96891C26.4357 6.94716 25.6556 7.80159 24.603 7.81397C23.5752 7.82635 22.7456 7.00908 22.7579 5.96891C22.7579 4.87921 23.6619 4.13623 24.5906 4.13623C25.5689 4.13623 26.4233 4.92874 26.4233 5.96891Z" fill="white"/>
<path d="M47.5755 4.14802C48.5043 4.13563 49.4082 4.891 49.4082 5.9807C49.4082 7.02087 48.5786 7.82576 47.5508 7.81338C46.4982 7.80099 45.7305 6.94657 45.7305 5.96831C45.7429 4.92814 46.5973 4.12325 47.5755 4.14802Z" fill="white"/>
<path d="M71.895 22.2646C71.895 22.5123 71.895 22.7723 71.895 23.02C71.895 23.1067 71.8826 23.2058 71.8703 23.2924C71.796 23.6392 71.5854 23.8373 71.2387 23.9116C71.0777 23.9487 70.9168 23.924 70.7558 23.8744C70.5081 23.8001 70.3471 23.6268 70.2729 23.3791C70.2605 23.342 70.2481 23.3048 70.2481 23.28C70.2357 23.2058 70.2728 23.1562 70.3471 23.1562C70.3843 23.1562 70.4214 23.1562 70.4586 23.1562C70.4957 23.1562 70.5329 23.181 70.5453 23.2181C70.5577 23.2677 70.57 23.3296 70.5948 23.3667C70.6691 23.5277 70.7929 23.6144 70.9663 23.6392C71.0282 23.6515 71.0901 23.6515 71.152 23.6392C71.3502 23.6268 71.4864 23.5153 71.5483 23.3296C71.6102 23.181 71.6102 23.0324 71.5854 22.8838C71.5854 22.8714 71.5854 22.859 71.5731 22.859C71.5731 22.859 71.5483 22.8466 71.5483 22.859C71.4988 22.8838 71.4368 22.9209 71.3873 22.9457C71.2635 23.0076 71.1397 23.0448 71.0034 23.0448C70.7186 23.0324 70.4957 22.9086 70.3595 22.6733C70.1614 22.3389 70.1614 21.9798 70.3595 21.6455C70.5329 21.3607 70.8053 21.2369 71.1397 21.274C71.2263 21.2864 71.313 21.3235 71.3873 21.3607C71.4368 21.3855 71.474 21.4226 71.5235 21.4474C71.5483 21.4598 71.5854 21.4474 71.5854 21.4226C71.5978 21.3359 71.6474 21.2988 71.734 21.3112C71.7588 21.3112 71.7836 21.3112 71.8207 21.3112C71.8579 21.3112 71.895 21.3483 71.895 21.3731C71.895 21.4226 71.9074 21.4845 71.9074 21.534C71.895 21.7817 71.895 22.0294 71.895 22.2646ZM71.053 22.76C71.313 22.76 71.5235 22.5866 71.5731 22.3389C71.5854 22.2894 71.5854 22.2523 71.5978 22.2027C71.6226 22.0541 71.5854 21.9179 71.5111 21.7941C71.3378 21.4969 70.8796 21.4102 70.632 21.7446C70.4338 22.017 70.4834 22.3637 70.6691 22.5866C70.7806 22.7104 70.9044 22.76 71.053 22.76Z" fill="white"/>
<path d="M61.1199 22.3014C61.1199 22.5615 61.1199 22.8215 61.1199 23.0815C61.1199 23.1806 61.1075 23.2797 61.0827 23.3787C61.0084 23.6388 60.8227 23.8121 60.575 23.8864C60.3521 23.9607 60.1292 23.936 59.9187 23.8493C59.733 23.7626 59.5968 23.6264 59.5225 23.4283C59.4977 23.3664 59.4977 23.2921 59.4853 23.2178C59.4853 23.193 59.5101 23.1682 59.5348 23.1558C59.5844 23.1558 59.6215 23.1435 59.6711 23.1558C59.7206 23.1558 59.7577 23.1682 59.7701 23.2178C59.7825 23.2549 59.7949 23.3044 59.8073 23.3416C59.8816 23.5273 60.0302 23.6264 60.2283 23.6388C60.2778 23.6388 60.3397 23.6388 60.3893 23.6388C60.5874 23.6264 60.736 23.5149 60.7855 23.3292C60.8227 23.2054 60.8351 23.0692 60.8227 22.9329C60.8227 22.9082 60.7731 22.871 60.736 22.8834C60.6741 22.9206 60.6122 22.9577 60.5503 22.9825C60.2407 23.1187 59.8692 23.032 59.6587 22.7596C59.3739 22.4005 59.3986 21.8309 59.7206 21.4965C59.9311 21.286 60.2902 21.1869 60.5874 21.3479C60.6493 21.3851 60.7112 21.4222 60.7731 21.4594C60.7979 21.4718 60.8351 21.4594 60.8351 21.447C60.8474 21.4346 60.8474 21.4098 60.8474 21.3975C60.8598 21.3479 60.897 21.3232 60.9465 21.3232C60.996 21.3232 61.0332 21.3232 61.0827 21.3355C61.0951 21.3355 61.1199 21.3603 61.1199 21.3727C61.1323 21.4098 61.1323 21.4594 61.1323 21.5089C61.1323 21.5213 61.1323 21.5461 61.1323 21.5584C61.1199 21.7937 61.1199 22.0414 61.1199 22.3014ZM59.7577 22.1528C59.7577 22.2643 59.7701 22.3881 59.8444 22.4995C60.0425 22.8215 60.4636 22.8215 60.6741 22.5986C60.8474 22.4252 60.9217 22.0538 60.7484 21.769C60.6122 21.5461 60.2902 21.447 60.0426 21.5832C59.9683 21.6204 59.9187 21.6823 59.8692 21.7442C59.7701 21.8804 59.7577 22.0042 59.7577 22.1528Z" fill="white"/>
<path d="M78.585 5.72082C78.5478 5.42363 78.4488 5.13882 78.2506 4.91592C78.2383 4.89116 78.2135 4.85401 78.2011 4.82924C77.7801 4.33392 77.26 4.11103 76.6161 4.16056C76.2694 4.18533 75.9598 4.30916 75.675 4.51967C75.5264 4.63112 75.3778 4.75495 75.2911 4.92831C74.9196 5.42363 74.8453 5.95609 75.0187 6.53809C75.3283 7.5535 76.3313 7.96213 77.099 7.81354C77.7182 7.68971 78.164 7.35537 78.4364 6.78575C78.585 6.43903 78.6345 6.07992 78.585 5.72082Z" fill="white"/>
<path d="M78.0276 8.75408C77.9781 8.7417 77.9162 8.7417 77.8666 8.7417C77.1237 8.7417 76.3807 8.7417 75.6253 8.7417C75.5758 8.7417 75.5386 8.7417 75.4891 8.7417C75.4396 8.7417 75.4024 8.77885 75.4024 8.82838C75.4024 8.87791 75.4024 8.91506 75.4024 8.96459C75.4024 9.64566 75.4024 10.3267 75.4024 11.0078C75.4024 11.0573 75.4148 11.1192 75.4148 11.1688C75.4148 11.2307 75.4024 11.2926 75.4024 11.3545C75.4024 13.2119 75.4024 15.0694 75.4024 16.9268C75.4024 17.1621 75.3901 17.1869 75.6501 17.1869C76.3559 17.1869 77.0741 17.1869 77.78 17.1869C78.1143 17.1869 78.0895 17.1993 78.0895 16.8773C78.0895 15.0694 78.0895 13.2491 78.0895 11.4412C78.0895 11.3545 78.0772 11.2678 78.0772 11.1688C78.0772 11.1316 78.0895 11.0945 78.0895 11.0573C78.0895 10.3267 78.0895 9.59612 78.0895 8.87791C78.0895 8.85315 78.0895 8.816 78.0772 8.80361C78.0772 8.77885 78.0524 8.75408 78.0276 8.75408Z" fill="white"/>
<path d="M64.3304 22.1528C64.3304 22.3634 64.3304 22.5863 64.3304 22.7968C64.3304 22.8463 64.318 22.8834 64.318 22.933C64.318 22.9454 64.2933 22.9701 64.2809 22.9701C64.2437 22.9825 64.1942 22.9825 64.1447 22.9825C64.0704 22.9825 64.0332 22.9454 64.0208 22.8711C64.0208 22.8463 63.9837 22.8339 63.9589 22.8463C63.9465 22.8587 63.9342 22.8711 63.9094 22.8711C63.8846 22.8834 63.8599 22.9082 63.8475 22.9206C63.4512 23.1683 62.8816 23.0197 62.6959 22.4748C62.6092 22.2395 62.6216 22.0043 62.7083 21.769C62.7949 21.5213 63.1045 21.2365 63.4884 21.2613C63.5998 21.2737 63.6989 21.2984 63.798 21.3603C63.8475 21.3851 63.9094 21.4223 63.9589 21.4594C63.9713 21.4718 64.0085 21.4594 64.0208 21.4346C64.0208 21.4223 64.0332 21.3975 64.0332 21.3851C64.0456 21.348 64.0704 21.3232 64.1075 21.3232C64.1571 21.3232 64.1942 21.3232 64.2437 21.3232C64.2933 21.3232 64.318 21.3603 64.3304 21.4099C64.3304 21.5832 64.3304 21.7566 64.3304 21.9176C64.3304 21.9919 64.3304 22.0662 64.3304 22.1528ZM64.0456 22.1157C64.058 22.0043 64.0209 21.8804 63.9466 21.7566C63.8103 21.5461 63.4512 21.4099 63.1664 21.6451C62.894 21.868 62.9064 22.2891 63.0797 22.5243C63.3398 22.8958 63.8599 22.772 63.9961 22.4253C64.0208 22.3386 64.0456 22.2395 64.0456 22.1157Z" fill="white"/>
<path d="M58.5962 22.2147C58.4229 22.2147 58.2371 22.2147 58.0637 22.2147C58.039 22.2147 58.0142 22.2271 57.9894 22.2271C57.9771 22.2271 57.9647 22.2519 57.9647 22.2643C57.9771 22.3881 58.0142 22.4871 58.1009 22.5738C58.3114 22.7967 58.6334 22.8091 58.8439 22.5986C58.8934 22.5491 58.9429 22.4995 58.9925 22.45C59.0048 22.4376 59.0296 22.4376 59.042 22.4376C59.0915 22.4624 59.1411 22.4871 59.1782 22.5119C59.2154 22.5367 59.2277 22.5862 59.1906 22.6234C59.0791 22.7843 58.9429 22.9082 58.7572 22.9701C58.4352 23.0815 58.0514 23.0072 57.8161 22.71C57.7789 22.6481 57.7418 22.5862 57.717 22.5243C57.6056 22.2395 57.618 21.9671 57.7418 21.6946C57.8904 21.3603 58.2495 21.1869 58.6334 21.2736C58.8934 21.3355 59.0791 21.4965 59.1782 21.7442C59.203 21.8061 59.2154 21.8804 59.2401 21.9547C59.302 22.2147 59.2525 22.2147 59.0296 22.2147C58.8934 22.2147 58.7448 22.2147 58.5962 22.2147ZM58.4352 21.9547C58.5838 21.9547 58.72 21.9547 58.8686 21.9547C58.9058 21.9547 58.9305 21.9051 58.9182 21.8804C58.8934 21.8308 58.881 21.7813 58.8563 21.7318C58.7572 21.608 58.621 21.5337 58.46 21.5337C58.2619 21.546 58.1133 21.6575 58.0142 21.8309C58.0142 21.8432 58.0142 21.8432 58.0018 21.8556C57.9894 21.8928 58.0142 21.9547 58.0637 21.9547C58.1876 21.9547 58.3114 21.9547 58.4352 21.9547Z" fill="white"/>
<path d="M76.7768 22.2146C76.6034 22.2146 76.43 22.2146 76.2691 22.2146C76.2319 22.2146 76.1948 22.227 76.17 22.227C76.1576 22.227 76.1452 22.2518 76.1452 22.2642C76.1576 22.4623 76.2567 22.5985 76.43 22.6852C76.6529 22.7966 76.8634 22.7719 77.0492 22.5737C77.0863 22.5366 77.1235 22.4871 77.1606 22.4499C77.1854 22.4251 77.2225 22.4128 77.2597 22.4375C77.2968 22.4623 77.334 22.4871 77.3711 22.4994C77.4083 22.5242 77.4207 22.5613 77.3959 22.5861C77.2349 22.8462 76.9997 22.9948 76.6901 22.9948C76.6034 22.9948 76.5167 22.9948 76.4177 22.97C76.1948 22.9081 76.0338 22.7719 75.9347 22.5737C75.848 22.388 75.8109 22.2022 75.8357 22.0041C75.8604 21.8555 75.8976 21.7193 75.9719 21.5955C76.1328 21.3354 76.3681 21.2116 76.6777 21.224C76.9749 21.2364 77.1854 21.3726 77.334 21.6326C77.4207 21.7812 77.4454 21.9298 77.4454 22.1032C77.4454 22.1403 77.4083 22.1899 77.3588 22.1899C77.1482 22.2146 76.9625 22.2146 76.7768 22.2146ZM76.591 21.9546C76.7396 21.9546 76.8758 21.9546 77.0244 21.9546C77.0616 21.9546 77.0863 21.9174 77.074 21.8803C77.074 21.8679 77.074 21.8679 77.074 21.8555C76.9625 21.5831 76.6777 21.4593 76.4177 21.5955C76.3805 21.6079 76.3557 21.6326 76.331 21.645C76.2567 21.6945 76.2071 21.7688 76.17 21.8555C76.1576 21.9051 76.1824 21.9546 76.2195 21.9546C76.3434 21.9546 76.4672 21.9546 76.591 21.9546Z" fill="white"/>
<path d="M51.2039 22.2144C51.0181 22.2144 50.8448 22.2144 50.659 22.2144C50.5724 22.2144 50.5352 22.2763 50.5724 22.363C50.6343 22.5364 50.7333 22.6602 50.9067 22.7221C51.1048 22.7964 51.2782 22.7469 51.4392 22.623C51.4639 22.5983 51.4887 22.5735 51.5135 22.5487C51.6249 22.4001 51.6497 22.4373 51.7735 22.524C51.823 22.5487 51.823 22.6106 51.7859 22.6726C51.6621 22.8583 51.4887 22.9821 51.2658 23.0317C51.0058 23.0812 50.7581 23.0441 50.5476 22.8707C50.4981 22.8212 50.4361 22.7716 50.399 22.7097C50.1513 22.3506 50.2132 21.9048 50.3866 21.62C50.5724 21.3228 50.9191 21.2238 51.2039 21.2857C51.5878 21.3724 51.823 21.6695 51.8354 22.0782C51.8354 22.1896 51.8106 22.2268 51.6992 22.2268C51.5382 22.2144 51.3649 22.2144 51.2039 22.2144ZM51.0305 21.9544C51.1791 21.9544 51.3153 21.9544 51.4639 21.9544C51.5011 21.9544 51.5382 21.8924 51.5135 21.8553C51.4392 21.6943 51.3277 21.5952 51.1667 21.5457C51.1172 21.5333 51.0553 21.5333 51.0058 21.5333C50.8076 21.5705 50.659 21.6695 50.5847 21.8677C50.5724 21.9048 50.5971 21.942 50.6343 21.942C50.7581 21.9544 50.8943 21.9544 51.0305 21.9544Z" fill="white"/>
<path d="M66.4375 22.2155C66.3013 22.2155 66.1651 22.2155 66.0289 22.2155C65.9793 22.2155 65.9422 22.2155 65.8926 22.2155C65.8183 22.2155 65.7936 22.265 65.806 22.3393C65.8307 22.4879 65.9174 22.6117 66.0536 22.6737C66.2765 22.7975 66.4994 22.7727 66.6975 22.587C66.7347 22.5498 66.7595 22.5003 66.7966 22.4631C66.8214 22.4384 66.8709 22.426 66.8957 22.4384C66.9328 22.4631 66.97 22.4755 67.0071 22.5003C67.0443 22.5251 67.0566 22.5746 67.0319 22.6117C66.8461 22.9089 66.5118 23.0699 66.1279 22.9956C65.7936 22.9337 65.5707 22.6984 65.5088 22.3641C65.4716 22.166 65.4716 21.9678 65.5459 21.7821C65.5831 21.6706 65.645 21.5716 65.7193 21.4849C65.8307 21.3487 65.9917 21.2744 66.1651 21.2496C66.4003 21.2125 66.6109 21.262 66.7966 21.4106C66.8214 21.4354 66.8461 21.4601 66.8709 21.4849C67.0195 21.6583 67.0938 21.8688 67.1062 22.104C67.1062 22.166 67.069 22.2031 67.0071 22.2031C66.809 22.2155 66.6232 22.2155 66.4375 22.2155ZM66.2641 21.9554C66.4127 21.9554 66.5489 21.9554 66.6975 21.9554C66.7595 21.9554 66.7842 21.9059 66.7595 21.844C66.7347 21.7945 66.6975 21.7326 66.6604 21.683C66.4994 21.5097 66.2518 21.4725 66.0536 21.6087C65.9669 21.6583 65.905 21.7326 65.8555 21.8316C65.8555 21.844 65.8431 21.844 65.8431 21.8564C65.8307 21.8935 65.8555 21.9554 65.905 21.9554C66.0041 21.9554 66.1403 21.9554 66.2641 21.9554Z" fill="white"/>
<path d="M49.101 22.1402C49.101 22.3507 49.101 22.5736 49.101 22.7841C49.101 22.8336 49.101 22.8708 49.0886 22.9203C49.0886 22.9451 49.0639 22.9698 49.0391 22.9698C49.0143 22.9698 48.9896 22.9822 48.9648 22.9822C48.8781 22.9946 48.8038 22.9698 48.7914 22.8708C48.7914 22.846 48.7667 22.8336 48.7543 22.846C48.7047 22.8708 48.6676 22.8955 48.6181 22.9327C48.2961 23.1308 47.8132 23.0565 47.5779 22.685C47.4912 22.5488 47.4417 22.4126 47.4417 22.2516C47.4293 22.0659 47.4417 21.8925 47.516 21.7191C47.6646 21.3972 47.9618 21.2486 48.2713 21.261C48.3828 21.261 48.4819 21.2981 48.5809 21.3476C48.6304 21.3724 48.6924 21.4096 48.7419 21.4467C48.7667 21.4591 48.7914 21.4467 48.8038 21.4096C48.8162 21.3105 48.8781 21.2981 48.9524 21.2981C48.9896 21.2981 49.0267 21.3105 49.0515 21.3105C49.0639 21.3105 49.0886 21.3353 49.0886 21.3476C49.101 21.3848 49.101 21.4219 49.101 21.4467C49.101 21.682 49.101 21.9049 49.101 22.1402ZM48.259 22.7593C48.4819 22.7593 48.6676 22.6355 48.7543 22.4497C48.841 22.264 48.8533 22.0659 48.779 21.8801C48.6924 21.6696 48.5314 21.5582 48.3085 21.5334C48.1104 21.5086 47.8999 21.6448 47.8008 21.8306C47.6893 22.0535 47.7017 22.2888 47.8256 22.4993C47.9122 22.6602 48.0608 22.7593 48.259 22.7593Z" fill="white"/>
<path d="M44.7122 21.2615C45.1456 21.2492 45.6037 21.6083 45.5914 22.1531C45.5914 22.636 45.1951 23.0447 44.6998 23.0323C44.3159 23.0323 43.8454 22.7475 43.8206 22.1531C43.8082 21.6702 44.2168 21.2615 44.7122 21.2615ZM44.1302 22.1531C44.1178 22.3636 44.2045 22.5246 44.3654 22.6484C44.6007 22.8342 44.9846 22.7846 45.1579 22.5494C45.3065 22.3512 45.3437 22.1283 45.2446 21.8931C45.0713 21.4968 44.5759 21.4101 44.2911 21.7197C44.1673 21.8435 44.1178 21.9921 44.1302 22.1531Z" fill="white"/>
<path d="M72.3906 22.1158C72.3906 21.9053 72.3906 21.7072 72.3906 21.4967C72.3906 21.4472 72.3906 21.41 72.403 21.3605C72.403 21.3357 72.4402 21.3109 72.4525 21.3109C72.4897 21.2986 72.5392 21.2986 72.5888 21.2986C72.6383 21.2986 72.6754 21.3233 72.7002 21.3605C72.7126 21.3852 72.7373 21.3976 72.7621 21.3852C72.8116 21.3605 72.8488 21.3357 72.8983 21.3109C73.0841 21.2243 73.2574 21.2366 73.4432 21.3109C73.5175 21.3481 73.5794 21.3976 73.6165 21.4719C73.6661 21.571 73.7156 21.67 73.7156 21.7815C73.7156 21.8558 73.728 21.9301 73.728 21.992C73.728 22.2892 73.728 22.5864 73.728 22.8836C73.728 22.9331 73.6908 22.9703 73.6413 22.9703C73.6042 22.9703 73.567 22.9703 73.5299 22.9703C73.4803 22.9703 73.4432 22.9331 73.4432 22.8836C73.4432 22.8217 73.4432 22.7598 73.4432 22.6978C73.4432 22.4873 73.4432 22.2892 73.4432 22.0787C73.4432 21.9672 73.4308 21.8682 73.406 21.7567C73.3689 21.6205 73.2574 21.5338 73.1088 21.5215C73.0222 21.5215 72.9231 21.5462 72.8488 21.5958C72.8116 21.6205 72.7745 21.67 72.7497 21.7196C72.7126 21.7939 72.6878 21.8929 72.6878 21.9796C72.6878 22.1035 72.6878 22.2273 72.6878 22.3511C72.6878 22.5121 72.6878 22.6731 72.6878 22.834C72.6878 22.9455 72.6507 22.9703 72.5392 22.9703C72.5145 22.9703 72.4897 22.9703 72.4649 22.9579C72.4278 22.9579 72.403 22.9207 72.403 22.8836C72.403 22.834 72.403 22.7721 72.403 22.7226C72.3906 22.5369 72.3906 22.3263 72.3906 22.1158Z" fill="white"/>
<path d="M55.142 22.1278C55.142 21.8801 55.142 21.6449 55.142 21.3972C55.142 21.3477 55.1791 21.3105 55.2162 21.3105C55.2286 21.3105 55.2534 21.3105 55.2658 21.3105C55.2782 21.3105 55.2782 21.3105 55.2905 21.3105C55.3525 21.3105 55.3896 21.3353 55.4268 21.3848C55.4639 21.4344 55.4763 21.422 55.5134 21.3972C55.5754 21.3724 55.6249 21.3353 55.6744 21.3105C55.7983 21.261 55.9221 21.2486 56.0459 21.2858C56.2317 21.3353 56.3679 21.4467 56.4174 21.6325C56.4422 21.7068 56.4669 21.7935 56.4669 21.8678C56.4669 22.2145 56.4669 22.5488 56.4669 22.8955C56.4669 22.9451 56.4298 22.9822 56.3926 22.9946C56.3431 22.9946 56.306 22.9946 56.2564 22.9946C56.2069 22.9946 56.1697 22.9575 56.1697 22.9079C56.1697 22.8212 56.1697 22.747 56.1697 22.6603C56.1697 22.4498 56.1697 22.2516 56.1697 22.0411C56.1697 21.9544 56.1574 21.8554 56.145 21.7687C56.1326 21.682 56.0831 21.6201 56.0088 21.583C55.7982 21.4715 55.563 21.5706 55.4763 21.7811C55.4515 21.8306 55.4515 21.8801 55.4391 21.9421C55.4144 22.1154 55.402 22.3012 55.402 22.4745C55.402 22.6107 55.402 22.747 55.402 22.8832C55.402 22.9575 55.3648 22.9946 55.2782 22.9946C55.241 22.9946 55.2039 22.9946 55.1667 22.9822C55.1543 22.9822 55.1296 22.9575 55.1296 22.9451C55.1172 22.9079 55.1172 22.8708 55.1172 22.846C55.142 22.5984 55.142 22.3631 55.142 22.1278Z" fill="white"/>
<path d="M42.1406 22.1406C42.1406 21.9177 42.1406 21.6948 42.1406 21.4719C42.1406 21.4348 42.1406 21.3976 42.153 21.3605C42.153 21.3481 42.1778 21.3233 42.1902 21.3233C42.2645 21.2986 42.3264 21.2986 42.4007 21.3357C42.4254 21.3481 42.4254 21.3852 42.4502 21.3976C42.4626 21.41 42.4874 21.4224 42.4997 21.41C42.5369 21.3852 42.574 21.3605 42.6112 21.3481C42.7722 21.2614 42.9455 21.2366 43.1313 21.2986C43.2799 21.3481 43.3789 21.4471 43.4285 21.5834C43.4656 21.67 43.4904 21.7567 43.4904 21.8434C43.5028 22.1901 43.4904 22.5492 43.4904 22.896C43.4904 22.9455 43.4532 22.9826 43.4037 22.9826C43.3542 22.9826 43.317 22.9826 43.2675 22.9826C43.2427 22.9826 43.1932 22.9455 43.1932 22.9083C43.1932 22.8588 43.1808 22.7969 43.1808 22.7474C43.1808 22.5121 43.1808 22.2768 43.1808 22.0415C43.1808 21.9549 43.1808 21.8806 43.1684 21.7939C43.1436 21.6329 43.0198 21.5214 42.8465 21.5214C42.6607 21.5214 42.5121 21.6205 42.475 21.8063C42.4378 21.9425 42.4254 22.0911 42.4254 22.2273C42.4254 22.413 42.4254 22.5864 42.4254 22.7721C42.4254 22.8217 42.4254 22.8588 42.4131 22.9083C42.4131 22.9207 42.4007 22.9455 42.3883 22.9579C42.3264 22.995 42.2521 22.9826 42.1778 22.9579C42.1654 22.9579 42.153 22.9331 42.153 22.9207C42.1406 22.8712 42.1406 22.834 42.1406 22.7845C42.1406 22.574 42.1406 22.3511 42.1406 22.1406Z" fill="white"/>
<path d="M40.3047 22.1526C40.3047 21.9421 40.3047 21.7192 40.3047 21.5087C40.3047 21.4591 40.3047 21.422 40.3171 21.3725C40.3171 21.3477 40.3295 21.3229 40.3666 21.3229C40.4161 21.3229 40.4533 21.3105 40.5028 21.3105C40.5523 21.3105 40.5771 21.3477 40.5895 21.3972C40.6019 21.4468 40.6266 21.4468 40.6638 21.422C40.7009 21.3972 40.7381 21.3601 40.7752 21.3477C40.9362 21.2486 41.1096 21.2486 41.2953 21.2982C41.4192 21.3353 41.5058 21.422 41.5678 21.5458C41.6173 21.6573 41.6544 21.7687 41.6544 21.8802C41.6544 22.2269 41.6544 22.5612 41.6544 22.9079C41.6544 22.9575 41.6173 22.9946 41.5678 22.9946C41.5182 22.9946 41.4563 22.9946 41.4068 22.9822C41.3944 22.9822 41.3696 22.9575 41.3696 22.9451C41.3572 22.9079 41.3572 22.8584 41.3572 22.8089C41.3572 22.5612 41.3572 22.3259 41.3572 22.0783C41.3572 22.004 41.3572 21.9297 41.3572 21.8678C41.3572 21.8059 41.3325 21.7439 41.3077 21.6944C41.2829 21.6449 41.2458 21.6077 41.1963 21.583C41.0972 21.5458 41.0105 21.5334 40.9115 21.5582C40.7876 21.5954 40.7009 21.682 40.6638 21.8182C40.639 21.9297 40.6143 22.0411 40.6143 22.165C40.6143 22.3755 40.6143 22.5984 40.6143 22.8089C40.6143 22.8584 40.6143 22.8956 40.6019 22.9451C40.6019 22.9575 40.5771 22.9822 40.5647 22.9822C40.5028 23.007 40.4409 23.007 40.379 22.9822C40.3666 22.9822 40.3418 22.9575 40.3418 22.9451C40.3295 22.8956 40.3295 22.8584 40.3295 22.8089C40.3047 22.586 40.3047 22.3631 40.3047 22.1526Z" fill="white"/>
<path d="M45.8302 21.3104C45.8798 21.3104 45.9045 21.3104 45.9169 21.3104C45.9788 21.3104 46.016 21.3351 46.0408 21.3847C46.1027 21.5333 46.177 21.6819 46.2389 21.8305C46.3132 21.9914 46.3875 22.1524 46.4618 22.3258C46.4742 22.3382 46.4865 22.3629 46.4989 22.3629C46.5237 22.3629 46.5485 22.3382 46.5608 22.3134C46.5856 22.2639 46.6104 22.2143 46.6228 22.1648C46.7342 21.9295 46.8333 21.6943 46.9323 21.4466C46.9819 21.3351 47.0562 21.298 47.1676 21.3104C47.2048 21.3104 47.2419 21.3228 47.2667 21.3228C47.2914 21.3228 47.2914 21.3475 47.2914 21.3599C47.2791 21.3847 47.2791 21.4094 47.2667 21.4342C47.0438 21.9295 46.8209 22.4125 46.598 22.8954C46.5856 22.9325 46.5608 22.9573 46.5485 22.9945C46.5361 23.0192 46.4865 23.0192 46.4742 23.0068C46.4494 22.9697 46.4246 22.9325 46.3999 22.8954C46.1894 22.4372 45.9665 21.9667 45.7559 21.5085C45.7312 21.4714 45.7188 21.4218 45.7064 21.3847C45.694 21.3599 45.7188 21.3228 45.7436 21.3228C45.7931 21.3104 45.8302 21.3104 45.8302 21.3104Z" fill="white"/>
<path d="M54.6455 21.6579C54.6455 22.017 54.6455 22.3761 54.6455 22.7352C54.6455 22.7971 54.6455 22.859 54.6331 22.9209C54.6331 22.9457 54.6084 22.9705 54.5836 22.9705C54.5341 22.9705 54.4969 22.9828 54.4474 22.9828C54.3731 22.9828 54.3359 22.9457 54.3359 22.8714C54.3359 22.8219 54.3359 22.7847 54.3359 22.7352C54.3359 22.0046 54.3359 21.2616 54.3359 20.531C54.3359 20.4691 54.3359 20.4072 54.3483 20.3453C54.3483 20.3329 54.3731 20.3081 54.3855 20.3081C54.4598 20.2834 54.5217 20.2834 54.596 20.3081C54.6084 20.3081 54.6331 20.3329 54.6331 20.3453C54.6455 20.3824 54.6455 20.432 54.6455 20.4815C54.6455 20.8654 54.6455 21.2616 54.6455 21.6579Z" fill="white"/>
<path d="M56.9852 22.2766C56.9852 22.0785 56.9852 21.8803 56.9852 21.6822C56.9852 21.6203 56.9604 21.5831 56.8985 21.5708C56.8366 21.5584 56.8242 21.5088 56.8242 21.4469C56.8242 21.385 56.8242 21.3231 56.9109 21.2983C56.9604 21.2859 56.9852 21.2612 56.9976 21.2116C56.9976 21.125 56.9976 21.0383 56.9976 20.9392C56.9976 20.8773 57.01 20.8154 57.01 20.7535C57.01 20.7411 57.0347 20.7163 57.0471 20.7163C57.1214 20.6916 57.1833 20.6916 57.2576 20.7163C57.27 20.7163 57.2948 20.7411 57.2948 20.7535C57.3072 20.803 57.3072 20.8402 57.3072 20.8897C57.3072 21.0011 57.3072 21.1002 57.3072 21.2116C57.3072 21.2612 57.3443 21.2859 57.3938 21.2983C57.4434 21.2983 57.4805 21.2983 57.53 21.3107C57.5672 21.3107 57.592 21.3479 57.6043 21.385C57.6043 21.4345 57.6043 21.4717 57.6043 21.5212C57.6043 21.546 57.5796 21.5708 57.5548 21.5708C57.5053 21.5831 57.4434 21.5831 57.3938 21.5831C57.3443 21.5831 57.3195 21.6203 57.3195 21.6698C57.3195 21.7813 57.3195 21.8803 57.3195 21.9918C57.3195 22.2642 57.3195 22.5242 57.3195 22.7967C57.3195 22.8462 57.3072 22.8833 57.3072 22.9329C57.3072 22.9453 57.2824 22.9576 57.27 22.97C57.2081 22.9948 57.1462 22.9948 57.0843 22.97C57.0595 22.9576 57.0347 22.9453 57.0347 22.9205C57.0223 22.8833 57.0223 22.8462 57.0223 22.809C56.9852 22.6357 56.9852 22.4623 56.9852 22.2766Z" fill="white"/>
<path d="M75.1532 22.2645C75.1532 22.0788 75.1532 21.893 75.1532 21.6949C75.1532 21.6206 75.1284 21.5835 75.0541 21.5587C75.017 21.5463 74.9922 21.5216 74.9922 21.4844C74.9922 21.4596 74.9922 21.4349 74.9922 21.3977C74.9922 21.3482 75.0046 21.311 75.0665 21.2987C75.1284 21.2863 75.1656 21.2491 75.1656 21.1872C75.1656 21.051 75.1655 20.9148 75.1779 20.7786C75.1779 20.729 75.2151 20.6919 75.2646 20.6919C75.3141 20.6919 75.3761 20.6919 75.4256 20.7043C75.438 20.7043 75.4627 20.729 75.4627 20.7414C75.4751 20.7786 75.4751 20.8157 75.4751 20.8405C75.4751 20.9519 75.4751 21.0758 75.4751 21.1872C75.4751 21.2367 75.5123 21.2739 75.5618 21.2739C75.6113 21.2739 75.6485 21.2739 75.698 21.2863C75.7228 21.2863 75.7476 21.311 75.7476 21.3358C75.7723 21.3853 75.7599 21.4473 75.7476 21.4968C75.7476 21.5092 75.7228 21.5339 75.7104 21.5339C75.6609 21.5463 75.599 21.5463 75.5494 21.5587C75.5123 21.5587 75.4751 21.5959 75.4751 21.6206C75.4751 21.6825 75.4627 21.7444 75.4627 21.8064C75.4627 22.1159 75.4627 22.4131 75.4627 22.7227C75.4627 22.7722 75.4627 22.8341 75.4504 22.8837C75.4504 22.9084 75.4256 22.9332 75.4008 22.9332C75.3513 22.9332 75.3141 22.9456 75.2646 22.9456C75.1903 22.9456 75.1656 22.9208 75.1532 22.8465C75.1532 22.7846 75.1532 22.7227 75.1532 22.6608C75.1532 22.5493 75.1532 22.4131 75.1532 22.2645Z" fill="white"/>
<path d="M49.5829 22.2525C49.5829 22.0667 49.5829 21.881 49.5829 21.6828C49.5829 21.6209 49.5581 21.5838 49.4962 21.5714C49.4466 21.559 49.4219 21.5219 49.4219 21.4723C49.4219 21.4352 49.4219 21.398 49.4219 21.3609C49.4219 21.3361 49.4466 21.3114 49.4714 21.299C49.5581 21.2866 49.5829 21.2247 49.5829 21.1504C49.5829 21.0265 49.5829 20.9027 49.5829 20.7789C49.5829 20.7417 49.62 20.7046 49.6448 20.7046C49.6943 20.7046 49.7562 20.7046 49.8057 20.717C49.8181 20.717 49.8429 20.7417 49.8429 20.7541C49.8553 20.816 49.8677 20.878 49.8677 20.9399C49.8677 21.0018 49.8677 21.0637 49.8677 21.1256C49.8677 21.2494 49.8677 21.299 50.041 21.299C50.0658 21.299 50.0906 21.299 50.1153 21.3114C50.1277 21.3114 50.1401 21.3361 50.1525 21.3485C50.1649 21.398 50.1649 21.4352 50.1649 21.4847C50.1649 21.5219 50.1401 21.559 50.1029 21.559C50.0534 21.559 50.0163 21.5714 49.9667 21.5714C49.9172 21.5838 49.88 21.6085 49.88 21.6581C49.88 21.7324 49.88 21.8067 49.88 21.8686C49.88 22.1162 49.88 22.3763 49.88 22.6239C49.88 22.723 49.8677 22.8221 49.8429 22.9211C49.8429 22.9335 49.8181 22.9459 49.8057 22.9583C49.7438 22.9831 49.6819 22.9831 49.62 22.9583C49.6076 22.9583 49.5952 22.9335 49.5829 22.9211C49.5705 22.884 49.5705 22.8468 49.5705 22.8097C49.5829 22.6363 49.5829 22.4506 49.5829 22.2525Z" fill="white"/>
<path d="M64.8264 22.2769C64.8264 22.0788 64.8264 21.8806 64.8264 21.6825C64.8264 21.6206 64.8016 21.5834 64.7397 21.5711C64.653 21.5463 64.6406 21.5215 64.6406 21.4348C64.6406 21.3482 64.6654 21.2986 64.7645 21.2862C64.7768 21.2862 64.7768 21.2862 64.7892 21.2739C64.8016 21.2615 64.814 21.2491 64.8264 21.2367C64.8388 21.2119 64.8387 21.1872 64.8387 21.1624C64.8387 21.0634 64.8387 20.9643 64.8387 20.8652C64.8387 20.7042 64.8759 20.6919 65.0369 20.7042C65.0864 20.7042 65.1236 20.7414 65.1236 20.7909C65.1236 20.9024 65.1236 21.0262 65.1236 21.1376C65.1236 21.1748 65.1236 21.2119 65.1359 21.2367C65.1359 21.2491 65.1607 21.2739 65.1731 21.2739C65.235 21.2862 65.2969 21.2862 65.3588 21.2986C65.396 21.2986 65.4208 21.3358 65.4208 21.3729C65.4208 21.4101 65.4208 21.4472 65.4208 21.4844C65.4208 21.5215 65.3836 21.5587 65.3588 21.5587C65.3093 21.5587 65.2474 21.5711 65.1979 21.5711C65.1607 21.5711 65.1236 21.6082 65.1236 21.633C65.1236 21.6949 65.1112 21.7568 65.1112 21.8187C65.1112 22.1283 65.1112 22.4255 65.1112 22.7351C65.1112 22.7846 65.1112 22.8465 65.0988 22.896C65.0988 22.9332 65.0616 22.9579 65.0245 22.9579C64.975 22.9579 64.9378 22.9579 64.8883 22.9579C64.8511 22.9579 64.8388 22.9332 64.8264 22.9084C64.814 22.8713 64.814 22.8217 64.814 22.7722C64.8264 22.6236 64.8264 22.4502 64.8264 22.2769Z" fill="white"/>
<path d="M69.8629 21.6333C69.8629 22.0048 69.8629 22.3639 69.8629 22.7354C69.8629 22.7973 69.8629 22.8592 69.8505 22.9211C69.8505 22.9335 69.8382 22.9582 69.8258 22.9582C69.7515 22.983 69.6896 22.983 69.6153 22.9582C69.6029 22.9582 69.5905 22.9335 69.5905 22.9211C69.5781 22.8716 69.5781 22.8344 69.5781 22.7849C69.5781 22.0171 69.5781 21.237 69.5781 20.4693C69.5781 20.4197 69.5905 20.3826 69.5905 20.3331C69.5905 20.3207 69.6153 20.2959 69.6277 20.2959C69.6896 20.2835 69.7515 20.2835 69.8134 20.2959C69.8258 20.2959 69.8505 20.3207 69.8505 20.3331C69.8629 20.3702 69.8629 20.4074 69.8629 20.4445C69.8629 20.6302 69.8629 20.816 69.8629 21.0141C69.8629 21.2122 69.8629 21.4228 69.8629 21.6333Z" fill="white"/>
<path d="M39.7848 21.658C39.7848 22.0171 39.7848 22.3762 39.7848 22.7354C39.7848 22.7973 39.7848 22.8592 39.7724 22.9211C39.7724 22.9335 39.76 22.9582 39.7477 22.9582C39.6857 22.983 39.6114 22.983 39.5371 22.9582C39.5248 22.9582 39.5124 22.9335 39.5124 22.9211C39.5 22.8716 39.5 22.8344 39.5 22.7849C39.5 22.0171 39.5 21.237 39.5 20.4693C39.5 20.4197 39.5 20.3826 39.5124 20.3331C39.5124 20.3207 39.5371 20.2959 39.5495 20.2959C39.6114 20.2835 39.6734 20.2835 39.7353 20.2959C39.7477 20.2959 39.7724 20.3207 39.7724 20.3331C39.7848 20.3702 39.7848 20.4074 39.7848 20.4445C39.7848 20.5931 39.7848 20.7541 39.7848 20.9027C39.7848 21.1503 39.7848 21.4104 39.7848 21.658Z" fill="white"/>
<path d="M61.6172 22.1403C61.6172 21.9298 61.6172 21.7069 61.6172 21.4964C61.6172 21.4469 61.6172 21.4097 61.6296 21.3602C61.6296 21.3478 61.6543 21.3231 61.6667 21.3231C61.741 21.2983 61.8277 21.2859 61.902 21.3231C61.9144 21.3354 61.9268 21.3478 61.9391 21.3602C61.9515 21.385 61.9639 21.385 61.9887 21.3726C62.0382 21.3354 62.0877 21.2983 62.1497 21.2735C62.2611 21.224 62.3725 21.224 62.484 21.2859C62.5211 21.3107 62.5459 21.3602 62.5211 21.3974C62.4964 21.4345 62.484 21.484 62.4592 21.5088C62.4468 21.5212 62.4097 21.5459 62.3973 21.5459C62.3478 21.5459 62.3106 21.5336 62.2611 21.5212C62.1497 21.5212 62.0754 21.5707 62.0134 21.6574C61.9763 21.7317 61.9515 21.806 61.9391 21.8927C61.9391 21.9794 61.9268 22.0537 61.9268 22.1403C61.9268 22.3632 61.9268 22.5861 61.9268 22.809C61.9268 22.8462 61.9144 22.8833 61.9144 22.9081C61.9144 22.9205 61.8896 22.9328 61.8772 22.9452C61.8153 22.97 61.7534 22.97 61.6915 22.9452C61.6667 22.9328 61.642 22.9205 61.642 22.8957C61.6296 22.8585 61.6296 22.809 61.6296 22.7595C61.6172 22.5737 61.6172 22.3508 61.6172 22.1403Z" fill="white"/>
<path d="M74.5947 22.1658C74.5947 22.3763 74.5947 22.5744 74.5947 22.7849C74.5947 22.8345 74.5947 22.8716 74.5823 22.9212C74.5823 22.9459 74.5576 22.9707 74.5328 22.9707C74.4709 22.9831 74.409 22.9831 74.3471 22.9707C74.3347 22.9707 74.3099 22.9459 74.3099 22.9335C74.2975 22.8964 74.2852 22.8469 74.2852 22.7973C74.2852 22.5249 74.2852 22.2649 74.2852 21.9924C74.2852 21.8191 74.2852 21.6333 74.2852 21.46C74.2852 21.4228 74.2975 21.3857 74.2975 21.3609C74.2975 21.3485 74.3223 21.3361 74.3347 21.3238C74.409 21.299 74.4709 21.299 74.5452 21.3238C74.5576 21.3238 74.57 21.3485 74.5823 21.3609C74.5947 21.4104 74.5947 21.4476 74.5947 21.4971C74.5947 21.72 74.5947 21.9429 74.5947 22.1658Z" fill="white"/>
<path d="M74.4334 20.4814C74.5449 20.4814 74.644 20.5681 74.644 20.6796C74.6563 20.791 74.5697 20.8777 74.4582 20.8901C74.322 20.9025 74.2477 20.791 74.2353 20.7043C74.2229 20.5929 74.3344 20.4814 74.4334 20.4814Z" fill="white"/>
<path d="M78.2485 22.8094C78.2485 22.9208 78.1618 23.0199 78.0504 23.0199C77.9389 23.0199 77.8398 22.9208 77.8398 22.8217C77.8398 22.7227 77.9265 22.636 78.0256 22.6236C78.137 22.6112 78.2485 22.7103 78.2485 22.8094Z" fill="white"/>
<path d="M52.4918 23.0315C52.3803 23.0315 52.2812 22.9448 52.2812 22.8334C52.2812 22.7219 52.3679 22.6353 52.4794 22.6353C52.5784 22.6353 52.6651 22.7219 52.6775 22.821C52.6899 22.9201 52.6032 23.0191 52.4918 23.0315Z" fill="white"/>
<path d="M67.698 22.6237C67.8094 22.6114 67.9085 22.698 67.9085 22.8095C67.9085 22.9333 67.8342 23.02 67.7228 23.02C67.6113 23.02 67.537 22.9581 67.5246 22.8466C67.5122 22.7476 67.5989 22.6361 67.698 22.6237Z" fill="white"/>
<path d="M15.491 3.13272C15.491 3.10795 15.4415 3.0708 15.4044 3.09557C15.3424 3.12034 15.2929 3.15748 15.2434 3.18225C14.1661 3.8014 13.1011 4.42055 12.0238 5.0397C11.8381 5.15114 11.6523 5.26259 11.4666 5.37404C11.4294 5.38642 11.3799 5.3988 11.3427 5.42357C11.157 5.53501 10.9713 5.63408 10.7855 5.74552C10.2654 6.04272 9.74534 6.33991 9.22526 6.64948C8.63087 6.9962 8.02411 7.33054 7.42973 7.67727C6.67437 8.11067 5.91901 8.54407 5.16364 8.97748C4.75501 9.21275 4.35875 9.43565 3.95011 9.67092C3.91297 9.69569 3.87582 9.72046 3.83867 9.74522C3.80152 9.76999 3.78914 9.81952 3.80152 9.86905C3.8139 9.9062 3.82628 9.95573 3.83867 9.99288C3.95011 10.2901 4.06156 10.5749 4.17301 10.8721C4.24731 11.0702 4.3216 11.2683 4.3959 11.4788C4.42067 11.5531 4.4702 11.5779 4.53211 11.5779C4.79216 11.5779 5.0522 11.615 5.31224 11.6522C5.32462 11.6522 5.34939 11.6522 5.36177 11.6522C5.88186 11.7141 6.40194 11.8132 6.90964 11.9618C6.99632 11.9865 7.083 12.0237 7.1573 12.0485C7.18207 12.0485 7.20683 12.0608 7.2316 12.0608C7.70215 12.197 8.1727 12.3704 8.61849 12.5809C8.65564 12.6057 8.69279 12.6181 8.71756 12.6676C8.72994 12.6676 8.74232 12.6676 8.7547 12.6676C8.7547 12.6181 8.77947 12.5809 8.79185 12.5438C8.98998 12.1971 9.18811 11.8627 9.38624 11.516C9.42338 11.4417 9.46053 11.3798 9.49768 11.3055C9.52245 11.2559 9.51007 11.194 9.44815 11.1693C9.23764 11.0702 9.02713 10.9711 8.80424 10.8845C8.29653 10.612 7.75168 10.4263 7.18207 10.2777C7.05824 10.2405 6.93441 10.2158 6.82296 10.1786C6.7982 10.1786 6.78581 10.1662 6.7982 10.1415C6.7982 10.1291 6.81058 10.1043 6.82296 10.0919C6.88488 10.0424 6.95917 10.0053 7.03347 9.96812C7.98696 9.41088 8.94045 8.86603 9.90632 8.3088C10.4636 7.98684 11.0332 7.66488 11.5904 7.34293C11.6523 7.30578 11.7266 7.28101 11.7638 7.2191C11.8504 7.20671 11.9124 7.15718 11.9743 7.12003C12.482 6.83523 12.9897 6.53803 13.4974 6.25323C13.5469 6.22846 13.5964 6.20369 13.646 6.19131C13.6584 6.19131 13.6831 6.20369 13.6831 6.21608C13.6955 6.22846 13.6955 6.25323 13.6955 6.26561C13.6955 6.35229 13.6955 6.42659 13.6955 6.51327C13.6955 8.98986 13.6831 11.4665 13.6831 13.943C13.6831 13.9926 13.6831 14.0545 13.6831 14.104C13.6831 14.1164 13.6584 14.1288 13.646 14.1412H13.6212C13.5841 14.104 13.5469 14.0669 13.5098 14.0297C13.2869 13.8192 13.0764 13.5963 12.8658 13.3858C12.8163 13.3487 12.7668 13.3115 12.7173 13.2744C12.7173 13.262 12.7173 13.2496 12.7049 13.2496C12.321 12.8905 11.9 12.5685 11.4666 12.2713C11.4542 12.259 11.4294 12.259 11.417 12.2466C11.3923 12.2466 11.3675 12.2466 11.3427 12.259C11.318 12.2961 11.2932 12.3333 11.2684 12.3704C11.0703 12.7171 10.8598 13.0639 10.6617 13.4106C10.6245 13.4849 10.5874 13.5592 10.5255 13.6087C10.5255 13.6211 10.5255 13.6335 10.5255 13.6459C10.575 13.6459 10.6121 13.6706 10.6493 13.6954C11.0456 13.9678 11.4047 14.2898 11.7638 14.6117C11.7885 14.6365 11.8133 14.6613 11.8257 14.6984C11.8381 14.7108 11.8504 14.7232 11.8628 14.7356C11.8876 14.7479 11.9124 14.7603 11.9247 14.7727C12.1353 14.9832 12.3458 15.1813 12.5315 15.4042C12.5687 15.4538 12.6182 15.4909 12.6677 15.5281C12.7173 15.6395 12.8039 15.7386 12.8906 15.8253C12.9649 15.9119 13.0392 16.011 13.0887 16.1101C13.1135 16.1224 13.1383 16.1348 13.1507 16.1596C13.2002 16.2215 13.2497 16.2834 13.2869 16.3577C13.3859 16.4939 13.485 16.6425 13.5717 16.7787C13.5964 16.8035 13.6212 16.8283 13.6584 16.8283C13.6955 16.8283 13.7327 16.8283 13.7698 16.8159C14.1537 16.754 14.5375 16.6921 14.909 16.6302C15.07 16.6054 15.231 16.5806 15.392 16.5435C15.4291 16.5311 15.4539 16.5063 15.4663 16.4692C15.4663 16.4444 15.4663 16.4196 15.4663 16.3949C15.4663 16.1472 15.4663 15.9119 15.4663 15.6643C15.4787 12.6676 15.4663 9.67092 15.491 6.66186C15.5034 5.55978 15.5034 4.4577 15.5034 3.34323C15.5034 3.2937 15.491 3.20702 15.491 3.13272Z" fill="white"/>
<path d="M10.5008 13.6083C10.4761 13.5959 10.4637 13.5712 10.4389 13.5588C9.90646 13.2492 9.38637 12.9396 8.85391 12.6424C8.82914 12.6301 8.80437 12.6301 8.77961 12.6177C8.76722 12.6177 8.75484 12.6301 8.74246 12.6177C8.73008 12.6424 8.71769 12.6672 8.69293 12.6796C8.38335 13.2244 8.0614 13.7569 7.75182 14.3018C7.72706 14.3513 7.70229 14.4008 7.67752 14.4504C7.66514 14.4751 7.64037 14.4875 7.62799 14.5123C7.4051 14.8961 7.1822 15.2676 6.97169 15.6515C6.95931 15.6763 6.94693 15.7134 6.93455 15.7506C6.92216 15.7753 6.93455 15.8001 6.95931 15.8249C6.97169 15.8496 6.99646 15.862 7.02123 15.8744C7.31842 16.0478 7.60323 16.2211 7.90042 16.3821C7.92518 16.3945 7.94995 16.3945 7.97471 16.4069C7.97471 16.3945 7.97471 16.3821 7.9871 16.3697C7.9871 16.3821 7.9871 16.3945 7.97471 16.4069C8.17284 16.5555 8.39574 16.6669 8.61863 16.7907C8.63101 16.7907 8.63101 16.8031 8.64339 16.8031C8.65578 16.8031 8.68054 16.8031 8.69293 16.7907C8.73008 16.7412 8.76722 16.6917 8.80437 16.6421C9.34922 15.701 9.90646 14.7599 10.4513 13.8064C10.4761 13.7569 10.5008 13.7074 10.5132 13.6578C10.5008 13.6331 10.5008 13.6207 10.5008 13.6083ZM7.96233 15.8992C7.96233 15.8868 7.96233 15.8744 7.96233 15.862C7.96233 15.862 7.96233 15.8868 7.96233 15.8992ZM7.97471 16.0478C7.97471 16.0725 7.9871 16.0973 7.9871 16.1221C7.9871 16.1097 7.97471 16.0849 7.97471 16.0478Z" fill="white"/>
<path d="M11.8125 14.686C11.8252 14.6987 11.8379 14.7115 11.8506 14.7242C11.8125 14.7369 11.8125 14.7115 11.8125 14.686Z" fill="white"/>
<path d="M11.0711 9.48519C11.6779 9.46042 12.2475 10.0053 12.2351 10.6616C12.2228 11.256 11.7151 11.8132 11.0588 11.8132C10.4272 11.8132 9.88238 11.2807 9.89476 10.6244C9.88238 10.092 10.3653 9.4728 11.0711 9.48519Z" fill="white"/>
</g>
</svg>
