<svg width="857" height="49" viewBox="0 0 857 49" fill="none" xmlns="http://www.w3.org/2000/svg">
<path d="M-0.000468743 39.7863V7.63444e-06H9.80601L20.7893 30.8204L31.7725 7.63444e-06H41.579V39.7863H34.2942V12.3282L24.2636 39.7303H17.315L7.28435 12.3282V39.7863H-0.000468743ZM58.8016 40.4587C52.5255 40.4587 48.3788 37.4888 48.3788 32.2773C48.3788 27.1219 51.5729 24.3761 58.1292 23.0873L68.0478 21.126C68.0478 16.9232 66.0865 14.7377 62.332 14.7377C58.8016 14.7377 56.8964 16.3628 56.2239 19.3888L48.8831 19.0526C50.0599 12.7765 54.8791 9.19008 62.332 9.19008C70.8496 9.19008 75.2205 13.673 75.2205 21.6303V32.5015C75.2205 34.1266 75.7809 34.5749 76.9016 34.5749H77.8542V39.7863C77.4059 39.8984 76.2292 40.0105 75.2765 40.0105C72.0264 40.0105 69.6168 38.8337 69.0004 35.1352C67.5434 38.3293 63.7329 40.4587 58.8016 40.4587ZM60.2586 35.2473C65.0218 35.2473 68.0478 32.2213 68.0478 27.6823V26.0012L60.3146 27.5702C57.1205 28.1866 55.8317 29.5315 55.8317 31.6049C55.8317 33.9585 57.4007 35.2473 60.2586 35.2473ZM93.8721 40.4587C86.195 40.4587 81.4319 34.4067 81.4319 24.8244C81.4319 15.2421 86.3071 9.19008 93.8721 9.19008C98.0188 9.19008 101.325 11.0393 102.95 14.1213V7.63444e-06H110.123V39.7863H103.342L103.174 35.3594C101.493 38.5535 98.0188 40.4587 93.8721 40.4587ZM96.0015 34.6309C100.428 34.6309 102.95 31.1566 102.95 24.8244C102.95 18.4362 100.484 15.0179 96.0015 15.0179C91.6306 15.0179 88.8848 18.7164 88.8848 24.8244C88.8848 30.8204 91.6866 34.6309 96.0015 34.6309ZM130.863 40.4587C121.897 40.4587 116.181 34.2947 116.181 24.8244C116.181 15.4102 121.897 9.19008 130.695 9.19008C139.269 9.19008 144.928 15.13 144.928 25.2167V26.8417H123.634C123.914 32.1092 126.66 34.743 130.919 34.743C134.113 34.743 136.299 33.23 137.139 30.5962L144.48 31.0445C142.855 36.8724 137.756 40.4587 130.863 40.4587ZM137.475 22.0226C137.139 17.1473 134.505 14.8498 130.695 14.8498C126.828 14.8498 124.195 17.3715 123.634 22.0226H137.475ZM167.514 8.68575C167.514 3.30619 170.428 7.63444e-06 176.76 7.63444e-06H182.588V5.54768H178.105C175.752 5.54768 174.743 6.78049 174.743 9.07801V10.647H182.196V16.1947H174.743V39.7863H167.514V16.1947H163.256V10.647H167.514V8.68575ZM199.98 40.4587C191.071 40.4587 185.243 34.2947 185.243 24.8244C185.243 15.3542 191.071 9.19008 199.98 9.19008C208.834 9.19008 214.662 15.3542 214.662 24.8244C214.662 34.2947 208.834 40.4587 199.98 40.4587ZM199.98 34.6309C204.575 34.6309 207.265 31.0445 207.265 24.8244C207.265 18.6603 204.575 15.0179 199.98 15.0179C195.329 15.0179 192.696 18.6603 192.696 24.8244C192.696 31.0445 195.329 34.6309 199.98 34.6309ZM220.468 39.7863V9.86253H227.192L227.361 15.6343C228.537 11.5997 230.891 9.86253 234.533 9.86253H237.279V16.0266H234.477C229.882 16.0266 227.641 17.9319 227.641 22.5269V39.7863H220.468ZM704.835 39.7863C698.895 39.7863 696.149 37.1526 696.149 31.2126V15.4102H691.442V9.86253H696.149V2.8579H703.322V9.86253H711.223V15.4102H703.322V30.5402C703.322 33.342 704.498 34.2386 707.02 34.2386H711.223V39.7863H704.835ZM729.266 40.4587C720.3 40.4587 714.585 34.2947 714.585 24.8244C714.585 15.4102 720.3 9.19008 729.098 9.19008C737.672 9.19008 743.332 15.13 743.332 25.2167V26.8417H722.038C722.318 32.1092 725.064 34.743 729.322 34.743C732.517 34.743 734.702 33.23 735.543 30.5962L742.883 31.0445C741.258 36.8724 736.159 40.4587 729.266 40.4587ZM735.879 22.0226C735.543 17.1473 732.909 14.8498 729.098 14.8498C725.232 14.8498 722.598 17.3715 722.038 22.0226H735.879ZM758.115 40.4587C751.839 40.4587 747.693 37.4888 747.693 32.2773C747.693 27.1219 750.887 24.3761 757.443 23.0873L767.362 21.126C767.362 16.9232 765.4 14.7377 761.646 14.7377C758.115 14.7377 756.21 16.3628 755.538 19.3888L748.197 19.0526C749.374 12.7765 754.193 9.19008 761.646 9.19008C770.163 9.19008 774.534 13.673 774.534 21.6303V32.5015C774.534 34.1266 775.095 34.5749 776.215 34.5749H777.168V39.7863C776.72 39.8984 775.543 40.0105 774.59 40.0105C771.34 40.0105 768.931 38.8337 768.314 35.1352C766.857 38.3293 763.047 40.4587 758.115 40.4587ZM759.572 35.2473C764.336 35.2473 767.362 32.2213 767.362 27.6823V26.0012L759.628 27.5702C756.434 28.1866 755.145 29.5315 755.145 31.6049C755.145 33.9585 756.714 35.2473 759.572 35.2473ZM782.59 39.7863V9.86253H789.09L789.258 14.9059C790.715 11.2635 793.741 9.19008 797.495 9.19008C801.866 9.19008 804.892 11.4876 806.181 15.3542C807.526 11.3755 810.608 9.19008 814.755 9.19008C820.919 9.19008 824.729 13.1687 824.729 20.5656V39.7863H817.557V22.4148C817.557 17.4836 815.932 15.0179 812.457 15.0179C809.039 15.0179 806.966 17.8198 806.966 22.639V39.7863H800.297V22.639C800.297 17.7637 798.952 15.0179 795.31 15.0179C791.892 15.0179 789.762 17.8758 789.762 22.639V39.7863H782.59ZM844.169 40.4587C835.315 40.4587 830.664 36.256 830.216 30.3721L837.557 30.0359C838.061 33.1739 840.022 34.9671 844.169 34.9671C847.531 34.9671 849.549 33.9585 849.549 31.6049C849.549 29.5876 848.54 28.691 842.992 27.7383C833.802 26.1693 830.944 23.7037 830.944 18.6043C830.944 13.0566 835.315 9.19008 843.609 9.19008C851.678 9.19008 855.825 13.5049 856.665 19.2767L849.38 19.613C848.876 16.587 846.859 14.6817 843.553 14.6817C840.134 14.6817 838.397 16.1947 838.397 18.3802C838.397 20.7897 839.966 21.7424 844.505 22.4709C853.919 23.9278 857.002 26.5055 857.002 31.4928C857.002 37.2646 851.79 40.4587 844.169 40.4587Z" fill="white"/>
<path d="M257.365 39.7863V7.63444e-06H267.171L278.155 30.8204L289.138 7.63444e-06H298.944V39.7863H291.66V12.3282L281.629 39.7303H274.68L264.65 12.3282V39.7863H257.365ZM320.318 40.4587C311.408 40.4587 305.58 34.2947 305.58 24.8244C305.58 15.3542 311.408 9.19008 320.318 9.19008C329.172 9.19008 334.999 15.3542 334.999 24.8244C334.999 34.2947 329.172 40.4587 320.318 40.4587ZM320.318 34.6309C324.913 34.6309 327.603 31.0445 327.603 24.8244C327.603 18.6603 324.913 15.0179 320.318 15.0179C315.667 15.0179 313.033 18.6603 313.033 24.8244C313.033 31.0445 315.667 34.6309 320.318 34.6309ZM351.675 40.4587C343.998 40.4587 339.235 34.4067 339.235 24.8244C339.235 15.2421 344.11 9.19008 351.675 9.19008C355.822 9.19008 359.128 11.0393 360.753 14.1213V7.63444e-06H367.926V39.7863H361.146L360.977 35.3594C359.296 38.5535 355.822 40.4587 351.675 40.4587ZM353.805 34.6309C358.232 34.6309 360.753 31.1566 360.753 24.8244C360.753 18.4362 358.288 15.0179 353.805 15.0179C349.434 15.0179 346.688 18.7164 346.688 24.8244C346.688 30.8204 349.49 34.6309 353.805 34.6309ZM388.666 40.4587C379.7 40.4587 373.985 34.2947 373.985 24.8244C373.985 15.4102 379.7 9.19008 388.498 9.19008C397.072 9.19008 402.732 15.13 402.732 25.2167V26.8417H381.438C381.718 32.1092 384.464 34.743 388.722 34.743C391.916 34.743 394.102 33.23 394.942 30.5962L402.283 31.0445C400.658 36.8724 395.559 40.4587 388.666 40.4587ZM395.279 22.0226C394.942 17.1473 392.309 14.8498 388.498 14.8498C384.632 14.8498 381.998 17.3715 381.438 22.0226H395.279ZM408.499 39.7863V9.86253H415.223L415.391 15.6343C416.568 11.5997 418.921 9.86253 422.564 9.86253H425.31V16.0266H422.508C417.913 16.0266 415.671 17.9319 415.671 22.5269V39.7863H408.499ZM430.279 39.7863V9.86253H436.779L436.947 15.0179C438.516 10.8712 441.934 9.19008 445.913 9.19008C452.525 9.19008 456.112 13.8412 456.112 20.5656V39.7863H448.939V22.8631C448.939 17.8198 447.594 15.0179 443.727 15.0179C439.861 15.0179 437.451 17.8198 437.451 22.8631V39.7863H430.279ZM477.737 39.7863V7.63444e-06H490.962C503.626 7.63444e-06 510.743 7.17275 510.743 19.9492C510.743 32.6696 503.794 39.7863 491.298 39.7863H477.737ZM490.962 33.4541C499.255 33.4541 503.234 29.0272 503.234 19.9492C503.234 10.7591 499.255 6.33219 490.962 6.33219H485.022V33.4541H490.962ZM530.182 40.4587C521.216 40.4587 515.5 34.2947 515.5 24.8244C515.5 15.4102 521.216 9.19008 530.014 9.19008C538.587 9.19008 544.247 15.13 544.247 25.2167V26.8417H522.953C523.233 32.1092 525.979 34.743 530.238 34.743C533.432 34.743 535.617 33.23 536.458 30.5962L543.799 31.0445C542.174 36.8724 537.074 40.4587 530.182 40.4587ZM536.794 22.0226C536.458 17.1473 533.824 14.8498 530.014 14.8498C526.147 14.8498 523.513 17.3715 522.953 22.0226H536.794ZM557.102 39.7863L546.175 9.86253H553.74L561.361 32.5575L568.926 9.86253H576.547L565.564 39.7863H557.102ZM593.225 40.4587C584.315 40.4587 578.487 34.2947 578.487 24.8244C578.487 15.3542 584.315 9.19008 593.225 9.19008C602.079 9.19008 607.906 15.3542 607.906 24.8244C607.906 34.2947 602.079 40.4587 593.225 40.4587ZM593.225 34.6309C597.82 34.6309 600.509 31.0445 600.509 24.8244C600.509 18.6603 597.82 15.0179 593.225 15.0179C588.574 15.0179 585.94 18.6603 585.94 24.8244C585.94 31.0445 588.574 34.6309 593.225 34.6309ZM613.712 48.1919V9.86253H620.605L620.717 14.2895C622.454 10.9833 625.76 9.19008 629.683 9.19008C638.201 9.19008 642.403 16.1947 642.403 24.8244C642.403 33.4541 638.144 40.4587 629.627 40.4587C625.816 40.4587 622.51 38.6095 620.885 35.6956V48.1919H613.712ZM627.946 34.6309C632.317 34.6309 634.95 30.9885 634.95 24.8244C634.95 18.6603 632.317 15.0179 627.946 15.0179C623.575 15.0179 620.885 18.3241 620.885 24.8244C620.885 31.3247 623.519 34.6309 627.946 34.6309ZM660.571 40.4587C651.717 40.4587 647.066 36.256 646.618 30.3721L653.959 30.0359C654.463 33.1739 656.424 34.9671 660.571 34.9671C663.933 34.9671 665.951 33.9585 665.951 31.6049C665.951 29.5876 664.942 28.691 659.394 27.7383C650.204 26.1693 647.346 23.7037 647.346 18.6043C647.346 13.0566 651.717 9.19008 660.011 9.19008C668.08 9.19008 672.227 13.5049 673.067 19.2767L665.783 19.613C665.278 16.587 663.261 14.6817 659.955 14.6817C656.536 14.6817 654.799 16.1947 654.799 18.3802C654.799 20.7897 656.368 21.7424 660.907 22.4709C670.322 23.9278 673.404 26.5055 673.404 31.4928C673.404 37.2646 668.192 40.4587 660.571 40.4587Z" fill="url(#paint0_radial_176_1170)"/>
<defs>
<radialGradient id="paint0_radial_176_1170" cx="0" cy="0" r="1" gradientTransform="matrix(755.731 -14.2527 973.981 66.2059 103.95 28.9954)" gradientUnits="userSpaceOnUse">
<stop stop-color="#6CE0FF"/>
<stop offset="1" stop-color="#A4A0FF"/>
</radialGradient>
</defs>
</svg>
