<svg width="87" height="12" viewBox="0 0 87 12" fill="none" xmlns="http://www.w3.org/2000/svg">
<g opacity="0.8" clip-path="url(#clip0_176_437)">
<path d="M20.9948 7.22824C20.9948 7.69068 20.8279 8.08485 20.4939 8.4101C20.16 8.73535 19.7588 8.8983 19.2906 8.8983H17.0209C16.5471 8.8983 16.1446 8.73568 15.8133 8.4101C15.482 8.08485 15.3164 7.69068 15.3164 7.22824V4.88158C15.3164 4.42483 15.4834 4.03366 15.8177 3.70842C16.1516 3.38284 16.5525 3.22021 17.0209 3.22021H19.2906C19.7588 3.22021 20.16 3.38284 20.4939 3.70842C20.8279 4.03366 20.9948 4.42516 20.9948 4.88158V7.22824ZM19.8642 7.2269V4.89162C19.8642 4.70858 19.8079 4.55399 19.6962 4.42818C19.5844 4.30236 19.4509 4.23945 19.296 4.23945H17.0149C16.8543 4.23945 16.7194 4.30236 16.6104 4.42818C16.5013 4.55433 16.4471 4.70858 16.4471 4.89162V7.2269C16.4471 7.40425 16.5016 7.5575 16.6104 7.68599C16.7191 7.81482 16.854 7.87906 17.0149 7.87906H19.296C19.4509 7.87906 19.5844 7.81482 19.6962 7.68599C19.8083 7.55716 19.8642 7.40425 19.8642 7.2269Z" fill="white"/>
<path d="M30.6616 8.66708C30.6616 8.82134 30.5873 8.8983 30.4391 8.8983H29.7538C29.6052 8.8983 29.5312 8.82101 29.5312 8.66675V4.89128C29.5312 4.70825 29.4754 4.55366 29.3643 4.42818C29.2528 4.30236 29.1203 4.23945 28.9661 4.23945H26.688C26.5338 4.23945 26.4009 4.30236 26.2898 4.42818C26.1787 4.55399 26.1229 4.70825 26.1229 4.89128V8.66675C26.1229 8.82134 26.0486 8.8983 25.9 8.8983H25.2147C25.0661 8.8983 24.9922 8.82134 24.9922 8.66708V4.88158C24.9922 4.42483 25.1578 4.03366 25.4891 3.70842C25.82 3.38284 26.2199 3.22021 26.688 3.22021H28.9661C29.4342 3.22021 29.8341 3.38284 30.1653 3.70842C30.4963 4.03366 30.6619 4.42516 30.6619 4.88158L30.6616 8.66708Z" fill="white"/>
<path d="M40.3421 4.89849C40.3421 5.36093 40.1748 5.75477 39.8402 6.08035C39.5056 6.40593 39.1037 6.56856 38.6346 6.56856H36.0176C35.8687 6.56856 35.7944 6.64552 35.7944 6.79978V7.22775C35.7944 7.40476 35.8489 7.55768 35.958 7.68584C36.0668 7.81433 36.2016 7.87858 36.3626 7.87858H38.988C39.1372 7.87858 39.2118 7.95286 39.2118 8.1011V8.66626C39.2118 8.82052 39.1372 8.89748 38.9886 8.89748H36.3716C35.8968 8.89748 35.4936 8.73486 35.1616 8.40928C34.8297 8.08403 34.6641 7.68985 34.6641 7.22742V4.89849C34.6641 4.43605 34.8297 4.04087 35.1606 3.71228C35.4919 3.38402 35.8941 3.21973 36.3683 3.21973H38.638C39.1061 3.21973 39.5073 3.38402 39.8412 3.71228C40.1752 4.04087 40.3421 4.43605 40.3421 4.89849ZM39.2031 4.89414C39.2031 4.71044 39.1472 4.55518 39.0358 4.42869C38.9244 4.30221 38.7912 4.23896 38.6363 4.23896H36.3612C36.201 4.23896 36.0664 4.30221 35.9577 4.42869C35.8489 4.55518 35.7947 4.7101 35.7947 4.89414V5.32546C35.7947 5.4747 35.8693 5.54932 36.0179 5.54932H38.6366C38.7912 5.54932 38.9244 5.48474 39.0361 5.35558C39.1472 5.22608 39.2031 5.07249 39.2031 4.89414Z" fill="white"/>
<path d="M49.4702 8.66708C49.4702 8.82134 49.3959 8.8983 49.2477 8.8983H48.5624C48.4138 8.8983 48.3398 8.82101 48.3398 8.66675V4.89128C48.3398 4.70825 48.284 4.55366 48.1729 4.42818C48.0614 4.30236 47.9289 4.23945 47.7747 4.23945H45.4966C45.3424 4.23945 45.2095 4.30236 45.0984 4.42818C44.9873 4.55399 44.9314 4.70825 44.9314 4.89128V8.66675C44.9314 8.82134 44.8572 8.8983 44.7086 8.8983H44.0233C43.8747 8.8983 43.8008 8.82134 43.8008 8.66708V4.88158C43.8008 4.42483 43.9664 4.03366 44.2977 3.70842C44.6286 3.38284 45.0285 3.22021 45.4966 3.22021H47.7747C48.2428 3.22021 48.6427 3.38284 48.9739 3.70842C49.3049 4.03366 49.4705 4.42516 49.4705 4.88158V8.66708H49.4702Z" fill="white"/>
<path d="M59.0711 7.22824C59.0711 7.69068 58.9041 8.08485 58.5698 8.4101C58.2359 8.73535 57.8347 8.8983 57.3666 8.8983H53.7865C53.6323 8.8983 53.5553 8.82134 53.5553 8.66708V8.10192C53.5553 7.95368 53.6326 7.8794 53.7869 7.8794H57.3739C57.5339 7.8794 57.6684 7.81515 57.7771 7.68666C57.8859 7.55817 57.9404 7.40558 57.9404 7.22857V6.7832C57.9404 6.64065 57.8658 6.56905 57.7172 6.56905H54.9885C54.5197 6.56905 54.1175 6.40642 53.7832 6.08084C53.4486 5.7556 53.2812 5.36142 53.2812 4.89898C53.2812 4.43654 53.4482 4.04136 53.7825 3.71277C54.1165 3.38451 54.5173 3.22021 54.9858 3.22021H57.3666C57.8347 3.22021 58.2359 3.38451 58.5698 3.71277C58.9038 4.04136 59.0711 4.43654 59.0711 4.89898V7.22824ZM57.9404 5.33398V4.8943C57.9404 4.71059 57.8859 4.55533 57.7768 4.42885C57.6677 4.30236 57.5329 4.23912 57.3723 4.23912H54.9798C54.8191 4.23912 54.6843 4.30236 54.5752 4.42885C54.4661 4.55533 54.4119 4.71026 54.4119 4.8943C54.4119 5.07265 54.4665 5.22623 54.5752 5.35573C54.684 5.48489 54.8188 5.54947 54.9798 5.54947H57.7166C57.8658 5.54947 57.9404 5.47786 57.9404 5.33398Z" fill="white"/>
<path d="M68.1937 8.66708C68.1937 8.82134 68.1168 8.8983 67.9625 8.8983H62.7468C62.5926 8.8983 62.5156 8.82134 62.5156 8.66708V8.10192C62.5156 7.95368 62.5929 7.8794 62.7478 7.8794H64.5702C64.7191 7.8794 64.7937 7.8021 64.7937 7.64751V4.46264C64.7937 4.31374 64.7194 4.23945 64.5712 4.23945H63.8859C63.7373 4.23945 63.6634 4.16283 63.6634 4.00991V3.44943C63.6634 3.29684 63.7373 3.22021 63.8855 3.22021H66.8328C66.9807 3.22021 67.055 3.29684 67.055 3.44943V4.00991C67.055 4.16283 66.9807 4.23945 66.8325 4.23945H66.1472C65.9986 4.23945 65.9247 4.31374 65.9247 4.46264V7.64751C65.9247 7.8021 65.999 7.8794 66.1472 7.8794H67.9628C68.1171 7.8794 68.194 7.95368 68.194 8.10192L68.1937 8.66708Z" fill="white"/>
<path d="M77.3217 8.66708C77.3217 8.82134 77.2474 8.8983 77.0992 8.8983H76.4139C76.2654 8.8983 76.1914 8.82101 76.1914 8.66675V4.89128C76.1914 4.70825 76.1355 4.55366 76.0244 4.42818C75.913 4.30236 75.7805 4.23945 75.6262 4.23945H73.3482C73.1939 4.23945 73.0611 4.30236 72.95 4.42818C72.8389 4.55399 72.783 4.70825 72.783 4.89128V8.66675C72.783 8.82134 72.7087 8.8983 72.5602 8.8983H71.8749C71.7263 8.8983 71.6523 8.82134 71.6523 8.66708V4.88158C71.6523 4.42483 71.818 4.03366 72.1492 3.70842C72.4802 3.38284 72.8801 3.22021 73.3482 3.22021H75.6262C76.0944 3.22021 76.4942 3.38284 76.8255 3.70842C77.1564 4.03366 77.3221 4.42516 77.3221 4.88158L77.3217 8.66708Z" fill="white"/>
<path d="M86.9987 4.89849C86.9987 5.36093 86.8314 5.75477 86.4968 6.08035C86.1622 6.40593 85.76 6.56856 85.2912 6.56856H82.6738C82.5253 6.56856 82.451 6.64552 82.451 6.79978V7.22775C82.451 7.40476 82.5055 7.55768 82.6143 7.68584C82.7234 7.81433 82.8582 7.87858 83.0192 7.87858H85.6442C85.7931 7.87858 85.8681 7.95286 85.8681 8.1011V8.66626C85.8681 8.82052 85.7934 8.89748 85.6449 8.89748H83.0279C82.553 8.89748 82.1498 8.73486 81.8179 8.40928C81.4863 8.08403 81.3203 7.68985 81.3203 7.22742V4.89849C81.3203 4.43605 81.4859 4.04087 81.8172 3.71228C82.1482 3.38402 82.5507 3.21973 83.0245 3.21973H85.2942C85.7623 3.21973 86.1635 3.38402 86.4975 3.71228C86.8318 4.04087 86.9987 4.43605 86.9987 4.89849ZM85.8597 4.89414C85.8597 4.71044 85.8038 4.55518 85.6924 4.42869C85.5806 4.30221 85.4475 4.23896 85.2929 4.23896H83.0178C82.8572 4.23896 82.723 4.30221 82.6139 4.42869C82.5052 4.55518 82.451 4.7101 82.451 4.89414V5.32546C82.451 5.4747 82.5253 5.54932 82.6742 5.54932H85.2929C85.4475 5.54932 85.5803 5.48474 85.6924 5.35558C85.8042 5.22608 85.8597 5.07249 85.8597 4.89414Z" fill="white"/>
<path d="M11.6276 6.30563C11.6561 6.55525 11.7026 6.80454 11.7099 7.05483C11.7494 8.43177 11.3659 9.66048 10.3564 10.6339C9.60821 11.3553 8.68668 11.7334 7.65506 11.8258C5.91238 11.9824 4.37984 11.4216 3.00156 10.398C1.75311 9.47075 0.857682 8.26815 0.348398 6.79651C-0.0340679 5.69194 -0.133449 4.56027 0.211205 3.42626C0.719486 1.75319 1.86153 0.756031 3.55435 0.370554C3.68485 0.340773 3.81836 0.323373 3.95087 0.301623C3.96224 0.299616 3.97462 0.306643 3.98968 0.310323C3.72232 0.466923 3.4466 0.607462 3.1933 0.780458C2.30891 1.38444 1.81836 2.2444 1.64938 3.28472C1.37868 4.9501 1.91373 6.403 2.91255 7.70231C3.8545 8.92767 5.07384 9.75785 6.60035 10.0854C7.87155 10.3582 9.07249 10.1945 10.1275 9.38509C10.8844 8.8042 11.3184 8.01384 11.4948 7.08193C11.543 6.82729 11.5654 6.56797 11.5998 6.31065C11.6089 6.30897 11.6182 6.3073 11.6276 6.30563Z" fill="white"/>
<path d="M5.05257 2.37416C3.88376 2.44409 2.39907 3.44727 2.6236 5.58345C2.6082 5.5868 2.59281 5.59015 2.57742 5.59316C2.52355 5.31175 2.4496 5.03268 2.41981 4.74892C2.3452 4.03719 2.42851 3.34856 2.76681 2.70275C3.26371 1.75378 4.0591 1.22509 5.10075 1.06012C6.23744 0.880099 7.2781 1.17322 8.25517 1.74475C8.27659 1.75713 8.30034 1.76616 8.30001 1.79293C8.04135 1.73671 7.78537 1.6621 7.52404 1.62796C6.56235 1.50315 5.3574 2.24232 5.38183 3.52758C5.39856 4.41598 5.79909 5.1344 6.45327 5.71529C6.97058 6.17472 7.57021 6.45412 8.27458 6.46014C9.58293 6.47186 10.4881 5.3181 10.1591 4.0469C10.0852 3.76147 9.95234 3.4911 9.862 3.20032C9.96506 3.35558 10.0778 3.50583 10.1702 3.66711C10.7735 4.72316 11.07 5.83575 10.7457 7.0474C10.4339 8.21253 9.65922 8.92258 8.51818 9.25686C8.41411 9.28731 8.30771 9.3114 8.20096 9.33048C8.10828 9.34721 8.01358 9.35323 7.91386 9.35323C8.70456 9.09323 9.28646 8.60101 9.61572 7.83341C9.78236 7.44458 9.85664 7.03635 9.83155 6.58328C9.77265 6.61909 9.73852 6.63348 9.71209 6.65656C9.06026 7.23277 8.29934 7.35189 7.47251 7.18827C6.06545 6.90953 4.86853 5.70224 4.61422 4.31292C4.48941 3.63064 4.61891 3.00691 5.0248 2.44208C5.03483 2.42836 5.03851 2.40929 5.05257 2.37416Z" fill="white"/>
<path d="M8.27405 6.26237C9.0721 5.89764 9.43784 5.32578 9.33779 4.60168C9.27957 4.17939 9.12865 3.79492 8.87334 3.46064C8.49155 2.96039 7.99732 2.62711 7.35753 2.54312C6.5906 2.44274 5.98695 2.83658 5.77213 3.57976C5.76008 3.62159 5.74737 3.66308 5.73231 3.71461C5.63293 3.20098 5.96888 2.49594 6.45575 2.21085C7.13334 1.814 7.81529 1.89865 8.45808 2.27376C9.29228 2.76062 9.80491 3.49176 9.86615 4.47118C9.92069 5.34218 9.43449 6.11748 8.42496 6.2617C8.37577 6.26873 8.32424 6.26237 8.27405 6.26237Z" fill="white"/>
</g>
<defs>
<clipPath id="clip0_176_437">
<rect width="87" height="11.8517" fill="white"/>
</clipPath>
</defs>
</svg>
