<svg width="122" height="58" viewBox="0 0 122 58" fill="none" xmlns="http://www.w3.org/2000/svg">
<path d="M26.5527 28.3387C26.5527 35.9534 21.5611 42.1185 13.3287 42.1185C5.09641 42.1185 0.15625 35.9534 0.15625 28.3387C0.15625 20.7239 5.19918 14.5588 13.2773 14.5588C21.3556 14.5588 26.5527 20.7795 26.5527 28.3387ZM6.43421 28.3387C6.43421 32.3602 8.75016 36.114 13.3287 36.114C17.9073 36.114 20.2232 32.3602 20.2232 28.3387C20.2232 24.3172 17.5477 20.5099 13.3287 20.5099C8.80154 20.5099 6.43421 24.3707 6.43421 28.3387Z" fill="white"/>
<path d="M30.873 52.5856V15.1051H36.7399L37.1509 18.7519C39.1053 15.8031 42.5022 14.5161 45.3833 14.5161C53.2046 14.5161 58.4017 20.5742 58.4017 28.3495C58.4017 36.1248 53.7184 42.1829 45.5889 42.1829C42.9132 42.1829 38.9511 41.3242 37.149 38.4291V52.5836H30.8711L30.873 52.5856ZM52.1237 28.3495C52.1237 24.2209 49.4481 20.8419 44.9189 20.8419C40.3898 20.8419 37.7142 24.219 37.7142 28.3495C37.7142 32.48 40.6467 35.8551 44.9189 35.8551C49.1912 35.8551 52.1237 32.4782 52.1237 28.3495Z" fill="white"/>
<path d="M79.605 22.1234C77.8047 20.3546 75.7457 19.7636 73.3271 19.7636C70.3431 19.7636 68.6952 20.7294 68.6952 22.3912C68.6952 24.0529 70.1871 25.0721 73.4298 25.2863C78.2158 25.6075 84.2863 26.7339 84.2863 33.7576C84.2863 38.4216 80.6327 42.4452 73.3765 42.4452C69.3631 42.4452 65.3497 41.7472 61.6445 37.7257L64.7312 33.0616C66.5314 35.1517 70.6495 36.7084 73.4792 36.7619C75.8466 36.8155 78.0579 35.5285 78.0579 33.599C78.0579 31.7766 76.6173 31.025 73.0149 30.8109C68.2289 30.4362 62.518 28.6118 62.518 22.6073C62.518 16.6028 68.5904 14.3501 73.2205 14.3501C77.1825 14.3501 80.1664 15.1532 83.1008 17.8343L79.6012 22.1234H79.605Z" fill="white"/>
<path d="M105.451 56.4599C96.4138 56.4599 89.0625 48.7996 89.0625 39.3823V17.2343C89.0625 7.81705 96.4138 0.156738 105.451 0.156738C114.488 0.156738 121.839 7.81705 121.839 17.2343V39.3823C121.839 48.7996 114.488 56.4599 105.451 56.4599ZM105.451 5.88561C99.4453 5.88561 94.5602 10.976 94.5602 17.2343V39.3823C94.5602 45.6407 99.4453 50.731 105.451 50.731C111.457 50.731 116.342 45.6407 116.342 39.3823V17.2343C116.342 10.976 111.457 5.88561 105.451 5.88561Z" fill="url(#paint0_linear_176_1207)"/>
<path d="M106.359 0.183594V5.92833C111.945 6.40821 116.348 11.2943 116.348 17.2354V27.1484H121.846V17.2354C121.846 8.13342 114.978 0.673393 106.359 0.183594Z" fill="url(#paint1_linear_176_1207)"/>
<path d="M104.549 56.4619V50.7171C98.9637 50.2372 94.5602 45.3511 94.5602 39.41V29.4971H89.0625V39.41C89.0625 48.5121 95.9304 55.972 104.549 56.4619Z" fill="url(#paint2_linear_176_1207)"/>
<path d="M105.451 45.5337C96.4138 45.5337 89.0625 37.8734 89.0625 28.4562C89.0625 19.039 96.4138 11.3787 105.451 11.3787C114.488 11.3787 121.839 19.039 121.839 28.4562C121.839 37.8734 114.488 45.5337 105.451 45.5337ZM105.451 17.1333C99.4585 17.1333 94.585 22.2118 94.585 28.4562C94.585 34.7006 99.4585 39.7791 105.451 39.7791C111.444 39.7791 116.317 34.6986 116.317 28.4562C116.317 22.2138 111.444 17.1333 105.451 17.1333Z" fill="url(#paint3_linear_176_1207)"/>
<defs>
<linearGradient id="paint0_linear_176_1207" x1="74.8414" y1="71.8738" x2="125.672" y2="5.24823" gradientUnits="userSpaceOnUse">
<stop offset="0.04" stop-color="#5855A4"/>
<stop offset="1" stop-color="#7ED0E6"/>
</linearGradient>
<linearGradient id="paint1_linear_176_1207" x1="111.638" y1="2.89832" x2="120.177" y2="25.8789" gradientUnits="userSpaceOnUse">
<stop stop-opacity="0"/>
<stop offset="1"/>
</linearGradient>
<linearGradient id="paint2_linear_176_1207" x1="99.0551" y1="54.3242" x2="90.3053" y2="25.5565" gradientUnits="userSpaceOnUse">
<stop stop-opacity="0"/>
<stop offset="1"/>
</linearGradient>
<linearGradient id="paint3_linear_176_1207" x1="74.9099" y1="71.9234" x2="125.738" y2="5.29986" gradientUnits="userSpaceOnUse">
<stop offset="0.04" stop-color="#5855A4"/>
<stop offset="1" stop-color="#7ED0E6"/>
</linearGradient>
</defs>
</svg>
