<svg width="70" height="33" viewBox="0 0 70 33" fill="none" xmlns="http://www.w3.org/2000/svg">
<g clip-path="url(#clip0_176_1294)">
<path d="M15.2314 16.2604C15.2314 20.6295 12.3674 24.1668 7.64391 24.1668C2.92046 24.1668 0.0859375 20.6295 0.0859375 16.2604C0.0859375 11.8912 2.97942 8.35388 7.61443 8.35388C12.2495 8.35388 15.2314 11.9231 15.2314 16.2604ZM3.68805 16.2604C3.68805 18.5678 5.01687 20.7216 7.64391 20.7216C10.271 20.7216 11.5998 18.5678 11.5998 16.2604C11.5998 13.9529 10.0646 11.7684 7.64391 11.7684C5.04635 11.7684 3.68805 13.9836 3.68805 16.2604Z" fill="white"/>
<path d="M17.712 30.1718V8.66657H21.0783L21.3141 10.759C22.4355 9.06705 24.3845 8.32861 26.0376 8.32861C30.5252 8.32861 33.5072 11.8046 33.5072 16.2658C33.5072 20.727 30.8201 24.203 26.1556 24.203C24.6203 24.203 22.347 23.7103 21.313 22.0492V30.1706H17.7109L17.712 30.1718ZM29.9051 16.2658C29.9051 13.8969 28.3699 11.9582 25.7712 11.9582C23.1725 11.9582 21.6373 13.8958 21.6373 16.2658C21.6373 18.6358 23.3199 20.5723 25.7712 20.5723C28.2224 20.5723 29.9051 18.6347 29.9051 16.2658Z" fill="white"/>
<path d="M45.6724 12.6941C44.6394 11.6792 43.458 11.3401 42.0703 11.3401C40.3582 11.3401 39.4126 11.8943 39.4126 12.8477C39.4126 13.8012 40.2687 14.386 42.1293 14.5089C44.8753 14.6932 48.3584 15.3395 48.3584 19.3695C48.3584 22.0455 46.262 24.3541 42.0986 24.3541C39.7959 24.3541 37.4931 23.9537 35.3672 21.6462L37.1383 18.9701C38.1712 20.1693 40.534 21.0625 42.1576 21.0932C43.5159 21.124 44.7847 20.3855 44.7847 19.2785C44.7847 18.2328 43.9581 17.8016 41.8912 17.6788C39.1451 17.4637 35.8684 16.4169 35.8684 12.9717C35.8684 9.52652 39.3525 8.23401 42.0091 8.23401C44.2824 8.23401 45.9945 8.6948 47.6782 10.2331L45.6702 12.6941H45.6724Z" fill="white"/>
<path d="M60.5048 32.3949C55.3195 32.3949 51.1016 27.9997 51.1016 22.5963V9.88844C51.1016 4.4851 55.3195 0.0898438 60.5048 0.0898438C65.6902 0.0898438 69.9078 4.4851 69.9078 9.88844V22.5963C69.9078 27.9997 65.6902 32.3949 60.5048 32.3949ZM60.5048 3.3769C57.0589 3.3769 54.256 6.29759 54.256 9.88844V22.5963C54.256 26.1872 57.0589 29.1079 60.5048 29.1079C63.9508 29.1079 66.7537 26.1872 66.7537 22.5963V9.88844C66.7537 6.29759 63.9508 3.3769 60.5048 3.3769Z" fill="url(#paint0_linear_176_1294)"/>
<path d="M61.0273 0.105591V3.40175C64.232 3.67709 66.7586 6.48059 66.7586 9.88942V15.5772H69.9132V9.88942C69.9132 4.66697 65.9724 0.386623 61.0273 0.105591Z" fill="url(#paint1_linear_176_1294)"/>
<path d="M59.9873 32.3968V29.1006C56.7826 28.8252 54.256 26.0217 54.256 22.6129V16.9252H51.1016V22.6129C51.1016 27.8354 55.0422 32.1157 59.9873 32.3968Z" fill="url(#paint2_linear_176_1294)"/>
<path d="M60.5048 26.1265C55.3195 26.1265 51.1016 21.7312 51.1016 16.3279C51.1016 10.9246 55.3195 6.5293 60.5048 6.5293C65.6902 6.5293 69.9078 10.9246 69.9078 16.3279C69.9078 21.7312 65.6902 26.1265 60.5048 26.1265ZM60.5048 9.83115C57.0665 9.83115 54.2702 12.745 54.2702 16.3279C54.2702 19.9107 57.0665 22.8246 60.5048 22.8246C63.9432 22.8246 66.7395 19.9096 66.7395 16.3279C66.7395 12.7462 63.9432 9.83115 60.5048 9.83115Z" fill="url(#paint3_linear_176_1294)"/>
</g>
<defs>
<linearGradient id="paint0_linear_176_1294" x1="42.9419" y1="41.239" x2="72.1068" y2="3.01118" gradientUnits="userSpaceOnUse">
<stop offset="0.04" stop-color="#5855A4"/>
<stop offset="1" stop-color="#7ED0E6"/>
</linearGradient>
<linearGradient id="paint1_linear_176_1294" x1="64.0562" y1="1.66322" x2="68.9554" y2="14.8488" gradientUnits="userSpaceOnUse">
<stop stop-opacity="0"/>
<stop offset="1"/>
</linearGradient>
<linearGradient id="paint2_linear_176_1294" x1="56.835" y1="31.1702" x2="51.8146" y2="14.6642" gradientUnits="userSpaceOnUse">
<stop stop-opacity="0"/>
<stop offset="1"/>
</linearGradient>
<linearGradient id="paint3_linear_176_1294" x1="42.9812" y1="41.2681" x2="72.1451" y2="3.04146" gradientUnits="userSpaceOnUse">
<stop offset="0.04" stop-color="#5855A4"/>
<stop offset="1" stop-color="#7ED0E6"/>
</linearGradient>
<clipPath id="clip0_176_1294">
<rect width="70" height="32.9808" fill="white"/>
</clipPath>
</defs>
</svg>
